<?xml version="1.0" encoding="utf-8"?>
<!-- Generator: Adobe Illustrator 21.0.2, SVG Export Plug-In . SVG Version: 6.00 Build 0)  -->
<svg version="1.1" id="Layer_1" xmlns="http://www.w3.org/2000/svg" xmlns:xlink="http://www.w3.org/1999/xlink" x="0px" y="0px"
	 viewBox="0 0 1264 768" style="enable-background:new 0 0 1264 768;" xml:space="preserve">
<g>
	<g>
		<g>
			<path d="M542.7,429.7c-0.5,0-1,0.4-1,0.9v10.5c0,0.5,0.5,1,1.2,1H657c0.5,0,1.1-0.5,1.1-1v-10.5c0-0.5-0.5-0.9-1.1-0.9h-3.3
				c-11.7,0-17.4-7.8-17.4-18.5v-66c0-5.4-0.3-11-3.7-16.2h22.1c13.7,0,22.8,9.4,22.8,22.3c0,12.9-8.9,22.1-23.7,22.1h-4
				c-0.5,0-1,0.3-1,0.9v10.1c0,0.7,0.5,1,1,1c10.1,0,10.1,8.2,17.8,23.5c20.5,41.1,56.6,62,99.8,62c6.3,0,10.3-0.7,10.3-1.7V464
				c0-0.5-0.5-0.9-1-0.9c-23.9-1.1-47.7-18.6-65.1-40.1c-14.3-17.4-22.1-37.4-22.1-39.9c0-0.9,0.7-1.2,1.2-1.6
				c12.9-7.1,18.6-17.2,18.6-29.4c0-17.4-12.2-35.5-37.1-35.5h-85.3c-0.5,0-1,0.3-1,0.9V328c0,0.5,0.5,1,1.2,1h9.2
				c6.3,0,7.7,4.7,7.7,17.1v59.7c0,8.7,0.9,19,11.3,23.9h-9.8c-16.5,0-24.2-14.8-32.2-33.6l-32.9-78.4c-0.2-0.5-0.7-1-1.2-1h-21.2
				c-0.5,0-0.9,0.5-1,1c-27,72.1-38.8,97.3-38.8,97.3c-5.4,11.1-14.6,14.6-21.8,14.6h-1.7c-0.5,0-1,0.4-1,0.9v10.5
				c0,0.5,0.5,1,1.2,1h42.1c0.5,0,1-0.5,1-1v-10.5c0-0.5-0.5-0.9-1-0.9h-15.7c3.8-2.4,8.4-6.6,11.3-14.1l6.1-15.1h43l0.9,2.3
				c3.1,8.2,10.8,24,18.6,27H542.7L542.7,429.7z M406.7,442.1c35.5,0,54.5-19.3,54.5-40.6c0-16.4-11.3-33.3-35-40.6
				c-0.5-0.2-0.7-0.3-0.7-0.9c0-0.5,0.3-0.7,0.9-0.9c14.1-5.9,20.2-18.8,20.2-30.3c0-17.9-15-34.8-41.6-34.8h-80.3c-0.5,0-1,0.5-1,1
				v10.4c0,0.5,0.5,0.9,1,0.9h7.7c6.3,0,7.7,4.7,7.7,17.1v82.4c0,8.7,1,19,11.3,23.9h-26.6c-0.5,0-1,0.4-1,0.9v10.5
				c0,0.5,0.5,1,1.2,1H406.7L406.7,442.1z M1187.7,315c-51.4,0-76.4,32.2-76.4,64.4c0,32.2,25.1,64.4,76.4,64.4
				c51.2,0,76.3-32.2,76.3-64.4C1264,347.2,1238.9,315,1187.7,315L1187.7,315L1187.7,315z M970.1,442.8c0,0.5,0.4,1,0.9,1h11.1
				c0.5,0,1-0.5,1-1.2v-35c0-0.5-0.5-1-1-1h-11.1c-0.5,0-0.9,0.5-0.9,1v7.7c0,8.2-7.7,14.5-14.8,14.5h-31.7
				c-12.2,0-18.3-7.7-18.3-18.5v-27h20.4c10.4,0,13.6,3.1,13.6,8.5v8.4c0,0.5,0.3,1,0.9,1h11.1c0.5,0,1-0.5,1-1.2v-46
				c0-0.5-0.5-1-1-1h-11.1c-0.5,0-0.9,0.5-0.9,1v7.5c0,5.7-2.4,9.4-12,9.4h-12.7c-4.4,0-7.3,2.1-9.2,4.7v-31.3
				c0-5.4-0.3-11-3.7-16.2h50.1c7.1,0,14.8,6.3,14.8,14.5v5.9c0,0.5,0.3,1,0.9,1h11.1c0.5,0,1.1-0.5,1.1-1.2V316c0-0.5-0.5-1-1.1-1
				h-11.1c-0.5,0-0.9,0.5-0.9,1v9.4c-3-5.4-8.4-8.7-14.8-8.7h-94.2c-0.5,0-1,0.3-1,0.9V328c0,0.5,0.5,1,1.2,1h7.5
				c6.3,0,7.7,4.7,7.7,17.1v59.7c0,8.7,0.9,19,11.3,23.9h-26.6c-0.5,0-1,0.4-1,0.9v10.5c0,0.5,0.5,1,1.2,1h97.5
				c6.4,0,11.8-3.3,14.8-8.5V442.8L970.1,442.8z M1184.1,326.3c27.3,0,43.5,30.8,43.5,60.8c0,25.1-11.3,45.6-36.9,45.6
				c-27,0-43-30.5-43-60.4C1147.7,347.2,1158.8,326.3,1184.1,326.3L1184.1,326.3L1184.1,326.3z M834.8,355.2c0,0.5,0.4,1,0.9,1h11.1
				c0.5,0,1.1-0.5,1.1-1.2v-39c0-0.5-0.5-1-1.1-1h-11.1c-0.5,0-0.9,0.5-0.9,1v9.2C825,318.8,813,315,796.4,315
				c-50.8,0-75.7,33.1-75.7,65.6c0,31.7,23.9,63.2,70.5,63.2c21.8,0,40.2-4.4,53.3-17.1c3.8-3.8,5.6-7.1,5.6-8.4v-8.7
				c0-0.7-0.3-0.9-0.5-0.9c-0.5,0-1.2,0.7-1.4,0.9c-14.1,14.1-29.1,19.5-45.8,19.5c-28.9,0-45.4-27.2-45.4-55.2
				c0-25.4,15.3-47.5,44.9-47.5c16.2,0,32,9.7,32.9,23.9V355.2L834.8,355.2z M1100.8,442.8c0,0.5,0.3,1,0.9,1h11.1
				c0.5,0,1-0.5,1-1.2v-35c0-0.5-0.5-1-1-1h-11.1c-0.5,0-0.9,0.5-0.9,1v8.4c0,7.8-7.8,13.8-14.8,13.8H1057
				c-11.7,0-17.4-7.8-17.4-18.5v-66c0-5.4-0.3-11-3.7-16.2h17.6c0.5,0,1-0.5,1-1v-10.4c0-0.5-0.5-0.9-1-0.9H992c-0.5,0-1,0.3-1,0.9
				V328c0,0.5,0.5,1,1.2,1h8.2c5.4,0,6.8,5.4,6.8,17.1v59.7c0,8.7,0.9,19,11.3,23.9h-24.9c-0.5,0-1,0.4-1,0.9v10.5
				c0,0.5,0.5,1,1.2,1h92.3c6.4,0,11.8-3.3,14.8-8.5V442.8L1100.8,442.8z M391.8,429.7c-12.9,0-19.3-7.5-19.3-18.5v-88.6
				c0-5.4-0.2-11-3.5-16.2h17.9c17.6,0,26.6,13.1,26.6,25.6c0,12.2-8.2,24-25.4,24h-3.8c-0.5,0-1,0.3-1,0.9v10.5c0,0.5,0.5,1,1,1
				h8.4c22.1,0,34.5,17.4,34.5,33.6c0,14.3-8.5,27.7-27.2,27.7H391.8L391.8,429.7z M1194.2,268.7c-18.6,38.7-18.6,39-18.6,39
				c0,0.5,0.3,0.7,0.9,0.7h11.5c1.6,0,1.9-0.3,2.6-1l34.7-38.1c0.2-0.2,0.2-0.3,0.2-0.5c0-0.7-0.7-1.1-1-1.1h-29.1
				C1194.7,267.6,1194.3,268.1,1194.2,268.7L1194.2,268.7L1194.2,268.7z M529.2,388.1h-18.5c-4.4,0-7.1,2.1-9.1,4.7l17.2-43.4l1.6-7
				l1.4,6.8l16.7,43.5C536.6,390.2,534,388.1,529.2,388.1L529.2,388.1z"/>
		</g>
		<g>
			<path d="M490.9,541.1c0,2.5,1.6,4.2,3.6,4.2h0.3c0.5,0,0.8,0.3,0.8,0.8v0.6c0,0.5-0.3,0.9-0.8,0.9h-13.2c-0.5,0-0.8-0.3-0.8-0.9
				v-0.6c0-0.5,0.3-0.8,0.8-0.8h4.2c-0.8-1-1.3-2.4-1.3-3.8v-21c0-1.5-0.2-2.1-2.1-2.1h-1.3c-0.5,0-0.8-0.3-0.8-0.8v-0.6
				c0-0.6,0.3-0.9,0.8-0.9h13.5c5.4,0,13.2,1.8,13.2,8.6c0,4.3-2.9,6.3-5.2,7.3c-0.1,0-0.2,0.1-0.2,0.3c0,0.1,0.1,0.4,0.2,0.5
				c4,6.3,5.3,9.4,7.4,11c1.4,1.1,3.2,1.8,3.7,1.9c0.5,0.1,0.8,0.2,0.8,0.8v0.4c0,0.4-0.2,0.5-0.7,0.7c-0.6,0.1-1.5,0.4-3.1,0.4
				c-4.5,0-7-1.9-9.9-6.3c-1.3-2-2.8-5-3.9-6.8c-0.9-1.4-1.3-1.6-2.8-1.6c-0.6,0-0.8-0.3-0.8-0.9V532c0-0.5,0.2-0.8,0.8-0.8h1.1
				c4.4,0,6.3-2.7,6.3-6.4c0-3.2-3-6.2-8-6.2h-2.8c0.2,0.5,0.2,1,0.2,1.6V541.1z"/>
			<path d="M563,532c0,8.1-5.6,16.1-18.5,16.1c-12.8,0-18.4-8.2-18.4-16.2c0-8.1,5.6-16.2,18.4-16.2C557.4,515.7,563,523.8,563,532z
				 M556.1,534.1c0-6.9-4.1-16.1-12.6-16.1c-6.7,0-10.5,4.6-10.5,11.6c0,6.9,4.1,16.2,12.5,16.2
				C552.2,545.8,556.1,541.2,556.1,534.1z"/>
			<path d="M588.3,516.2c0.4,0,0.7,0.3,0.9,0.6l18.2,21.1v-17.3c0-1.6-0.3-2.1-2.6-2.1H604c-0.5,0-0.8-0.3-0.8-0.8v-0.6
				c0-0.5,0.3-0.9,0.8-0.9h8.9c0.5,0,0.8,0.4,0.8,0.9v0.6c0,0.5-0.3,0.8-0.9,0.8h-3c0.1,0.5,0.1,1,0.1,1.6v26.7
				c0,0.5-0.3,0.8-0.9,0.8h-0.7c-0.6,0-0.8-0.3-1.1-0.7l-22.5-26.1v20.3c0,2.9,1.7,4.2,3.6,4.2h0.2c0.5,0,0.8,0.3,0.8,0.8v0.6
				c0,0.6-0.3,0.9-0.8,0.9h-9.1c-0.5,0-0.8-0.3-0.8-0.9v-0.6c0-0.6,0.3-0.8,0.8-0.8h4c-0.8-1-1.3-2.4-1.3-3.8v-21
				c0-1.6-0.2-2.1-2.5-2.1H579c-0.6,0-0.8-0.3-0.8-0.8v-0.6c0-0.5,0.2-0.9,0.8-0.9H588.3z"/>
			<path d="M657.7,545.4c-0.8-1-1.2-2.4-1.2-3.8v-21c0-1.5-0.3-2.1-2.2-2.1h-1.2c-0.5,0-0.8-0.3-0.8-0.9v-0.6c0-0.6,0.3-0.9,0.8-0.9
				h18c12.9,0,18.6,7.2,18.6,15.4c0,8.1-5.6,16.1-18.6,16.1h-17.6c-0.5,0-0.8-0.3-0.8-0.9v-0.6c0-0.5,0.3-0.8,0.8-0.8H657.7z
				 M662.8,541.1c0,2.5,1.7,4.2,3.7,4.2h5.7c6.7,0,10.6-4.6,10.6-11.6c0-7-3.7-15.3-12.7-15.3h-7.5c0.1,0.5,0.1,1,0.1,1.6V541.1z"/>
			<path d="M742.2,532c0,8.1-5.6,16.1-18.5,16.1c-12.8,0-18.4-8.2-18.4-16.2c0-8.1,5.6-16.2,18.4-16.2
				C736.6,515.7,742.2,523.8,742.2,532z M735.3,534.1c0-6.9-4.1-16.1-12.6-16.1c-6.7,0-10.5,4.6-10.5,11.6c0,6.9,4.1,16.2,12.5,16.2
				C731.4,545.8,735.3,541.2,735.3,534.1z"/>
			<path d="M768.1,516.2c0.6,0,0.8,0.3,1,0.7l9.5,23.5l8.7-23.4c0.2-0.4,0.4-0.8,0.9-0.8h10.4c0.5,0,0.8,0.3,0.8,0.9v0.6
				c0,0.5-0.3,0.9-0.8,0.9h-3.5c0.2,0.5,0.2,1,0.2,1.6v21.1c0,2.5,1.6,4.2,3.9,4.2c0.5,0,0.8,0.3,0.8,0.8v0.6c0,0.6-0.3,0.9-0.8,0.9
				H786c-0.5,0-0.8-0.3-0.8-0.9v-0.6c0-0.6,0.3-0.8,0.8-0.8h4.3c-0.8-1-1.3-2.4-1.3-3.8v-21.2l-10.3,26.5c-0.2,0.5-0.4,0.7-0.9,0.7
				h-1.9c-0.5,0-0.7-0.2-0.9-0.7l-11-26.4v20.6c0,3,1.7,4.2,3.9,4.2c0.5,0,0.8,0.3,0.8,0.8v0.6c0,0.6-0.3,0.9-0.8,0.9h-9.2
				c-0.5,0-0.8-0.3-0.8-0.9v-0.6c0-0.6,0.3-0.8,0.8-0.8h4c-0.8-1-1.3-2.4-1.3-3.8v-21c0-1.6-0.2-2-2.5-2h-0.6
				c-0.6,0-0.8-0.4-0.8-0.9V517c0-0.5,0.2-0.9,0.8-0.9H768.1z"/>
			<path d="M820.5,545.3c-0.8-1-1.2-2.3-1.2-3.8v-21c0-1.6-0.3-2-2.5-2h-0.9c-0.5,0-0.8-0.3-0.8-0.9V517c0-0.5,0.3-0.9,0.8-0.9h13
				c0.5,0,0.8,0.3,0.8,0.9v0.6c0,0.5-0.3,0.9-0.9,0.9h-3.5c0.2,0.5,0.2,1,0.2,1.6v21c0,2.6,1.6,4.2,3.9,4.2c0.5,0,0.8,0.3,0.8,0.8
				v0.6c0,0.5-0.3,0.9-0.8,0.9h-13.2c-0.5,0-0.8-0.3-0.8-0.9v-0.6c0-0.5,0.3-0.8,0.8-0.8H820.5z"/>
			<path d="M855.7,516.2c0.4,0,0.7,0.3,0.9,0.6l18.2,21.1v-17.3c0-1.6-0.3-2.1-2.6-2.1h-0.8c-0.5,0-0.8-0.3-0.8-0.8v-0.6
				c0-0.5,0.3-0.9,0.8-0.9h8.9c0.5,0,0.8,0.4,0.8,0.9v0.6c0,0.5-0.3,0.8-0.8,0.8h-3c0.1,0.5,0.1,1,0.1,1.6v26.7
				c0,0.5-0.3,0.8-0.9,0.8h-0.7c-0.6,0-0.8-0.3-1.1-0.7l-22.5-26.1v20.3c0,2.9,1.7,4.2,3.6,4.2h0.2c0.5,0,0.8,0.3,0.8,0.8v0.6
				c0,0.6-0.3,0.9-0.8,0.9h-9.1c-0.5,0-0.8-0.3-0.8-0.9v-0.6c0-0.6,0.3-0.8,0.8-0.8h4c-0.8-1-1.3-2.4-1.3-3.8v-21
				c0-1.6-0.2-2.1-2.5-2.1h-0.6c-0.6,0-0.8-0.3-0.8-0.8v-0.6c0-0.5,0.2-0.9,0.8-0.9H855.7z"/>
			<path d="M901.9,545.3c-0.8-1-1.2-2.3-1.2-3.8v-21c0-1.6-0.3-2-2.5-2h-0.9c-0.5,0-0.8-0.3-0.8-0.9V517c0-0.5,0.3-0.9,0.8-0.9h13
				c0.5,0,0.8,0.3,0.8,0.9v0.6c0,0.5-0.3,0.9-0.9,0.9h-3.5c0.2,0.5,0.2,1,0.2,1.6v21c0,2.6,1.6,4.2,3.9,4.2c0.5,0,0.8,0.3,0.8,0.8
				v0.6c0,0.5-0.3,0.9-0.8,0.9h-13.2c-0.5,0-0.8-0.3-0.8-0.9v-0.6c0-0.5,0.3-0.8,0.8-0.8H901.9z"/>
			<path d="M933.2,529.6c0,6.9,4.1,14.7,12.5,14.7c3,0,6.8-1,11.5-4.3c0.2-0.1,0.5-0.4,0.8-0.4c0.2,0,0.4,0.2,0.4,0.4v1.1
				c0,0.3-0.1,0.6-0.4,0.8c-4,4-9.1,6.1-13.9,6.1c-12.4,0-17.8-8.1-17.8-16.3c0-8,5.6-16.1,18.4-16.1c3.9,0,7.3,0.8,9.8,2.2v-1.4
				c0-0.5,0.3-0.8,0.8-0.8h0.9c0.5,0,0.9,0.3,0.9,0.8v7.1c0,0.5-0.4,0.8-0.9,0.8h-0.8c-0.5,0-0.8-0.3-0.9-0.8
				c-0.8-4.4-5.5-5.6-8.6-5.6C939.2,518,933.2,522.6,933.2,529.6z"/>
			<path d="M989.6,516.2c0.8,0,1,0.5,1.2,0.9l9.7,23.4c1,2.4,2.1,4.8,4.6,4.8c0.5,0,0.8,0.3,0.8,0.8v0.6c0,0.6-0.3,0.9-0.8,0.9
				h-12.3c-0.5,0-0.8-0.3-0.8-0.9v-0.6c0-0.5,0.3-0.8,0.8-0.8h3.8c-0.8-0.9-1.4-1.9-1.9-3.2l-2-4.7h-12.3l-2.6,6.3
				c-0.2,0.6-0.5,1.1-0.9,1.6h4.1c0.5,0,0.8,0.3,0.8,0.8v0.6c0,0.6-0.3,0.9-0.8,0.9h-9.7c-0.5,0-0.8-0.3-0.8-0.9v-0.6
				c0-0.5,0.3-0.8,0.8-0.8h1.6c1.6,0,2.5-1.3,3-2.6l10.6-26.1c0.1-0.3,0.4-0.5,0.8-0.5H989.6z M981.3,535.2h10.4l-5.3-12.5
				L981.3,535.2z"/>
			<path d="M1030,516.2c0.4,0,0.7,0.3,0.9,0.6l18.2,21.1v-17.3c0-1.6-0.3-2.1-2.5-2.1h-0.8c-0.5,0-0.8-0.3-0.8-0.8v-0.6
				c0-0.5,0.3-0.9,0.8-0.9h8.9c0.5,0,0.8,0.4,0.8,0.9v0.6c0,0.5-0.3,0.8-0.8,0.8h-3c0.1,0.5,0.1,1,0.1,1.6v26.7
				c0,0.5-0.3,0.8-0.9,0.8h-0.7c-0.6,0-0.8-0.3-1.1-0.7l-22.5-26.1v20.3c0,2.9,1.7,4.2,3.6,4.2h0.2c0.5,0,0.8,0.3,0.8,0.8v0.6
				c0,0.6-0.3,0.9-0.8,0.9h-9.1c-0.5,0-0.8-0.3-0.8-0.9v-0.6c0-0.6,0.3-0.8,0.8-0.8h4c-0.8-1-1.3-2.4-1.3-3.8v-21
				c0-1.6-0.2-2.1-2.6-2.1h-0.6c-0.6,0-0.8-0.3-0.8-0.8v-0.6c0-0.5,0.2-0.9,0.8-0.9H1030z"/>
			<path d="M1107.3,532c0,8.1-5.6,16.1-18.5,16.1c-12.8,0-18.4-8.2-18.4-16.2c0-8.1,5.6-16.2,18.4-16.2
				C1101.7,515.7,1107.3,523.8,1107.3,532z M1100.4,534.1c0-6.9-4.1-16.1-12.6-16.1c-6.7,0-10.5,4.6-10.5,11.6
				c0,6.9,4.1,16.2,12.5,16.2C1096.5,545.8,1100.4,541.2,1100.4,534.1z"/>
		</g>
	</g>
	<path d="M250.3,374.8c-3-6.5-3-12,4.2-14.4c0.1,0,0.8-0.1,0.7-0.8c-0.7-4.1-2.8-6-5.1-7.2c-2.5-1.3-6.2-1.6-9.8-0.9
		c-0.1,0-0.2,0.1-0.3,0.1c0-1.2-0.3-2.7-1.1-4.6c-3.1-7.1-6.9-12.3,3-17.7c0.7-0.4,1.4-0.8,2.3-1.4c2.5-1.7-23.3-62.4-56.1-52.2
		c-3.8,1.2-6.7,4.5-8.2,8.2c2.6-16,8.4-27.3,22.1-37.4c-4.1-3.9-10.8-4.2-14.9-0.6c-1.4,1.2-2.3,2.7-2.8,4.3c-0.3-0.4-0.6-0.7-1-1.1
		c-2.6-2.5-6.4-3.5-9.8-2.9c3-1.7,5-4.8,5-8.4c0-5.4-4.3-9.7-9.7-9.7c-5.4,0-9.7,4.3-9.7,9.7c0,5.3,4.3,9.7,9.7,9.7
		c0.5,0,0.9-0.1,1.3-0.1c-0.6,0.3-1.2,0.7-1.7,1.2c-2.7,2.3-3.6,5.3-3,8.1c1.5,5.9-3.5,11.4-10.2,11.2c-5.8-0.2-10.5-4.6-10.5-9.8
		c0-2.8,1.4-5.3,3.5-7c1.9-1.6,3.3-3.9,3.3-6.8c0-5.2-4.8-9.6-10.6-9.8c-0.5,0-1,0-1.5,0.1c0.9-1.4,1.5-3,1.5-4.8
		c0-5.2-3.3-9.6-9.1-9.8c-5.8,0.2-9.1,4.6-9.1,9.8c0,1.8,0.5,3.4,1.5,4.8c-0.5,0-1-0.1-1.5-0.1c-5.8,0.2-10.5,4.6-10.6,9.8
		c0,2.9,1.3,5.2,3.3,6.8c2.2,1.7,3.5,4.2,3.5,7c0,5.2-4.7,9.6-10.5,9.8c-6.7,0.2-11.7-5.2-10.2-11.2c0.5-2.8-0.3-5.8-3-8.1
		c-0.5-0.4-1.1-0.8-1.7-1.2c0.4,0.1,0.9,0.1,1.3,0.1c5.4,0,9.7-4.3,9.7-9.7c0-5.4-4.3-9.7-9.7-9.7c-5.4,0-9.7,4.3-9.7,9.7
		c0,3.6,2,6.8,5,8.4c-3.4-0.6-7.2,0.4-9.8,2.9c-0.4,0.3-0.7,0.7-1,1.1c-0.4-1.6-1.4-3.1-2.8-4.3c-4.1-3.5-10.8-3.2-14.9,0.6
		c13.7,10.1,19.4,21.4,22.1,37.4c-1.5-3.7-4.4-7-8.2-8.2c-32.8-10.2-58.6,50.6-56.1,52.2c0.9,0.6,1.6,1,2.3,1.4
		c9.9,5.4,6.1,10.5,3,17.7c-0.8,1.9-1.1,3.3-1.1,4.6c-0.1,0-0.2-0.1-0.3-0.1c-3.6-0.7-7.2-0.3-9.8,0.9c-2.3,1.2-4.4,3.1-5.1,7.2
		c-0.1,0.7,0.6,0.8,0.7,0.8c7.2,2.4,7.2,7.8,4.2,14.4c-9.8,20.9-16.4,30.9-11.4,56.3c6.7,34.7,31.4,44.4,36.2,45.4
		c3.2,0.6,4.8,0.8,7.4,0.4c-0.5,1.7-0.8,3.5-0.7,5.3c0.2,8.5,6.8,14.9,15,14.4c5-0.2,11.2-3.5,12.9-9.1c0.2-0.8,0.4-1.6,0.6-2.5
		c13.4,5.3,11.3,18.6,11,19.8c-0.8,3.6-1.7,8.1,0.6,11.1c1.3,1.7,3.4,2.5,6.2,2.6l0.4,0c4.8,0,10.4-3,14.4-5.5
		c6.1-3.7,4.6,5.3,13,5.3c4.6,0,8.2-7.9,10.4-12c0.8-1.6,1.6-4.7,2.6-4.7c1,0,1.8,3.1,2.6,4.7c2.2,4.1,5.9,12,10.4,12
		c8.4,0,6.8-9,13-5.3c4.1,2.4,9.7,5.5,14.4,5.5l0.4,0c2.8-0.1,4.9-1,6.2-2.6c2.3-3,1.4-7.5,0.6-11.1c-0.3-1.2-2.4-14.5,11-19.8
		c0.2,0.9,0.4,1.7,0.6,2.5c1.7,5.6,7.9,8.9,12.9,9.1c8.2,0.5,14.8-5.9,15-14.4c0-1.8-0.2-3.6-0.7-5.3c2.6,0.4,4.2,0.2,7.4-0.4
		c4.8-0.9,29.5-10.7,36.2-45.4C266.7,405.7,260.1,395.8,250.3,374.8z M39,361.5c3.1-3.2,9.5-22.2,12.2-27.7
		c2.7-5.5-0.7-9.8-3.1-12.6l-1.8-2.1l-0.8-1c-0.3-0.3-0.6-0.7-0.8-1.1c-4.1-6.6,13.8-19.4,17-21.2c3.6,6.2,14.1,9,19.5,3
		c1.4-1.6,2.9-4.1,3.4-6.6c0,0,0,0,0,0s7.1,3.6,12,3.1c6-0.6,11.8-3.6,17.7-9.5h15.9h18.8c5.9,5.9,11.7,8.9,17.7,9.5
		c4.8,0.4,12-3.1,12-3.1s0,0,0,0c0.5,2.5,2,5,3.4,6.6c5.4,6,15.9,3.2,19.5-3c3.2,1.8,21.2,14.5,17,21.2c-0.2,0.4-0.5,0.7-0.8,1.1
		l-0.8,1l-1.8,2.1c-1.3,1.5-2.8,3.4-3.6,5.6c-1.2-2.9-3-5.6-5.4-7.9c-5-4.9-11.2-7.2-18.2-6.5c-8.5,0.8-17.1,5.9-20,14.3
		c-2.3,6.5-0.6,14.8,3.2,20.4c4.1,5.9,8,12,11.8,18.1c3,4.8,5.5,10,6.3,15.7c0.4,3.1-0.1,6.4-3,7.9c-4.5,2.2-10.6,0.5-10.6,0.5
		c-2.6-8.8-13.2-12.8-15.2-12c-6.3,2.6-13.4,0.5-18.3-2.9c0.9-1.7,2-3.2,2-4.7c3.6,0,6.5-3.4,8.1-6.2c2.4-4.2,4.1-9.3,3.8-14.2
		c4.1-2.2,7-6.1,7.8-10c1.9-9.3-3.1-15.2-8.8-18.7c1.3-2.3,6.7-2.6,5.5-6c4,0.2,4.7-5.4,2.3-7.7c-1.8-1.8-4.8-1.1-7-1.4
		c-3.3-0.5-4.5-3.7-7-5.5c-2.2-1.6-5.5-2.4-8.1-3.1c-2.5-0.6-9.7-2.8-15.8-0.6c-2.8,1-7,5-9.6,6.1c-3.1,0.9-7.6,2.5-11,4.4
		c-0.3,2.5,1.5,5.3,2.3,6.8v0c0.7-0.1,1.6-0.4,2.7-1l-0.8,2.3c0.9,2.2,2.7,4.3,4.7,6c-3,0.4-5.6-0.4-8.4-1.4c-3.1-1-6.4-0.8-9.5,0.3
		c-2.1,0.7-7.1,3.9-5.8,6.9c7.2-2,13.8,1.4,20.9,1.6c3.7,0.1,7.2-1,10.3-2.9c1.6-1,3.1-2.7,5.1-2.5c0.6-3.8-3.8-2.3-5.6-2.6
		c3.1-1.7,8.9-2.6,9,1.9c0.1,2.1-1,3-2.9,3.8c-1.2-0.3-2.5-0.5-3.7-0.3c-1.8,0.4-1.3,1.3-2.2,2.4c-0.7,0.8-1.6,1.2-1.8,2.4
		c-0.3,1.5,0.4,2.8,1,4.1c0.3,0.1,5.2-0.2,7.3-0.7c1.8-0.4,3.8-0.9,5.2-2.3c2.6-2.6,3.6-7,3.4-10.5c1.2,1.3,1.1,3.9,0.8,5.5
		c-0.4,2.9-1.9,5.7-4.5,7.2c-3.4,2-7.6,1.7-11.4,2.4c-3.6,0.7-7.4,3.5-9.6,6.4c-3.4-0.4-8.5,1.1-11.7,3c-3.9,2.4-6.1,4.4-9.3,8.3
		c-1.3-1.1-2.1-2.3-2.9-3.8c-0.5-1.1-1.1-2.2-2-3c-1.9-1.6-4.6-2.8-5.5-5.3c2.8-2.1,3.6-9.1,1.1-12.1c-1.2-1.4-3.3-1.6-4-1.1
		c-0.9,0.7-0.9,2.2-1.9,2.9c-0.9-1.9-0.5-4.5-0.8-5.7c0-0.5-3.5-1.6-5.4-1.6c-5.1,0.1-3.3,7.9-3.7,9.9c-1.8-1-5.6-0.5-6.1,0.8
		c-0.2,2.3,1.5,6,3.9,8.1c2,1.6,7,1.5,6.9,4.4c-2-0.2-6,1.2-4.9,2.5c1,1.2,4,2.1,6.4,4c-4.9,0.7-1.4,2.6,0.5,3.5
		c-0.6,0.3-2.3,1.2-0.9,1.9c1.5,0.8,3.8,1.3,5,2.4c-2.4,1.1,2,2.8,3,3.4c0.7-0.4,1.9-2,3.5-3.1c1.7-1.5,3.2-2.1,4.6-2.5
		c-0.3,1.2-3.3,7.3-4,8.8c-0.7,1.6-11.7,6.7-13.7,6.7c-1.5,0-2.9-0.6-4.4-1c-1.9-0.4-3.8-0.6-5.7-0.7c-2.9-0.2-7-0.4-8.7-3.3
		c-0.1-0.5,0-1.6-0.5-1.9c-2.5-1.7-10.9-3.1-10.8-1.4c0.1,2-1.8,1.7-3.1,2.1c-0.4-2.7-1-5.3-1.6-7C35.7,363.1,38.1,362.5,39,361.5z
		 M145.4,360.6C145.8,360.1,145.6,360.3,145.4,360.6c0.8-1,2,0.6,2,0.6l0.5,2.4c-0.4,1.3-1.2,2.3-2.7,1.7l-0.4-2
		C144.8,363.4,144.5,361.6,145.4,360.6C145.1,360.8,144.9,361.1,145.4,360.6z M154.6,339.4C155,338.7,154.8,339,154.6,339.4
		c0.8-1.3,2.5,0.5,2.5,0.5l1.4,2.7c-0.2,1.6-1,3.2-2.9,2.6l-1-2.3C154.7,342.9,153.9,340.8,154.6,339.4
		C154.4,339.8,154.3,340,154.6,339.4z M138.8,366.5L137,371c-0.6,0.6-1.8,1.6-2.7,1.3c-1-0.3-1.3-2.2-1.4-3.1l2.2-4.6
		c0.5-0.8,2.4-3.8,3.6-2.5C139.6,363.1,139.1,365.4,138.8,366.5z M135.4,304.9c-2.1,1.6-5.3,2.9-7.5,3.6c-0.6-1.4-0.8-3.3-0.8-5.5
		C130.1,303.3,133.1,303.7,135.4,304.9z M134.5,304.4C134.3,304.4,134.3,304.3,134.5,304.4L134.5,304.4z M121.4,367.2
		c0.4-1.1,1.4-3.3,2.8-3.2c1.5,0.2,1.5,2.8,1.5,3.9l-1.7,5c-0.6,0.7-2.1,2.4-3.2,2.1c-1.2-0.3-1.1-3.4-1.1-4.3L121.4,367.2z
		 M119.6,343l-1.8,1.8c-1.3,0.5-2.6,0.2-2.9-1.3l1.4-1.5C117.8,340.8,120.5,340.3,119.6,343z M104.5,375.1
		C104.5,375.1,104.5,375.1,104.5,375.1C104.5,375.1,104.5,375.1,104.5,375.1c-0.7-1.1,1.3-6.4,1.3-6.4l2.6-3.4
		c0.7-1,2.6-3.6,4.1-2.5c1.2,0.9,0.9,3.5,0.7,4.8l-3.6,5.6C109.6,373.1,105.3,376.1,104.5,375.1z M97.8,363.4
		c-0.8,0.4-3.9,2-4.5,0.8c-1.1-2,0.2-4.1,1.7-5.4l3.3-2.8c0.9-0.9,2.9-2.7,4.2-1.8c1.3,0.8,1,3.2,0.8,4.4L97.8,363.4z M99.5,372.3
		l-3.1,3.7c-0.8,0.4-1.8,0.8-2.7,0.6c-1.2-0.3-0.8-2.6-0.7-3.5l3.5-3.7c0.7-0.6,3.5-2.9,4.2-1.3C101.3,369.4,100.1,371.3,99.5,372.3
		z M152.2,480.1c-4.8,2.6-14.1,0.9-19.6-3.9c-0.2-0.2-0.5-0.5-0.9-0.5c-0.4,0-0.7,0.4-0.9,0.5c-5.5,4.7-14.7,6.5-19.6,3.9
		c-11.3-6.1-18.9-10.8-25.4-13.7c2.2-0.8,4.4-0.4,6.9,0.7c7.6,3.3,15.8,3.9,19.5,3.7c5.2-0.3,10,0.1,14.4-3.4
		c0.1-4.4-1.2-9.1-0.5-13.5c0.6-3.5,1.7-7.1,3.2-10.3c1.2-2.6,3.7-4.4,5.8-6.2c2.4-2,5.1-4.5,8.1-5.7c-0.6-1.2-5.3-20.1-5.8-25.8
		c-17.5-1-32.6,15-34.8,20.2c-1.3,3,2.6,6.9,6,10.2c7.6,7.4,5,20.6,2.6,21.4c-3.4,1.2-8.5-2.3-11.2-3.8c-4.3-2.4-8.4-5.2-12.6-7.8
		c-1-0.6-2.1-1.5-3.3-1.9c-4-1.3-5.1,3.3-5.6,6.2c-4.2,0.9-6.5,7-6.6,7.9c-0.2,1.6,8,1,7.2,3.8c-0.1,0.4-0.1,1,0,1.5
		c-3.5-1-6.9-1.5-10.8-1.3c-2.9,0.2-5.4,0.6-7.8,1.2c0.7-6-2.3-12.2-8.5-14.1c-4.3-1.4-10.4-0.5-13.5,3.4c-1.2,1.5-1.7,3.3-2,4.9
		c-7.5-7.2-11.3-20.1-13.3-30.2c-1.1-11.4,0.3-33.2,13.7-33.9c1.2-0.1,3.9,3.8,4.6,4.7c0.7,1,1.9,3,3.6,2c6.4-3.7,7.9-9.8,6.3-15.3
		c2.5-0.1,5,0.1,6.4,1.2c-3.7-0.3-4.2,1.8-4.1,2.3c0.6,2.1,3.4,2,4.1,1.9c1.8-0.2,3.7-0.3,5.5,0c4.1,0.6,7.7,2.7,10.9,5.1
		c3.8,2.8,9.4,2.9,10.5,2.5c1.5-0.5,3.6-1.5,4.3-3.1c2.6-0.6,7.4,1.7,9.8-1.2c0.7-0.9,0.2-1.1-0.1-2.2c-0.4-1.4,2.3-0.2,3.2,0.5
		c4.8,3.4,8.5,7.2,13.4,9.2c2.6,1.1,5.5,0.4,8.2,0c5.4-0.8,10.7-1.9,16.1-3.1c0.8,4,5.2,15.1,6.9,18.8c1.6,3.5,10.2,20.6,12,20.2
		c2.1-0.5,12.1-3.5,15.7-4.4c3.6-0.9,6.6-1.4,10.3-1.2c0.1,0.4,0.8,3.8,4.6,11c-1.7,3-2.5,10.3-2.9,10.6c-1.1,0.9-7.6,0.3-8.3,0.7
		c-0.8,0.4-1.3,1.6-1.8,2.6c-0.8,1.7,0.4,2.1,1.2,2.7c0.2,1.8,0.6,6.2,1.6,6.1c0.1,0,0.3,0,0.7,0
		C172.7,468.3,164.7,473.3,152.2,480.1z M240.1,427.8c-2,10.1-5.8,23-13.3,30.2c-0.3-1.6-0.8-3.5-2-4.9c-3.1-4-9.3-4.8-13.5-3.4
		c-6.1,2-9.2,8.2-8.5,14.1c-2-0.5-4.1-0.9-6.5-1.1c0.9-2.6,2.1-9.2,3.9-15.6c1.8-6.5,4.8-12.6,5.5-14.3c0.3-0.8-2.4-2.4-6-8.4
		c-1.5-2.4-2.2-5.2-2.7-8c-0.1-0.4-5.4-1.7-7.9-1.9c-0.6-0.1-1.1,2.8-2,3.8c-0.9,0.9-9.7-0.2-11.8-0.9c0.6-4.5,0.4-18.4,0.5-18.9
		c7.6,1.5,15.6-0.5,20.2-7.1c5.9-8.6,1-18.6-3.4-26.6c-3.8-6.9-9-12.6-12.4-19.8c-1.9-4.1-3.8-8.7-2.8-13.3c0.9-4.4,4.3-7.8,8.7-8.7
		c4.8-1,10.3,0.4,12.4,5.2c2.6,6-0.5,11.6-3.9,16.4c-3.5,4.9-5.5,10.8-2.2,16.5c3.3,5.6,9.5,5.1,13.8,9.4c2.6-4.4,0.6-8.6,0.1-13.1
		c-0.5-5.6,4.2-10,6-15c0.7-2.1,1.1-4.2,1.2-6.3c3.1,7.3,8.4,22.4,11.1,25.2c0.9,1,3.3,1.6,4.5,0c-1.1,2.7-1.9,7.7-2.1,11.7
		c-13.6,0.9-22.3,19.5-8.6,27.4c1.7,1,2.9-1.1,3.6-2c0.7-0.9,3.4-4.8,4.6-4.7C239.8,394.6,241.1,416.3,240.1,427.8z"/>
</g>
</svg>
