<?xml version="1.0" encoding="utf-8"?>
<!-- Generator: Adobe Illustrator 21.0.2, SVG Export Plug-In . SVG Version: 6.00 Build 0)  -->
<svg version="1.1" id="Layer_1" xmlns="http://www.w3.org/2000/svg" xmlns:xlink="http://www.w3.org/1999/xlink" x="0px" y="0px"
	 viewBox="0 0 1264 768" style="enable-background:new 0 0 1264 768;" xml:space="preserve">
<style type="text/css">
	.st0{fill:#005A9C;}
	.st1{fill:#FFFFFF;}
	.st2{fill:#FFCB05;}
</style>
<g>
	<path class="st0" d="M1238.1,557.1c13.9,0,25.1-11.2,25.1-25.1s-11.2-25.1-25.1-25.1S1213,518.1,1213,532
		S1224.2,557.1,1238.1,557.1L1238.1,557.1z"/>
	<path class="st1" d="M1238.1,553.3c11.7,0,21.2-9.5,21.2-21.2s-9.5-21.3-21.2-21.3s-21.2,9.5-21.2,21.3
		C1216.9,543.8,1226.4,553.3,1238.1,553.3L1238.1,553.3z"/>
	<path class="st0" d="M374.1,308.3c0,0-53.9-1.8-75.7-50.4c0,0-50.5,56.5-128.8,76.6l5.3,13.9v180.1l-14.8,14.8
		c0,0-59.1-43.5-64.4-95.7c-5.2-52.2,5.2-92.3,63.5-142.7c0,0,17.4-16.6,46.9-27v-6.1c-94,0-202.7,85.2-202.7,184.4
		c0,98.3,74.6,156.5,173.2,156.5c0,0,62.7,0.6,109.1-24.9v24.6c0,1.9-3.8,1.5-3.8,1.5c-13.4,0-24.3,8.9-24.3,19.9
		s10.9,19.9,24.3,19.9s24.3-8.9,24.3-19.9v-55.5c0.1,0,13.2-9.9,17.5-13.4s0.8-10.4-4.3-8.7c-5.3,1.8-13.1,5.2-13.1,5.2V330.9
		C306.2,330.9,351.5,335.2,374.1,308.3L374.1,308.3z M285.4,566.6c-78.3,8.7-99.2-8.7-99.2-8.7l64.4-54.8V315.2
		c0-8.7,34.8,13,34.8,13V566.6L285.4,566.6z"/>
	<path class="st0" d="M474.1,510.1c0,0,0-110.5,0-114.8c0-4.4,8.7-13.9,8.7-13.9c-32.2-3.5-83.5-28.7-83.5-28.7
		c-28.7,24.3-74.8,26.9-74.8,26.9c-0.8,5.2,7,14.7,7,14.7v113.1c0,0-3.5,3.5-11.3,13.9c-7.8,10.4-3.5,10.4-3.5,10.4
		c64.4,6.9,90.5,33.9,90.5,33.9c28.7-32.2,77.4-39.1,77.4-39.1C476.7,523.1,474.1,510.1,474.1,510.1L474.1,510.1z M421.9,518.8
		c-34.8-7-41.7-14.7-41.7-14.7V386.6c0-2.6,41.7,14.8,41.7,14.8V518.8L421.9,518.8z"/>
	<path class="st0" d="M808.1,510.1c0,0,0-110.5,0-114.8c0-4.4,8.7-13.9,8.7-13.9c-32.2-3.5-83.5-28.7-83.5-28.7
		c-28.7,24.3-74.8,26.9-74.8,26.9c-0.9,5.2,7,14.7,7,14.7v113.1c0,0-3.5,3.5-11.3,13.9c-7.8,10.4-3.5,10.4-3.5,10.4
		c64.4,6.9,90.5,33.9,90.5,33.9c28.7-32.2,77.4-39.1,77.4-39.1C810.8,523.1,808.1,510.1,808.1,510.1L808.1,510.1z M756,518.8
		c-34.8-7-41.8-14.7-41.8-14.7V386.6c0-2.6,41.8,14.8,41.8,14.8V518.8L756,518.8z"/>
	<path class="st0" d="M1017.2,520.6c0,0-0.2,0-0.3-0.1C1016.9,520.5,1015,523.4,1017.2,520.6L1017.2,520.6z"/>
	<path class="st0" d="M1183.1,518c-12.2-1.8-17.4-16.6-17.4-16.6s0-106.1,0-110.5c0-4.3,0-22.6,0-22.6c-37.4-12.2-74-25.2-74-25.2
		c-34.8,20.8-72.2,32.2-72.2,32.2c-0.9,5.2,6.9,14.8,6.9,14.8v118.3c0,0,2.6-3.5-5.2,6.9c-2,2.7-3.2,4.3-4,5.3
		c37.3,4.6,78.5,45.1,78.5,45.1l29.9-32.2l33.9,32.2l40-45.2L1183.1,518L1183.1,518z M1113.5,514.5c-15.7-12.2-37.4-22.7-37.4-22.7
		V377.9c-10.7-6.5,37.4,14.7,37.4,14.7V514.5L1113.5,514.5z"/>
	<path class="st0" d="M493.7,383.1l43.9-33.9c0,0,27.9,16.5,32.2,23.4c0,0,4.4,3.6,40-19.9l6.1-4.4c0,0,22.6,20.8,41.7,26
		c0,0-4.3,38.3-72.2,20c0,0-14.7-2.6-14.7,4.4c0,6.9,0,122.7,0,122.7h19.1c0,0-29.6,17.3-40.1,33.1c-10.4,15.6-9.7,11.2-9.7,11.2
		s-3.4-19.1-40.8-40.8l-0.8-2.6h17.4V405.7C515.9,405.7,508.5,384,493.7,383.1L493.7,383.1z"/>
	<path class="st0" d="M994.3,377.9c-18.4-7.4-48.7-31.4-48.7-31.4l-6.1,4.3c-35.7,23.5-46.2,24.3-46.2,24.3
		c-4.3-6.9-33-23.5-33-23.5l-39.1,29.6c14.8,0.8,20.9,25.2,20.9,25.2v116.5h-17.4l0.9,2.6c37.4,21.8,41.7,40,41.7,40
		s-1.7,5.2,8.8-10.4c10.5-15.6,40.1-33,40.1-33H897c0,0,0-115.7,0-122.7l22.6-17.4l17.4,14.8v124.4h-10.5c0,0,38.8,36.6,40.5,44.3
		c0,0,36-41.7,40.4-41.7H990V394.4C990,394.4,998.6,379.6,994.3,377.9L994.3,377.9z"/>
	<path class="st2" d="M428.9,274.1H832v-33.6H428.9V274.1L428.9,274.1z M458.4,269.5c-6.1,0-11-5-11-11.1s4.9-11.1,11-11.1
		s11.1,5.1,11.1,11.1C469.6,264.5,464.6,269.5,458.4,269.5L458.4,269.5z M543.7,269.5c-6.1,0-11.1-5-11.1-11.1s5-11.1,11.1-11.1
		s11,5.1,11,11.1C554.8,264.5,549.8,269.5,543.7,269.5L543.7,269.5z M630.1,269.5c-6.1,0-11.1-5-11.1-11.1s5-11.1,11.1-11.1
		s11.1,5.1,11.1,11.1C641.2,264.5,636.2,269.5,630.1,269.5L630.1,269.5z M715.4,269.5c-6.1,0-11-5-11-11.1s4.9-11.1,11-11.1
		s11.1,5.1,11.1,11.1C726.4,264.5,721.5,269.5,715.4,269.5L715.4,269.5z M802.3,269.5c-6.1,0-11.1-5-11.1-11.1s5-11.1,11.1-11.1
		s11.1,5.1,11.1,11.1C813.4,264.5,808.5,269.5,802.3,269.5L802.3,269.5z"/>
	<path class="st2" d="M428.9,236.3h403.9c0,0,0.2-10.9,0.1-22.4h-404L428.9,236.3L428.9,236.3z"/>
	<path class="st2" d="M428.9,210h404c0-2.6-0.1-5.2-0.1-7.5c-0.3-14.2,11.3-22.3,18-24.6c6.7-2.4,20-11.9,20-11.9
		c34.2-27.3,20-50.8,20-50.8s-11.6,26.2-51,22.1c0,0-2.9,16.2-21.4,20.3c0,0,9.7,10.3,6.7,21.6c0,0-0.4,10.9-16.1,8.6
		c0,0-7.4-6.5,3.5-17.8l-15.2-12.2L782.4,169c0,0,9.9,5.3,4.8,18.3c0,0-5.4,4.9-7.4,5.2c-2.1,0.3-21.2-8.4-0.9-29.6L756,143.5
		L732.4,163c0,0,18.6,18.6,3.2,28.5c0,0-16.5,11.2-18.3-8.8c0,0-2-6.4,6.1-9.5l-22.9-14.8l-21.8,15.4c0,0,6.7,4.6,6.4,8.6
		c-0.3,4.1,1.4,11.1-12.8,12.8c0,0-15.3-1.5-11-17.4c4.3-16,20.3-18,25.8-19.4c0,0-14.8-24.9-56.2-32.5h-0.3
		c-41.4,7.5-56.2,32.5-56.2,32.5c5.5,1.5,21.4,3.5,25.8,19.4c4.4,15.9-11,17.4-11,17.4c-14.2-1.7-12.5-8.7-12.8-12.8
		c-0.3-4,6.4-8.6,6.4-8.6L561,158.4l-22.9,14.8c8.1,3.1,6.1,9.5,6.1,9.5c-1.7,20-18.2,8.8-18.2,8.8c-15.4-9.9,3.2-28.5,3.2-28.5
		l-23.5-19.5L482.8,163c20.3,21.1,1.2,29.9-0.8,29.6c-2-0.3-7.4-5.2-7.4-5.2c-5.2-13,4.8-18.3,4.8-18.3l-14.8-11.2L449.3,170
		c10.9,11.3,3.5,17.8,3.5,17.8c-15.6,2.2-16.1-8.6-16.1-8.6c-3.1-11.3,6.7-21.6,6.7-21.6c-18.5-4.1-21.5-20.3-21.5-20.3
		c-39.4,4.1-51-22.1-51-22.1S356.7,138.7,391,166c0,0,13.3,9.6,20,11.9c6.7,2.3,18.3,10.4,17.9,24.6V210L428.9,210z"/>
	<path class="st1" d="M833.4,213.9V210h-0.5c0,1.3,0,2.5,0,3.9H833.4L833.4,213.9z"/>
	<path class="st2" d="M631,117.8c15,0,28.5,4.8,37.2,12.3l0.6,0.7c5.3,5.1,8,4.8,14.6,4.8c7.3,0,13.2-6.1,13.2-13.5
		c0-7.4-0.1-13.5-10.4-23l-5.6-5.3l8.7-7.8c41.8,17.9,47,45.7,47,45.7H764c0-9.2-13.9-34.4-13.9-34.4c53.5,13.1,70.9,46.5,70.9,46.5
		c16.5-29.5,45.2-23.8,45.2-23.8l4.8-14.4c0,0-17.7-0.9-31.1,2.6c0,0,7.5-9.2-11.6-11.6c0,0,1.8-13.3-23.2-13.3
		c0,0,1.1-8.7-14.5-14.5c-15.7-5.8-20.9,0-20.9,0s-3.5-9.3-17.4-12.2s-18.6,2.9-18.6,2.9s-2.9-9.3-23.1-11.6
		c-20.3-2.3-23.8,4.1-23.8,4.1s-3.5-6.9-12.7-7.6c-9.3-0.6-13.4,4.7-13.4,4.7s-5.8-8.2-13.3-1.8c0,0-7.6,1.2-10.4-5.1
		c0,0,1.2-6.4,6.3-7.6c5.3-1.1,9.3-1.1,9.3-1.1s-0.5-9.8-15-13.3c0,0,5.4-8.9-6.7-18.2h-1.2c-12.2,9.3-6.7,18.2-6.7,18.2
		c-14.5,3.5-15.1,13.3-15.1,13.3s4.1,0,9.3,1.1c5.2,1.2,6.4,7.6,6.4,7.6c-2.9,6.4-10.4,5.1-10.4,5.1c-7.5-6.3-13.4,1.8-13.4,1.8
		s-4.1-5.3-13.3-4.7c-9.3,0.6-12.8,7.6-12.8,7.6s-3.5-6.4-23.7-4.1c-20.3,2.4-23.2,11.6-23.2,11.6s-4.7-5.8-18.6-2.9
		c-13.9,2.9-17.4,12.2-17.4,12.2s-5.2-5.8-20.9,0c-15.7,5.7-14.5,14.5-14.5,14.5c-24.9,0-23.2,13.3-23.2,13.3
		c-19.1,2.4-11.6,11.6-11.6,11.6c-13.4-3.5-31.1-2.6-31.1-2.6l4.8,14.4c0,0,28.7-5.6,45.3,23.8c0,0,17.4-33.4,70.9-46.5
		c0,0-13.9,25.2-13.9,34.4h27.8c0,0,5.2-27.8,47-45.7l8.7,7.8l-5.6,5.3c-10.2,9.5-10.4,15.6-10.4,23c0,7.5,5.9,13.5,13.2,13.5
		c6.5,0,9.3,0.3,14.6-4.8l0.6-0.7c8.7-7.5,22.2-12.3,37.2-12.3L631,117.8L631,117.8z"/>
	<path class="st0" d="M880.5,749.2c-4.4,1.2-9.4,2.5-12.8-0.4c-4.5-3.9-2.4-44.7-2.9-55.4c-0.1-3.1,1.2-5,0-11.1
		c0-0.1-25.7-7.1-42.9-24c-10.1,11-27.9,23.5-49.2,29.3c3.6,1.7,5.1,4.4,5.8,6.6v47.6c-0.7,3.3-2,4.7-4.9,6.6
		c6.4,1.7,23.7,6.3,41.3,16.9c1.7,1,15.8-10.7,22.7-12.4c3.6,5.1,15.3,17.1,26.8,12c3.9-1.7,12.1-10.9,16.2-14
		C880.4,750.8,880.5,749.4,880.5,749.2L880.5,749.2z M808.1,733.1c0,0-0.2-48.4,0-49.2c-0.2,0,25.4,13.6,25.4,13.6l0.2,45.5
		L808.1,733.1L808.1,733.1z"/>
	<path class="st0" d="M744.1,662.4c11.6,11.4,17.2,12.9,29.4,18.7c-3,13.2-28,16.9-43.8,9.1c-2.7-1.3-8.7,2.3-8.7,2.3l-0.1,53.7
		l7.6,0.1L704,764.9l-21.5-18.6l8.7-0.1V688c-4.6-5.9-11.8-4.3-20.1-0.9l22.9-21.7c8.4-7.2,21.4,14.7,27.3,14.1
		c2.5-0.3,13.6-10.7,16.1-12.9C738.9,665.3,743.7,662,744.1,662.4L744.1,662.4z"/>
	<path class="st0" d="M509.9,661.3c19.5-2.8,26.9,20.1,37.6,27.6c9.9-8,13.6-24,28.9-26.5c4.9-0.7,11.2,1.8,13.2,4.9
		c4.3,6.9-0.3,15.3-7.4,8.7c-1.5-1.4-2.9-2.6-5.8-1.6c-3.1,1-21.1,22.5-20.7,25.6l0.4,0.3c2,4.2,31.9,40.2,33.9,41.8
		c0.1,0,0.8,0.9,0.8,0.9c7.2,1.5,8.3-7.8,16.1-6.7c1.2,9.2-14.3,25.9-21.1,28.5c-28,11.1-38.1-27.3-52.9-36.8
		c-3.1,1.8-15.7,17.5-19.4,22.8c-3.1,4.3-5.6,9.4-10.3,11.9c-5.6,3-12.2-2.1-14.9-5.8c-3.1-4.2-10.3-22.2,4.2-14.9
		c2.4,1.3,6.2,3.7,9.5,2.5c2.4-0.8,23.1-24.4,23.5-26.5c0.2-1-0.1-2.1-0.4-2.9c-1.9-4.3-17.7-24.7-23.1-29l-0.4-0.3
		c-6.4-2-8.5,7-16.9,4.5c0.2-5.2,2.1-7.8,4.2-11.1c2-3.4,7.6-11.8,8.2-12.4C499.6,664.3,505.4,661.8,509.9,661.3L509.9,661.3z"/>
	<path class="st0" d="M647.9,637.2c0.6,0.6,1.8,0.4,2,1.2l-0.1,24.9h20.1c0,3,0,6.5,0,9.4c0,0-15-1-18.7,1.3l-2.3,1.1V736
		c0,0,5.4,4.2,7.3,4.4c0.6,0,1.1,0.1,1.6,0c3-0.5,14.5-8.3,16.2-2c0.6,2.2-0.5,4-1.3,5c-2.5,3.2-37.6,21.8-37.6,21.8
		s-20.7-17.4-22.3-19c-1.7-1.6,5.8-7.8,5.8-7.8c1.1-4.3,0-38.6,0-50.5c0-3.5,1-9,0-12.3c0.5-4.4-13.5-3.8-13.5-3.8l-0.1-8.5
		c2.2-1.4,9.8-0.5,12.8-0.9c0.4-1.6,0.3-6.9,1.2-8.7C619.9,652,644.2,638.9,647.9,637.2L647.9,637.2z"/>
	<path class="st0" d="M373.5,590.6c3.8-0.6,9.6,1.8,12.8,2.5c9.6,1.9,20.3,2.5,30.2,3.3c17.1,1.2,32.2-0.1,47.1-2.1
		c4.9-0.6,11.3-2.7,15.7-1.6c-2.4,4.9-5.1,7.7-8.3,11.6c-3.1,3.7-12,16.3-16.1,17.7c-2.1,0.7-4.2,0-6.2,0
		c-8.3,0.1-19.9,0.5-28.5,0.5c-6.9-0.1-15.2-1.7-22.3,0c-1.3,11.9-2.2,25.5,0.5,35.9c4.7-1.2,7.8-3.7,11.9-5
		c12.8-3.9,32.5,7.9,41.8,1.2c1.1-0.7,2.2-3.4,3.7-3.7c12.1-2.3-4.2,25.1-9.1,27.3c-8.3,3.7-21.7,2.4-31.4,0.8
		c-3.3-0.6-9.6-2.3-13.6-0.8c-7.6,2.8-4.5,26.4-4.5,36.7c0-0.1,0,1,0,1.3c-0.6,6-0.3,8.4-2.4,11.9c-1.4,2.2-1.9,3.9-2.9,6.6
		c7,0,12.2-1.9,18.2-2.4c11.2-1,21.2,2.3,30.1,3.8c6.7,1,18.2,2.4,23.1-1.4c3.6-2.6,5.7-12.6,9.5-14.4c1.3-0.6,3.7-0.4,4.9,0
		c2.2,0.6,4.1,2.5,3.8,5.4c-0.3,2.8-20.7,38.4-22.3,39.2c0,0.1,0,0.3,0,0.4c-0.3,0.1-1.2,0.4-1.2,0.4c-1.4,0.6-3.8,0.6-5.8,0.5
		c-18.5-1.4-37.9-7.1-55.8-8.7c-6.1-0.5-13.3-0.5-19.4,0c-4.8,0.4-22.5,6.1-25.6,4.1c-5.1-3.2,3-9.1,4.5-10.3c1.9-1.5,5-4.6,5.8-7.1
		c1.9-5.9,0.4-19.1,0-24.3c-1.5-23,0.2-48.6,0.4-72.7c0-5.5-1.1-12.2,0.8-16.9c2-5.3,9.2-8.5,12.4-13.3c-12.7-4.8-21.9,13-28.5,7.1
		c-2.3-2-2.5-3.8-0.4-6.2c7-8,15.2-15.2,22.3-23.2C369.6,593.5,371.7,590.8,373.5,590.6L373.5,590.6z"/>
	<path class="st0" d="M1241,525.3c0.9,0.5,1.3,1.4,1.3,2.7c0,1.2-0.4,2-1.3,2.5c-0.5,0.2-1.3,0.3-2.3,0.3h-5.2v-5.9h5.3
		C1239.8,524.9,1240.5,525,1241,525.3L1241,525.3z M1229,521.1V543h4.5v-8.6h4.7c1.3,0,2.3,0.3,2.8,0.7s0.7,1.4,0.7,2.8v2.1
		c0,0.6,0.1,1.2,0.2,1.8c0,0.4,0.2,0.8,0.3,1.2h5v-0.6c-0.5-0.3-0.7-0.7-0.8-1.3c-0.1-0.2-0.1-1-0.1-2v-1.5c0-1.5-0.2-2.6-0.6-3.4
		c-0.5-0.7-1.2-1.4-2.2-1.7c1.2-0.4,2.1-1.2,2.6-2.1c0.5-1.1,0.8-2,0.8-3.1c0-0.8-0.2-1.6-0.5-2.3c-0.3-0.6-0.6-1.3-1.1-1.8
		c-0.6-0.7-1.2-1.3-2.1-1.6c-0.8-0.2-2-0.5-3.6-0.5L1229,521.1L1229,521.1z"/>
</g>
</svg>
