<?xml version="1.0" encoding="utf-8"?>
<!-- Generator: Adobe Illustrator 21.0.2, SVG Export Plug-In . SVG Version: 6.00 Build 0)  -->
<svg version="1.1" id="Layer_1" xmlns="http://www.w3.org/2000/svg" xmlns:xlink="http://www.w3.org/1999/xlink" x="0px" y="0px"
	 viewBox="0 0 1264 768" style="enable-background:new 0 0 1264 768;" xml:space="preserve">
<style type="text/css">
	.st0{fill:#77BC1F;}
</style>
<g id="EsG0fx_1_">
	<g>
		<path class="st0" d="M628.6,5c42.9,0.7,77.3,14.1,105.1,42.5c18.6,19,30.5,41.7,34.4,68.1c5.9,39.9-5.3,75-32.5,104.6
			c-21.2,23.1-47.7,37-78.5,42.2c-39.6,6.7-76.3-1.2-109-24.8c-27.7-20-45.6-46.8-51.7-80.6c-6.8-37.7,2.5-71.7,26.6-101.4
			c21.6-26.5,49.8-42.1,83.3-48.3C614.8,5.9,623.4,5.6,628.6,5z M629.6,254.9c18.4-0.1,33.8-3.5,48.1-11.5
			c13.7-7.7,24.3-18.3,29.8-33.3c0.8-2.2,1.8-3.4,4.1-4.2c34.4-12.7,55.1-49.1,47.9-84.8c-5.7-28-22.3-47.1-48.8-57.6
			c-0.9-0.4-2-1.3-2.3-2.2c-3.9-11.9-11.1-21.3-21-28.9c-13.1-10.1-28.1-15.4-44.5-17.1c-20.1-2.1-39.2,1-57,10.9
			c-14,7.8-24.7,18.7-30,34.3c-0.6,1.7-1.4,2.7-3.2,3.3c-35.6,12.9-56.6,50.8-47.9,87.6c6.3,26.8,22.8,45,48.4,55
			c0.9,0.4,2,1.3,2.4,2.2c3.9,11.6,10.9,20.9,20.6,28.3C592.4,249.5,611.3,254.7,629.6,254.9z"/>
		<path class="st0" d="M103.8,755.5c352.1-9.9,704.3-9.9,1056.4-0.1c-8,1.2-270.3,6-351.8,6.8c-117.5,1.1-235,1-352.4,0
			S221.2,759,103.8,755.5z"/>
		<path class="st0" d="M228.9,588.3c0.2,2.2,1.8,2.8,3.4,3.2c3.1,0.8,6.2,1.3,9.2,2.3c14.5,5.1,25.5,14.1,29.5,29.5
			c4.7,18-0.8,38.6-22.7,50.1c-9.9,5.1-20.5,7.7-31.4,9.1c-12.5,1.6-25.1,0.9-37.6,0.9c-16.6,0-33.2,0.1-49.7,0.3
			c-2.7,0-3.4-0.5-3.6-2.8c-0.3-2.5,0.4-3.3,2.9-3.8c2.3-0.4,4.5-0.7,6.8-1.1c7.9-1.5,10.9-4.6,11.3-12.5
			c0.4-10.4,0.5-20.8,0.6-31.3c0-28.6,0-57.2-0.1-85.8c0-3.5-0.2-7.1-0.5-10.6c-0.7-7.6-4.1-10.8-11.6-11.5
			c-3.1-0.3-6.3-0.7-9.4-0.8c-2.2-0.1-2.9-1.5-2.9-3.3s0.8-3.2,2.9-3.3c5-0.3,10.1-0.9,15.1-1c20.5-0.3,41.1-0.7,61.6-0.5
			c12,0.2,24,1.9,35,7.1c11,5.2,18.3,13.4,20,25.7c1.7,12.2-1.6,22.9-11.6,30.5c-4.5,3.4-9.7,5.8-14.6,8.7
			C230.5,587.6,229.7,587.9,228.9,588.3z M170.6,627.3c-0.1,0-0.2,0-0.3,0c0.4,9.1,0.5,18.3,1.2,27.4c1,11.8,5.8,17.3,16.5,19.6
			c11.6,2.4,23.1,2,34.4-1.4c10.5-3.2,18.5-9.3,22.2-20.1c6.8-19.9-2.6-41.4-21.8-50c-10.7-4.8-22-6-33.5-5.8
			c-4.4,0.1-8.8,0.3-13.2,1s-5.5,2.4-5.5,6.8C170.6,612.3,170.6,619.8,170.6,627.3z M183.9,589.1L183.9,589.1c1.9-0.1,3.8,0,5.7-0.1
			c9.2-0.6,18.4-1.7,26.9-5.6c6.7-3.1,11.8-7.8,14.4-14.9c6.4-17.3-1.6-35.3-18.7-42.1c-11.3-4.5-23.1-4.5-35-2.9
			c-5.8,0.8-6.8,2.1-6.8,7.9c0,14.5,0,29.1,0,43.6c0,3.1,0,6.2,0.1,9.2c0.1,3.5,1.1,4.6,4.5,4.8C178,589.3,181,589.1,183.9,589.1z"
			/>
		<path class="st0" d="M576.4,512.9c5.6-1.7,9.9-5.2,13.7-9.4c1.3-1.4,3.9-0.7,4.8,1.4c0.6,1.5,1,3.1,1.6,4.7
			c11.4,31.9,22.7,63.9,34.1,95.8c6.2,17.2,12.4,34.4,18.7,51.6c0.9,2.4,2,4.6,3.1,6.9c3.5,7.7,9.6,11.4,17.9,11.8
			c1.7,0.1,3.5,0.3,5.2,0.5c2,0.2,2.9,1.4,2.7,3.6c-0.2,1.8-0.5,3.2-3.1,3.2c-20.8-0.1-41.7,0-62.5,0c-2.1,0-3.2-1.1-3.2-3.4
			c0-1.9,0.6-3.3,2.9-3.4c3.8-0.3,7.6-0.7,11.3-1.5c4.5-0.9,5.7-2.6,4.5-7.1c-1.6-6-3.6-11.9-5.7-17.8c-3.9-11.1-8-22.1-12.1-33.1
			c-1.4-3.8-2.8-5-6.8-5c-15.3-0.1-30.7,0-46,0c-3,0-5.5,1.1-6.6,4.1c-5.8,16.4-11.6,32.9-17.3,49.3c-0.4,1.3-0.6,2.6-0.7,3.9
			c-0.4,3.9,0.8,5.6,4.8,6.1c3.4,0.5,6.9,0.7,10.4,1c2.7,0.3,3.9,1.8,3.3,4.5c-0.4,1.6-1.3,2.5-3.2,2.4c-17.4-0.8-34.7-1.1-52.1,0
			c-2.8,0.2-3.6-0.5-3.8-3.2c-0.3-2.6,0.4-3.4,3-3.7c2-0.2,4.1-0.5,6.1-0.5c8.5-0.3,14.2-4.7,17.4-12.4c4.6-10.9,9.4-21.7,13.8-32.7
			c13.9-34.7,27.6-69.5,41.4-104.2C575.4,522.2,577,517.8,576.4,512.9z M582.2,535.2c-0.2,0-0.5,0-0.7,0c-0.4,0.8-0.9,1.6-1.2,2.5
			c-7.9,20.4-15.8,40.9-23.6,61.3c-1.3,3.3-0.6,4.2,2.9,4.3c13.7,0,27.3,0,41,0c0.4,0,0.8,0,1.2-0.1c2.7-0.4,3.6-1.6,3-4.2
			c-0.2-1.1-0.6-2.1-1-3.2c-5.8-16.6-11.6-33.2-17.4-49.8C585,542.4,583.5,538.8,582.2,535.2z"/>
		<path class="st0" d="M854.3,518.1c0.6,5.8,1.1,11.5,1.7,17.2c0.6,6.1,1,12.1,1.7,18.2c0.2,2.1-0.7,2.8-2.4,3
			c-1.8,0.2-3.7,0.6-4.4-1.9c-0.7-2.3-1.2-4.6-2.1-6.8c-5.2-14.2-15.3-23.2-29.9-26.8c-17.1-4.2-34-3.1-50.3,3.9
			c-16.7,7.2-28.2,19.6-34.2,36.7c-8.8,25-8.4,50.1,2.2,74.4c10.7,24.7,30.2,38.4,56.9,41.8c10.6,1.4,21,0.8,31-3
			c14.6-5.6,24.3-16.3,30.3-30.6c0.8-2,1.9-3,4-2.8c3,0.3,3.7,1.2,3,4.1c-2.2,9.5-4.4,19-6.6,28.6c-0.3,1.5-1,2.3-2.4,2.8
			c-12.5,4.5-25.2,7.6-38.4,8.8c-18.6,1.7-37,0.5-54.6-6c-29.7-10.9-48.6-31.6-54.6-62.8c-8.5-44.7,15-84.6,58-99.6
			c17.8-6.2,36.1-7.8,54.7-5.4c10.7,1.3,21.3,3.8,31.9,5.7C851,517.6,852.4,517.8,854.3,518.1z"/>
		<path class="st0" d="M382.2,682.4c-17.3,0.3-38.4,0.6-59.5,1c-2.7,0-3.6-0.9-3.5-3.7c0-1.8,0.8-2.7,2.7-2.9
			c3.7-0.3,7.4-0.6,11.1-1.1c7.6-1,10.9-4.3,11.6-12c0.4-5,0.7-10.1,0.7-15.1c0-35.5-0.1-71.1-0.2-106.6c0-3.1-0.3-6.3-0.9-9.4
			c-1.1-6.5-4.1-9.4-10.6-10.3c-4-0.6-8-0.9-12-1.2c-2.2-0.2-2.7-1.4-2.5-3.2s0.5-3.3,3-3.3c16.2,0.3,32.4,0.4,48.6,0.5
			c6.2,0,12.5-0.3,18.7-0.5c2.4-0.1,3.2,0.7,3.3,3.4c0.1,2.1-0.8,2.9-2.9,3c-3.7,0.2-7.4,0.7-11.1,1.2c-5.4,0.8-8.9,3.9-9.6,9.3
			c-0.7,5.2-1.1,10.5-1.1,15.8c0,36.3,0.1,72.7,0.2,109c0,2,0.3,4.1,0.5,6.1c0.5,4.6,3,7.7,7.3,8.9c4.6,1.3,9.4,2.4,14.1,2.8
			c11.5,0.9,23,0.9,34.5-0.7c8-1.1,14.9-4.5,20.7-10.2c5.9-5.8,10.7-12.4,14.8-19.6c1.6-2.7,4.1-3.2,6.7-1.5
			c1.3,0.9,0.8,1.8,0.4,2.9c-3.6,8.8-7.1,17.7-10.7,26.6c-1.2,3-2.5,6-3.6,9c-0.7,2-1.6,2.7-3.9,2.6
			C428.1,682.9,407,682.7,382.2,682.4z"/>
		<path class="st0" d="M339.8,387.1c1-0.7,1.9-1.6,2.9-1.9c10.2-2.8,19.9-6.7,28.1-13.6c6.1-5.1,10.9-11.2,12.6-19.3
			c2.2-10.4-2.4-19.9-12.3-24c-4-1.6-8.5-2.7-12.8-2.8c-15.4-0.2-30.5,2.2-44.5,8.5c-14.6,6.5-26.9,16.3-34.9,30.5
			c-1.9,3.3-3,7.3-3.6,11.1c-0.9,5.3,1.7,10,6.7,12.1c3.2,1.4,6.8,1.8,10.2,2.5c1.5,0.3,3.1,0.2,4.6,0.6c-6.7,3-13.4,3.7-20.2,0.5
			c-6.5-3.1-9.5-8.6-9.8-15.6c-0.3-7.8,2.1-14.9,6-21.6c7.4-12.9,18.3-22,31.3-28.8c15.3-8.2,31.8-12,49-13.2
			c10.4-0.7,20.7-0.7,30.7,2.5c4.5,1.4,9.1,3.4,13,6.1c10.8,7.4,14.4,20.5,9,32.5c-1.5,3.3-3.8,6.4-5.7,9.5c-0.4,0.7-1,1.3-1.9,2.4
			c7.5,0,14.5,0,21.8,0c-1.4,4.5-2.6,8.6-3.9,12.7c0.1,0.1,0.3,0.2,0.4,0.3c0.5-0.6,1-1.2,1.6-1.8c4.6-4.8,9.5-9,15.6-11.8
			c3.8-1.7,7.7-2.2,11.7,0.1c-2.4,7.6-4.8,15-7.2,22.9c-0.6-1.5-1-2.7-1.6-3.8c-2-3.8-5.3-5.3-9.5-4.3c-4.9,1.2-8.5,4.3-11.8,8
			c-3.4,3.9-5.7,8.3-7.2,13.2c-4.2,14.1-8.3,28.1-12.5,42.2c-0.9,2.9-1.6,5.7,1.6,8.2c-9.5,0-18.5,0-27.4,0c5-2.8,5.8-7.8,7.3-12.5
			c6.8-21.6,13.6-43.2,20.4-64.7c0.4-1.1,0.9-2.3,0.8-3.4c0-1.3-0.5-2.7-0.9-4.5c-16.3,15.8-36,21-57,22.3
			C340.2,387.8,340,387.4,339.8,387.1z"/>
		<path class="st0" d="M956.5,598.3c0,19.3,0,38.5,0,57.8c0,3.1,0.4,6.3,0.9,9.4c1,5.6,3.6,8.3,9.3,9.3c3.8,0.7,7.7,1.1,11.5,1.4
			c2.2,0.1,2.9,1.2,2.8,3.1c-0.1,2.5-1,3.4-3.2,3.4c-18.7-0.1-37.4-0.2-56.1-0.2c-2.3,0-4.6,0.1-6.9,0.4c-2.4,0.3-3.1-1.1-3.3-3
			c-0.3-2.2,0.6-3.3,2.6-3.6c2.7-0.4,5.5-0.8,8.2-1.3c7-1.4,9.8-4.3,10.4-11.5c0.5-5.9,0.7-11.8,0.7-17.7c0-34.5-0.1-69-0.2-103.6
			c0-3.3-0.3-6.6-0.8-9.9c-1.2-7.3-4.2-10-11.5-10.9c-3.1-0.4-6.1-0.8-9.2-0.9c-2.2-0.1-3.2-0.9-3.1-3.1c0.2-2.7,1-3.4,3.6-3.3
			c15.3,0.2,30.6,0.4,46,0.5c5.9,0,11.8-0.4,17.8-0.6c2.2-0.1,3.1,0.8,3.2,3.3c0.1,1.9-0.4,3.1-2.7,3.2c-3.5,0.2-6.9,0.7-10.3,1.4
			c-4.8,0.9-8.1,3.9-8.7,8.8c-0.7,5.9-1.1,11.9-1.2,17.9c-0.2,16.6-0.1,33.2-0.1,49.8C956.4,598.3,956.4,598.3,956.5,598.3z"/>
		<path class="st0" d="M984.4,586.4c5.7,5.1,10.9,10.1,16.4,14.7c25.4,21.3,50.8,42.4,76.2,63.6c8.2,6.8,17.6,10.7,28.3,11.1
			c1,0,2,0.2,3.1,0.4c2.4,0.3,4.1,3.1,2.9,5.3c-0.3,0.6-1.7,1-2.5,1c-12.4-0.1-24.8-0.5-37.2-0.5c-8.8,0-17.7,0.4-26.5,0.6
			c-2.8,0.1-4.8-1.7-4.6-4.6c0-0.7,0.9-1.7,1.5-1.8c2.6-0.6,5.3-0.9,7.9-1.5c1.1-0.3,2.2-1.1,3.2-1.7c-0.6-1-1-2.2-1.8-3
			c-6.1-5.4-12.1-10.8-18.4-16.1c-22.8-19.3-45.6-38.6-68.4-57.8c-0.7-0.6-1.4-1.3-2.3-2.1c1-0.8,1.8-1.6,2.7-2.3
			c21.8-18.3,43.7-36.6,65.5-55c3.2-2.7,6.1-5.7,9.1-8.6c0.6-0.5,1-1.2,1.4-1.9c1.5-2.3,1.1-3.4-1.5-4.1c-2.7-0.7-5.4-1.3-8.1-1.8
			c-2.1-0.4-2.6-1.7-2.4-3.4c0.2-1.8,1-3.4,3.3-3.3c4,0.2,8.1,0.5,12.1,0.4c14.4-0.1,28.7-0.2,43.1-0.5c2.1,0,3.1,0.7,3.2,2.7
			c0.1,2.4-0.8,3.6-2.8,3.8c-12.9,1.4-24.9,5.3-35.3,13.1c-16.7,12.5-33.2,25.2-49.7,37.9C996.8,576,990.9,581.1,984.4,586.4z"/>
		<path class="st0" d="M666.1,368.8c2.8-9.5,5.6-18.6,8.2-27.6c1-3.4,0.4-4.7-2.8-6.9c8.3,0,16.4,0,24.8,0c-0.3,1-0.4,1.8-0.6,2.5
			c-11.1,35.8-22.2,71.5-33.3,107.3c-0.2,0.8-0.5,1.5-0.7,2.3c-1,3.7-0.6,4.8,2.5,7.2c-8.1,0-16,0-24.3,0c0.9-3.2,1.8-6,2.7-9.4
			c-0.9,0.6-1.6,0.9-2.2,1.3c-5.4,3.5-11.1,6.3-17.5,7.4c-15.3,2.6-25.8-5.6-27.1-21.1c-2.4-28,18.7-58.9,45.6-66.6
			c3.1-0.9,6.3-1.4,9.5-1.6C656.5,363.1,661.8,364.1,666.1,368.8z M617.1,422.7c0,1.1-0.1,2.2,0,3.3c0.6,7.7,4.9,13.3,11.5,14.8
			c6,1.3,11-1.2,15.8-4.3c0.4-0.3,0.6-1.1,0.8-1.6c5.7-17.9,11.4-35.9,17.1-53.9c0.2-0.7,0.4-1.6,0.1-2.2c-1.3-3.9-4.2-6-8.4-6.1
			c-7.3-0.2-13.2,3-18.2,7.8C623.7,392,618.3,406.5,617.1,422.7z"/>
		<path class="st0" d="M776.4,451.9c-9.3,0-18.1,0-27,0c4.6-2.5,5.6-7,7-11.4c6.7-21.5,13.4-43.1,20.2-64.6c0.3-1.1,0.6-2.1,0.9-3.2
			c0.6-2.4,0.3-4.4-2.6-6c8.4,0,16.3,0,24.4,0c-0.8,2.9-1.7,5.8-2.7,9.3c1.2-0.8,1.8-1.3,2.5-1.8c7.2-5.1,14.7-9.4,23.7-10.1
			c3.1-0.2,6.4,0.1,9.3,0.9c7.8,2.2,12,9.3,11,17.9c-0.4,3-1,6.1-1.9,9c-5.4,17.4-10.9,34.8-16.5,52.1c-0.9,2.8-1.2,5.4,1.6,7.8
			c-9.1,0-17.9,0-27,0c0.9-0.6,1.7-1,2.1-1.5c1.3-1.6,3-3.2,3.6-5.1c5.5-16.9,10.8-33.8,16-50.8c0.9-2.9,1-6.2,0.9-9.3
			c-0.1-3.8-2.6-6.2-6.2-7.1c-4.8-1.3-9.4-0.4-13.8,1.8c-0.7,0.4-1.4,0.7-2.1,1.1c-4.1,2.2-6.8,5.2-8.2,10
			c-5.2,17.5-10.9,34.8-16.4,52.1C774.2,446,773.2,449.1,776.4,451.9z"/>
		<path class="st0" d="M757.1,404.1c-6.9,0-13.8,0-20.8,0c-10,0-20.1,0-30.1-0.1c-1.5,0-2.2,0.4-2.6,1.9c-1.9,6.7-3.3,13.3-2.2,20.3
			c1.8,11.3,10.2,17.1,21.4,14.6c9.8-2.2,17.8-7.6,24.7-14.6c0.5-0.5,0.9-1.2,1.4-1.8c0.2,0.1,0.3,0.2,0.5,0.4
			c-0.1,0.4-0.2,0.7-0.3,1.1c-6.8,16.7-26.9,29.1-44.8,27.7c-14.4-1.1-24-11.2-24.6-25.7c-0.6-15.8,5.2-29.3,14.7-41.5
			c8.1-10.3,18.1-18,31.1-21.3c6.1-1.6,12.3-1.8,18.5-0.3c8.9,2.3,14.5,8.5,15.8,17.7C760.8,388.9,759.6,398.5,757.1,404.1z
			 M707.5,394.8c0.3,0.3,0.3,0.4,0.4,0.4c10.3,0.1,20.7,0.2,31,0.2c0.5,0,1.3-0.6,1.4-1.1c1.4-4.4,2.1-8.9,1.4-13.5
			c-0.9-5.6-4.7-8.7-10.4-8.5c-3.8,0.1-7.1,1.5-10,3.7C714.7,380.8,710.7,387.5,707.5,394.8z"/>
		<path class="st0" d="M907.9,404.6c-2.7,7.4-4.2,14.8-2.9,22.6c1.8,11.1,10.5,16.7,21.8,14.1c9.8-2.3,17.7-7.7,24.6-14.8
			c0.5-0.5,1-1,1.5-1.5c0,0,0.1,0,0.3,0c-1.6,4.4-4,8.2-7,11.7c-8.4,9.7-18.7,16-31.6,17.3c-19.8,1.8-33-10.4-31.3-30.3
			c2.3-26.2,15.9-45.1,39.8-56.1c7.7-3.5,16-4.3,24.3-2.3c9.5,2.3,15.5,9.5,16.2,19.2c0.5,6.2-0.5,12.1-2.1,18
			c-0.5,1.8-1.4,2.2-3.1,2.2c-16.2-0.1-32.4-0.1-48.6-0.1C909.3,404.6,908.6,404.6,907.9,404.6z M910.9,395.9c11.2,0,21.9,0,32.8,0
			c1.5-4.8,2.6-9.7,1.6-14.8c-1.2-5.8-4.7-8.8-10.5-8.2c-2.9,0.3-6.1,1.3-8.6,2.9C918.7,380.4,914.5,387.7,910.9,395.9z"/>
		<path class="st0" d="M502.2,403.6c-4.5,0-9,0-13.4,0c-11.6,0-23.2,0-34.8-0.1c-1.7,0-2.3,0.5-2.8,2.1c-2,6.7-3.2,13.5-2.1,20.6
			c1.9,11.6,10.3,17,21.8,13.8c8.8-2.5,16-7.7,22.2-14.4c0.5-0.5,0.9-1.1,1.5-1.7c0,0.4,0.2,0.6,0.1,0.8
			c-5.9,16.1-24,28.7-40.9,28.5c-13.4-0.2-23-8.6-24.9-22c-1.7-11.6,1.1-22.5,6.1-32.8c6.9-14,16.7-25.3,31.2-31.8
			c6.9-3.1,14.2-4.3,21.7-2.8c9.8,1.9,15.5,8,16.9,17.9C505.9,389.1,504.4,396.3,502.2,403.6z M454.9,394.7c10.3,0,20.2,0,30,0
			c0.5,0,1.2-0.5,1.3-0.9c1.5-5.1,2.5-10.3,0.9-15.6c-1.4-4.6-5-6.9-9.7-6.5c-3.5,0.3-6.6,1.6-9.3,3.8
			C461.9,380.4,458.1,387,454.9,394.7z"/>
		<path class="st0" d="M561.7,386.9c-1.1-3-1.9-6.3-3.5-9.2c-2.8-5.2-7.8-7.1-14-5.8c-5.9,1.2-10.8,5.9-11.6,11.1
			c-0.6,3.6,0.8,6.4,3.3,8.7c2.4,2.1,5.1,4,7.5,6.1c2.7,2.2,5.4,4.4,7.8,6.9c5.4,5.6,6.8,12.3,4.8,19.7c-3.6,13.2-12.8,21-25,25.8
			c-12,4.7-23.5,3.9-34.2-3.6c-1.4-1-2-1.8-1.3-3.6c2.1-6.1,4-12.3,5.9-18.3c0.9,3.3,1.5,6.7,2.7,9.8c3,7.5,8.7,10.6,16.6,8.9
			c7.1-1.5,12-5.7,14.4-12.6c1.3-3.7,0.6-7.1-2.3-9.7c-2.5-2.2-5.1-4.2-7.6-6.4c-2.8-2.4-5.7-4.8-8.2-7.5c-4.2-4.5-5.3-9.9-4.1-15.9
			c2.9-14.4,14.9-25.5,29.6-27.5c8-1.1,15.7-0.2,23.1,3.3c1.3,0.6,1.9,1.2,1.3,2.9c-1.7,5.3-3.3,10.7-4.9,16.1
			C562,386.4,561.8,386.8,561.7,386.9z"/>
		<path class="st0" d="M294.5,450.5c4.2-2.3,5.7-5.7,6.9-9.4c9.6-29.5,19.3-59,28.9-88.6c2.8-8.7,7.7-15.7,16.6-19.2
			c3-1.2,6.1-1.8,9.7-1.5c-0.4,1.3-0.7,2.3-1.1,3.3c-11.6,35.8-23.2,71.5-34.8,107.3c-0.9,2.7-1.5,5.4,0.8,8
			C312.5,450.5,303.9,450.5,294.5,450.5z"/>
		<path class="st0" d="M888.9,348.5c-1.8,5.8-3.6,11.6-5.6,17.9c6.3,0,12.2,0,18.5,0c-1,3.4-1.9,6.3-2.9,9.2
			c-0.2,0.5-1.4,0.9-2.1,0.9c-4.9,0.1-9.8,0.1-14.7,0c-1.6,0-2.4,0.4-2.8,2c-4.9,15.8-10,31.6-14.9,47.4c-1.3,4-2.3,8.1-1.3,12.3
			c0.8,3.3,2.7,5.5,6,6.3c4.4,1.1,8.6,0.9,12.5-1.7c0.9-0.6,1.8-1.2,2.9-1.4c-0.4,0.6-0.7,1.3-1.2,1.9c-6.5,8.8-19.1,12.9-29.4,9.6
			c-6.7-2.1-11-7.3-11.1-14.3c0-4.3,0.5-8.9,1.8-13c4.6-15.5,9.6-30.9,14.5-46.3c0.3-0.8,0.5-1.6,0.8-2.8c-3.6,0-7,0-10.4,0
			c-0.1-0.2-0.2-0.5-0.3-0.7C864,368.9,877.6,360.5,888.9,348.5z"/>
		<path class="st0" d="M579.8,451.3c-9.3,0-18.2,0-27.1,0c4.9-2.7,5.8-7.7,7.2-12.3c6.6-21.6,13.2-43.3,19.8-64.9
			c0.1-0.5,0.3-0.9,0.4-1.4c0.8-2.6,0.9-5.1-2.4-6.9c8.6,0,16.7,0,25.2,0c-0.3,1.1-0.6,2.1-0.9,3c-7.9,24.7-15.7,49.4-23.6,74.2
			C577.6,445.8,576.9,448.7,579.8,451.3z"/>
		<path class="st0" d="M998.9,586.6c0.8-0.7,1.3-1.3,1.9-1.7c18.7-14.4,37.3-28.9,56.1-43.3c7.6-5.8,16-10.2,25.4-12.1
			c0.4-0.1,0.8-0.1,1.2-0.1c-26.1,17-49.6,37.2-74.1,56.9c31.4,28.7,63.9,55.6,96.7,81.6c-8-0.3-15.1-3.8-21.5-9.1
			c-19.1-15.6-38.1-31.2-57.1-47c-9.1-7.6-17.9-15.6-26.8-23.4C1000.2,587.9,999.6,587.4,998.9,586.6z"/>
		<path class="st0" d="M671.9,667.7c-3.8,0-7-1.5-8.7-5c-2.4-4.7-4.7-9.5-6.4-14.4c-16.2-45.1-32.3-90.3-48.4-135.4
			c-0.7-2-1.3-4-2-6.1c-0.6-1.8,0.3-4,1.9-4.6c1.5-0.6,3.6,0.7,4.3,2.8c2.8,8.1,5.4,16.2,8.2,24.2c14.8,41.3,29.6,82.7,44.6,124
			C667.2,658.1,669.7,662.8,671.9,667.7z"/>
		<path class="st0" d="M386,529.4c-0.4,5.8-1.1,11.4-1.1,17.1c-0.1,34.8,0,69.5,0.1,104.3c0,4.9,0.6,9.7,0.9,15
			c-1.8-0.6-3.8-1.2-5.6-2c-0.6-0.3-1.1-1.4-1.2-2.1c-0.3-4.1-0.7-8.2-0.7-12.3c-0.1-35-0.1-70-0.1-105c0-3.1,0.2-6.2,0.7-9.2
			C379.6,530.5,381.6,529.2,386,529.4z"/>
		<path class="st0" d="M776.7,664.3c-9-3.7-16.3-9.5-22.2-17.1c-8.5-10.9-13-23.5-14.8-37.1c-1.8-14.2-1.4-28.4,3-42.2
			c4.7-14.7,13.5-26.1,27.1-33.6c0.6-0.3,1.1-0.6,1.7-0.9c0.2-0.1,0.4-0.2,0.9-0.4c-0.2,0.4-0.3,0.5-0.4,0.6
			c-13.2,10.8-20.8,25-23.8,41.6c-3.6,20-2.5,39.8,5.3,58.8c4.7,11.5,12,21.3,21.8,29C775.9,663.6,776.3,664,776.7,664.3z"/>
		<path class="st0" d="M266.8,671.6c11-10.7,16-23.3,15.9-38s-6-26.9-17.3-36.6c11,2.5,22.7,19.4,23.8,33.4
			C290.5,648.6,281.7,664,266.8,671.6z"/>
		<path class="st0" d="M974,667.7c-5,0.1-6.9-1.6-7-7.1c-0.2-13.6-0.3-27.2-0.4-40.8c0-4.4,0-8.8,0-13.9c2.4,2.1,4.4,3.7,6.2,5.4
			c0.4,0.4,0.4,1.5,0.4,2.2c0,9.5-0.1,19,0.1,28.4C973.3,650.5,973.7,659,974,667.7z"/>
		<path class="st0" d="M608.6,343.6c0,7.2-7.1,14.9-14.3,15.3c-4.8,0.3-8.4-3.7-7.9-8.7c0.7-6.5,6.3-12.8,12.6-14.1
			C604.3,334.9,608.5,338.2,608.6,343.6z"/>
		<path class="st0" d="M974.5,528.7c-2.5,15.2-1.1,30.3-1.3,45.3c0,2.4-0.6,4-2.5,5.3c-1.3,0.9-2.4,2-3.9,3.2
			c-0.1-0.8-0.2-1.2-0.2-1.7c0-12.7,0-25.4,0-38.2c0-2.4,0.2-4.9,0.4-7.3C967.5,530.5,969.4,528.9,974.5,528.7z"/>
		<path class="st0" d="M835.7,451.8c-5.1,0.9-7.7-1.8-6.3-6.5c3.8-12.5,7.8-25,11.7-37.5c2.3-7.4,4.5-14.8,6.6-22.2
			c0.4-1.5,0.4-3.1,0.5-4.8c1.4,0,2.8,0,4.8,0c-0.5,2.6-0.6,5.2-1.4,7.6c-3.6,11.6-7.3,23.1-10.9,34.7c-2.1,6.8-4.2,13.7-6.3,20.6
			C833.5,446.6,832.9,449.4,835.7,451.8z"/>
		<path class="st0" d="M549.9,669c-2.1-0.3-4.1-0.7-6.4-1c0.2-1,0.2-1.9,0.5-2.7c4.8-13.7,9.6-27.4,14.5-41c1.9-5.2,1.9-5.2,8-4.7
			C560.9,636,553.5,651.7,549.9,669z"/>
		<path class="st0" d="M254,583.8c9.5-8.2,14.1-18.2,14.2-30.2c0-11.9-4.2-22-13-30.4c10.5,2.9,19.3,16.3,19.6,29.3
			C275,566.3,266.3,579.8,254,583.8z"/>
		<path class="st0" d="M804.9,383.3c-0.9,1.9-2.3,4.1-3.1,6.5c-5.8,17.9-11.4,35.8-17,53.6c-0.9,2.9-1.8,5.8,1.3,8.3
			c-5.7,0.7-7.8-2-6.1-7.6c5-16,10.1-32,15.2-48c0.5-1.5,1.1-3,1.4-4.5C797.3,386.3,801.6,384.8,804.9,383.3z"/>
		<path class="st0" d="M428.6,384.3c-0.6,0.4-1.4,0.8-1.9,1.3c-4.1,4-7,8.7-8.7,14.2c-4.4,14.5-8.7,29-13.1,43.5
			c-0.8,2.7-1.1,5.3,1.4,7.4c-4.7,1.2-7.5-1.7-6.2-6.6c1.5-5.6,3.3-11.2,5-16.8c2.7-9.1,5.4-18.1,8.1-27.2
			c1.9-6.2,5.4-11.2,10.9-14.7c1.2-0.8,2.6-1.3,3.9-1.9C428.2,383.7,428.4,384,428.6,384.3z"/>
		<path class="st0" d="M873.4,440.5c-4.1,0.5-5.7-0.6-5.5-4.4c0.2-3.7,0.7-7.4,1.7-10.9c4.1-13.7,8.5-27.2,12.9-40.8
			c1.2-3.7,1.2-3.7,5.5-3.2c-0.5,1.6-0.9,3.1-1.4,4.7c-4.3,13.5-8.5,27.1-12.8,40.6C872.4,431,871.5,435.7,873.4,440.5z"/>
		<path class="st0" d="M346.5,392.1c-2.5,7.9-5,15.5-7.5,23.1c-3,9.2-5.9,18.5-8.9,27.7c-0.8,2.6-1.2,5.1,0.7,7.4
			c-4.8,1.6-6.2-1.5-5.9-5c0.1-1.2,0.5-2.3,0.8-3.4c5-15.4,9.9-30.7,14.9-46.1C341.9,392.1,341.9,392.1,346.5,392.1z"/>
		<path class="st0" d="M682.4,395.9c6.4-20.5,12.7-40.9,19.1-61.4c1.5,0,2.9,0,4.5,0c-1,3.2-1.8,6.2-2.8,9.1
			c-3.9,12.5-7.8,25-11.7,37.5c-0.6,1.8-1.6,3.6-2.6,5.2c-2,3.3-4.1,6.5-6.2,9.7C682.6,396,682.5,395.9,682.4,395.9z"/>
		<path class="st0" d="M864.5,517c2.3,0.4,4.3,0.7,6.6,1.1c0.3,3.1,0.7,6.4,1,9.6c0.8,8.2,1.6,16.5,2.4,24.7
			c0.3,3.4-1.9,5.1-5.1,3.7c-0.6-0.3-1.2-1.4-1.3-2.2c-1.1-10.4-2-20.9-3-31.3C864.8,520.8,864.7,518.9,864.5,517z"/>
		<path class="st0" d="M462.9,683.2c4.1-10.1,8-19.6,11.7-29.2c1.4-3.7,2.4-7.6,3.6-11.4c0.2-0.5,0.8-1.2,1.2-1.1
			c1.5,0.2,3.1,0.4,4.5,1c0.4,0.2,0.6,1.8,0.3,2.5c-3.8,9.6-7.7,19.2-11.5,28.7c-1,2.4-2.1,4.8-2.9,7.2c-0.6,2-1.7,2.6-3.6,2.3
			C465.3,683.1,464.3,683.2,462.9,683.2z"/>
		<path class="st0" d="M864.4,678.5c2.8-12.3,5.5-23.9,8.2-35.5c0.6-2.5,2.6-1.6,4.1-1.4c1.5,0.1,2.5,0.9,2,2.7
			c-2.4,10.1-4.7,20.3-7.1,30.4c-0.1,0.5-0.5,1.2-1,1.4C868.7,677,866.8,677.6,864.4,678.5z"/>
		<path class="st0" d="M346.1,379.4c2.1-6.5,4.1-12.8,6.2-19.1c2.7-8.4,5.5-16.8,8.2-25.2c1.2-3.7,1.3-3.7,5.5-3.2
			c-0.2,0.7-0.4,1.5-0.6,2.2c-4.3,13.3-8.8,26.6-12.9,40.1C351.4,377.5,349.7,379,346.1,379.4z"/>
		<path class="st0" d="M399.7,317c14.6,5.1,21.9,21,16.2,35.2c-0.8,2-1.9,4-3,5.9c-1.8,3.1-1.9,3.1-6,2.3
			C418,343.7,413.8,329.6,399.7,317z"/>
		<path class="st0" d="M287.5,385c-5.2-0.7-7.5-3.2-7.5-8.1c0-4.4,1.3-8.5,3.6-12.1c7-11.2,17.1-19,28.8-24.9
			c-0.3,0.2-0.6,0.5-0.9,0.7c-0.4,0.3-0.8,0.5-1.2,0.8c-7.6,5.3-14.4,11.3-19.5,19.1c-2.2,3.4-4,7.2-5.4,11
			C283.9,376.2,284.3,380.8,287.5,385z"/>
		<path class="st0" d="M965.2,404.5c3.1-13.5,6.2-26.8-5.1-38.3c3.7,1.2,6.3,3.7,8.3,6.9c3.8,6.1,4.3,12.9,3.5,19.8
			c-0.3,2.9-1,5.7-1.8,8.5C969.3,405.1,969.2,405.1,965.2,404.5z"/>
		<path class="st0" d="M562.1,416.8c-1.9-9.1-7-15.2-13.4-20.4c-2.9-2.3-5.9-4.5-8.7-6.9c-3.5-2.9-3.4-8,0.2-10.8
			c1.5-1.1,3.4-1.8,5.1-2.7c0.1,0.2,0.2,0.3,0.3,0.5c-0.3,0.4-0.5,0.7-0.8,1.1c-4,5.4-3.6,10.2,1.4,14.7c3.4,3,7.2,5.6,10.7,8.6
			c2.2,2,4.2,4.3,6.2,6.5c1.2,1.3,1.5,2.6,0.7,4.3C563.1,413.1,562.8,414.7,562.1,416.8z"/>
		<path class="st0" d="M919,437.1c-4-0.7-6.7-2.4-7.9-6c-2.5-7.4-1.5-14.7,0.4-22.1c1.4,0,2.8,0,4.4,0
			C914,418.6,912.4,428.1,919,437.1z"/>
		<path class="st0" d="M675.2,419.6c0.2,4.2,0.7,8.1,0.5,12c-0.1,2.1-1.1,4.2-1.8,6.3c-0.8,2.8-1.7,5.6-2.6,8.4
			c-1.1,3.7-0.7,5,2.4,7.2c-3.2,0.6-3.3,0.6-4.9-1.9c-0.1-0.2-0.2-0.5-0.4-0.6c-3.3-1.6-2-4-1.3-6.4c2.4-7.6,4.7-15.2,7.1-22.8
			C674.6,421.2,674.9,420.5,675.2,419.6z"/>
		<path class="st0" d="M462.8,436c-3.3-0.5-5.9-1.7-7.1-4.5c-3.1-7.5-2.2-15.1-0.3-22.7c0.1-0.4,0.9-0.7,1.3-0.9
			c0.3-0.1,0.6,0,0.9,0c0.7,0,1.4,0,2.4,0C458,417.5,456.7,426.9,462.8,436z"/>
		<path class="st0" d="M712.3,408.6c-2.1,9.6-3.4,19,2.7,27.6c-3,0.1-6.2-2-7.4-5.1c-2.3-6.1-1.9-12.4-0.8-18.6c0-0.1,0-0.2,0.1-0.2
			C708.1,407.9,706.9,408.2,712.3,408.6z"/>
		<path class="st0" d="M589.6,451.3c-5.2,0.4-7.8-2-6.6-6.3c2.8-9.6,6-19.1,8.9-28.3c-0.1,4.9-0.1,10.1-0.5,15.3
			c-0.2,2.2-1.2,4.4-1.8,6.6c-0.5,1.8-1.1,3.6-1.7,5.4C587,446.6,586.9,449.1,589.6,451.3z"/>
		<path class="st0" d="M598,397.6c3.4-10.7,6.8-21.2,10.2-31.8c1.4,0,2.8,0,4.3,0C610,377.5,605.5,388.1,598,397.6z"/>
		<path class="st0" d="M762.4,404c4.1-13.8,5.1-27-6.4-38.1c0.1-0.1,0.3-0.3,0.4-0.4c1.5,0.8,3.1,1.5,4.6,2.5
			c5.3,3.6,7.8,8.9,8.6,15.1c0.1,0.5-0.1,1.1-0.2,1.6c-1.9,6.2-3.8,12.3-5.7,18.5c-0.1,0.3-0.4,0.6-0.5,0.9
			C762.8,404.1,762.6,404,762.4,404z"/>
		<path class="st0" d="M1101.4,514.3c3.6-0.2,7.7-0.3,11.7-0.6c1.8-0.1,2.5,0.8,2.7,2.2c0.2,1.7,0.2,3.7-1.8,4.1
			c-4.7,1-9.4,1.7-13.9,2.4C1100.5,519.9,1100.9,517.2,1101.4,514.3z"/>
		<path class="st0" d="M1120.5,675.7c4.4,0.6,9,1.2,13.6,1.9c1.6,0.2,2.7,2.2,2.5,4.2c-0.1,2-1.4,2.1-3,2c-3.8-0.1-7.7,0-11.2,0
			C1121.7,680.6,1121.1,678,1120.5,675.7z"/>
		<path class="st0" d="M610.8,336c4.6,0.2,7.2,2.8,7.4,7.2c0.3,6.8-5.6,14-12.3,15.3C614.9,346.7,615.1,345.8,610.8,336z"/>
		<path class="st0" d="M962.7,425.4c-4.9,11.3-13.2,19.3-23.4,24.3c3.7-3.9,8.1-8.4,12.3-13c3.6-3.9,7-7.9,10.5-11.9
			C962.4,425,962.5,425.2,962.7,425.4z"/>
		<path class="st0" d="M571.2,387.2c-0.8-2.7-1.4-4.7-1.9-6.7c-0.2-0.6,0-1.4,0.2-2.1c0.5-1.7,1.1-3.4,1.6-5.2
			c0.7-2.5,2.3-4.9,0.5-7.6c1.4,1.6,2.8,3.2,4.6,5.3C574.7,375.7,573,381.2,571.2,387.2z"/>
		<path class="st0" d="M501.2,364.8c4.6,1.4,8,4.2,10.4,8.2c1.6,2.6,2.6,5.2,0.3,8c-0.6,0.8-0.9,1.8-1.6,3.4
			C509.5,376.4,506.3,370.2,501.2,364.8z"/>
		<path class="st0" d="M755.6,428.7c-2.8,10.6-11.5,15.5-19.9,20.6c-0.1-0.1-0.3-0.3-0.4-0.4c1.2-0.9,2.5-1.8,3.5-2.9
			c3.6-3.8,7.1-7.8,10.6-11.7c1.9-2.1,3.7-4.2,5.6-6.2C755.1,428.3,755.4,428.5,755.6,428.7z"/>
		<path class="st0" d="M890,362c0.3-6.3,4.2-10.2,8.7-14c-1.5,4.5-2.7,8.8-4.3,13C893.6,363.3,891.5,361.6,890,362z"/>
		<path class="st0" d="M688.4,682.4c-0.2-2.6-0.3-4.7-0.4-7.2c1.9,0.2,4.2,0.1,6.1,0.8c1.8,0.7,1.5,2.7,1.2,4.4
			c-0.2,1.4-0.9,2.2-2.6,2.1C691.3,682.3,689.8,682.4,688.4,682.4z"/>
		<path class="st0" d="M561.5,682.3c-0.2-2.3-0.4-4.5-0.6-6.8c1.7,0.1,3.6,0.1,5.4,0.4c2.1,0.3,2.2,2.1,2.1,3.6
			c-0.1,1.6-0.6,3.2-2.8,3C564.2,682.5,562.7,682.4,561.5,682.3z"/>
		<path class="st0" d="M515.7,439.5c-2.3,0-4.4-1.4-5.9-3.6c-1-1.4-1.6-3-0.8-4.9c0.8-2,1.3-4,1.9-5.7
			C512.5,429.9,514.1,434.8,515.7,439.5z"/>
		<path class="st0" d="M989.2,520.7c0-2.3,0-4.3,0-6.7c0.8-0.1,1.8-0.1,2.9-0.2c3.2-0.2,4.9,2,3.7,5.1c-0.2,0.5-0.7,1.1-1.2,1.2
			C992.8,520.5,990.9,520.6,989.2,520.7z"/>
		<path class="st0" d="M991.1,682.5c0-2.3,0-4.4,0-6.6c1.7,0.2,3.5,0.2,5.2,0.5c1.8,0.3,1.6,1.9,1.5,3.2c-0.1,1.4-0.2,3-2.1,3.1
			C994.1,682.7,992.4,682.5,991.1,682.5z"/>
		<path class="st0" d="M402.6,521.6c0-2.7,0-4.7,0-7.3c2,0.3,4.3,0.3,6.1,1.2c0.7,0.4,0.9,3.9,0.4,4.2
			C407.2,520.7,404.8,521,402.6,521.6z"/>
		<path class="st0" d="M454.7,364.1c0.1,5.2-4,6.6-7,9.6c1-3.9,1.8-7.1,2.7-10.7C451.5,363.3,453.2,363.7,454.7,364.1z"/>
		<path class="st0" d="M480.6,449.1c4.1-3.9,8.2-7.8,12.1-11.6C492,444.6,485.5,446.1,480.6,449.1z"/>
		<path class="st0" d="M555.8,437.1c-0.3,7-6.5,8.6-11.5,11.7C548.3,444.7,552.1,440.8,555.8,437.1z"/>
		<path class="st0" d="M849.4,370.6c-1.2,0.6-2.2,1.2-3.2,1.7c-1.5-2.3-3.1-4.6-4.5-6.8C844,365.5,847,367.3,849.4,370.6z"/>
		<path class="st0" d="M881,451.8c1.5-1.4,3.1-2.8,4.7-4.3c0.4,0.5,0.8,1,1.3,1.6c-2,1.1-3.9,2.1-5.8,3.1
			C881.1,452,881.1,451.9,881,451.8z"/>
		<path class="st0" d="M635.6,20.9c16.5,0.3,35.1,5.8,50.7,19.2c8,6.9,13.8,15.3,17.1,25.4c0.3,1,1.5,1.9,2.5,2.3
			C730,77.3,746,94.3,752,119.7c6.7,28.4-5.7,58.1-30.9,74.3c-4.9,3.2-10.5,5.3-15.8,8c-0.8,0.4-1.7,1-2,1.7
			c-6.1,18.2-18.9,30.2-36,37.3c-28.6,11.9-56.6,10.3-83.1-6.3c-11.6-7.3-20-17.6-24.3-30.8c-0.3-0.9-1.5-1.7-2.5-2.1
			c-23.2-9-39-25.2-45.6-49.3c-8.6-31.1,6.1-64,35-79.8c3.5-1.9,7.3-3.3,11-5c0.8-0.4,1.8-1.1,2-1.9c5.7-17.1,17.6-28.5,33.3-36.3
			C605.4,23.6,618.3,20.9,635.6,20.9z M633.3,30.2c-13.7,0.1-25.3,2.4-36.1,7.7c-14.8,7.2-25.9,17.9-31.2,33.9
			c-0.3,0.8-1.3,1.4-2.1,1.9c-4.8,2.4-9.8,4.4-14.3,7.2c-26.5,17-37.1,49.4-25.4,77.7c7.6,18.3,21.1,30.6,39.5,37.6
			c1,0.4,2.2,1.2,2.5,2.1c3.7,11.2,10.5,20.2,20.1,26.8c24.9,17,51.5,18.7,78.8,7c15.4-6.6,26.7-17.7,32.3-34c0.2-0.7,1.2-1.3,2-1.7
			c4.8-2.5,10-4.4,14.5-7.3c23.5-15,34.8-42.2,28.2-68.7c-5.7-22.9-20.6-38-42.3-46.6c-1-0.4-2.2-1.4-2.5-2.4
			c-2.8-8.3-7.4-15.5-13.8-21.5C669,36,651.2,30.6,633.3,30.2z"/>
		<path class="st0" d="M181.2,605.1c2-0.2,4-0.4,6.4-0.6c0,1.1,0,1.9,0,2.7c0,11.8-0.1,23.7,0.1,35.5c0.1,8,0.6,15.9,4.3,23.3
			c-3.6,0.3-7.7-2.1-8.6-5.6c-1.1-4.6-2.1-9.4-2.2-14.2c-0.3-13.4-0.2-26.8-0.2-40.3C181,605.8,181.1,605.6,181.2,605.1z"/>
		<path class="st0" d="M187.3,581.5c-2.1,0-4.1,0-6.3,0c0-16.8,0-33.5,0-50.5c2-0.2,4-0.3,6.3-0.5
			C187.3,547.4,187.3,564.3,187.3,581.5z"/>
		<path class="st0" d="M568.6,595.7c5.1-13.5,10.1-26.6,15.1-39.8c1.5,3.8,4.1,7,2.2,11.6c-3.6,8.4-6.7,17-9.8,25.6
			c-0.8,2.1-1.7,2.9-3.9,2.6C571.1,595.6,570,595.7,568.6,595.7z"/>
		<path class="st0" d="M647.1,378.6c-11.2,10-17.1,22.9-19.8,37.3c-1.4,7.2-1.3,14.3,3.5,20.6c-3.8-0.2-6.5-2.1-7.6-5.6
			c-2.1-6.6-1.1-13.1,0.5-19.6c2.5-10.1,6.6-19.4,14.2-26.8C640.5,381.9,643.5,379.8,647.1,378.6z"/>
		<path class="st0" d="M728.3,377.4c-2.7,3.9-5.8,8.1-8.6,12.4c-1.4,2.2-3.2,0.9-4.9,1.2C716.9,385.3,723.6,378.7,728.3,377.4z"/>
		<path class="st0" d="M931.8,377.9c-2.7,3.9-5.6,8.4-8.9,12.6c-0.8,1-2.8,1-4.5,1.6C919.8,386.3,927.8,378.6,931.8,377.9z"/>
		<path class="st0" d="M461.9,390.2c3.6-6.1,7.3-11.5,14.6-14.2c-2.1,2.5-3.9,4.5-5.5,6.7c-1.1,1.4-2,3-2.9,4.6
			C466.2,390.5,466.2,390.6,461.9,390.2z"/>
		<path class="st0" d="M629.1,232.7c-16.4-0.4-33.4-6-47-19.8c-5.1-5.2-8.9-11.3-11.2-18.2c-0.5-1.5-1.3-2.2-2.8-2.8
			c-19.4-7.5-33.1-20.7-39.2-40.8c-7.6-25.3,3-52.1,26.1-66.7c4.2-2.7,9-4.5,13.5-6.8c0.8-0.4,1.7-1,1.9-1.8
			c5.4-16.2,16.7-27,32.1-33.1c26.1-10.5,51.1-8,73.8,9.2c7.8,5.9,13.3,13.7,16.3,23c0.5,1.6,1.4,2.4,2.9,3
			c18.6,7.2,32,19.8,38.4,38.9c8.6,25.5-1.9,53.4-25.6,68.5c-4.2,2.7-9,4.5-13.5,6.8c-0.8,0.4-1.7,1-2,1.7
			c-6.1,17.4-18.8,28-35.5,34.4C649.2,231.4,640.6,232.7,629.1,232.7z M631.6,228.9c7.1,0,14.1-0.9,20.8-3.1
			c17.9-5.8,31.5-16.4,38-34.8c0.3-0.7,1.2-1.3,2-1.7c5.5-3,11.5-5.3,16.6-9c21.2-15.2,29.4-41.3,20.5-64.5
			c-6.7-17.3-19.4-28.6-36.6-35.1c-1.5-0.6-2.2-1.3-2.7-2.8c-2.7-8.2-7.3-15.3-13.9-20.8c-20.3-17.2-43.3-20.7-68-12.5
			C591.4,50.3,579,61.4,573,78.8c-0.2,0.7-1.2,1.3-2,1.7c-4.9,2.6-10.1,4.6-14.6,7.6c-21.5,14.4-30.9,39.9-23.2,63.3
			c6.2,18.8,19.5,30.9,37.8,37.8c1.3,0.5,2,1.2,2.4,2.5c2.2,6.7,5.8,12.6,10.7,17.7C597.1,222.9,613.3,228.5,631.6,228.9z"/>
		<path class="st0" d="M594.6,143.3c-6,2.3-11.9,2.8-17.5-0.5c-5.1-3-7.2-7.8-7.1-13.6c0.2-8.2,3.4-15.3,8.2-21.8
			c7.3-9.8,16.9-16.7,28.1-21.5c17.9-7.7,36.5-10.3,55.8-7.5c5.4,0.8,10.6,2.6,15.1,5.8c9.3,6.4,12.4,17.3,7.8,27.6
			c-2.8,6.4-7.4,11.4-12.9,15.5c-12.2,9-26.2,12.3-41.2,13.3c-0.1-1.8,1-2.1,2.3-2.4c8.5-2.3,16.7-5.5,23.3-11.6
			c3.2-3,6.3-6.6,8.3-10.5c6.1-12,0-24-13.2-26.7c-7-1.5-14-0.5-21,0.5c-14.1,2-27.1,6.7-38,16.2c-5,4.3-9.6,9-12.7,14.9
			c-1.3,2.5-2.4,5.2-3,7.9c-1.3,5.6,1.2,10.3,6.7,12.2C587.2,142.2,590.8,142.5,594.6,143.3z"/>
		<path class="st0" d="M644.2,93.8c-1.7,5.3-3.3,10.4-5,15.5c-8.1,25.3-16.3,50.6-24.4,75.9c-0.7,2.3-1.3,4.6,0.4,7
			c-7.2,0-14.3,0-22,0c3.9-2.1,4.8-5.5,5.9-8.8c7.7-23.9,15.5-47.9,23.2-71.8c1.9-5.8,4.6-10.9,9.8-14.4
			C635.7,94.9,639.6,93.7,644.2,93.8z"/>
		<path class="st0" d="M637.8,147.3c-2.7,8.4-5.4,16.6-8.1,24.8c-1.4,4.3-2.8,8.7-4.3,13c-0.8,2.4-1.3,4.7,0.4,7.2
			c-1.4,0-2.6,0-3.5,0c-2.8-2.6-1.7-5.4-0.7-8.3c3.7-11.1,7.4-22.3,10.9-33.5C633.4,147.8,634.7,146.9,637.8,147.3z"/>
		<path class="st0" d="M683.2,82c12,4.6,17.5,17.4,12.6,29.1c-4,9.7-11.6,15.9-19.9,20.5c3.4-3.5,7.6-7.2,11-11.6
			c6.2-8,8.3-17.1,4.6-26.9C689.8,88.6,686.9,85,683.2,82z"/>
		<path class="st0" d="M612.9,100.7c-4.1,3.1-8.2,5.6-11.7,8.9c-3.9,3.7-7.5,7.7-10.5,12c-3.2,4.6-4.4,9.8-0.7,15
			c-4.9-0.7-7.5-4.1-6.2-8.7c0.8-2.7,2.1-5.5,3.7-7.8c6.1-8.5,14.5-14.1,23.7-18.9C611.5,101,612.1,100.9,612.9,100.7z"/>
		<path class="st0" d="M639.1,129.7c1.4-4.2,2.6-8.1,3.9-11.9c2-5.9,4.1-11.7,6-17.7c0.8-2.5,2.2-3,4.6-2.2
			c-0.2,0.8-0.4,1.6-0.7,2.4c-2.8,8.4-5.7,16.7-8.3,25.1C643.8,128.4,642,129,639.1,129.7z"/>
	</g>
</g>
</svg>
