<?xml version="1.0" encoding="utf-8"?>
<!-- Generator: Adobe Illustrator 21.0.2, SVG Export Plug-In . SVG Version: 6.00 Build 0)  -->
<svg version="1.1" id="Layer_1" xmlns="http://www.w3.org/2000/svg" xmlns:xlink="http://www.w3.org/1999/xlink" x="0px" y="0px"
	 viewBox="0 0 1264 768" style="enable-background:new 0 0 1264 768;" xml:space="preserve">
<style type="text/css">
	.st0{fill:#E40137;}
</style>
<g id="ak9eH5_1_">
	<g>
		<path class="st0" d="M93.1,590.7c0.4-3.8,0.8-7.7,1.2-11.5c2.1-25,8.7-48.8,18-72c10-24.8,23.4-47.7,37.6-70.2
			c2.8-4.5,5.4-9.1,8-13.7c6.8-12.2,7.5-25,2.9-38.1c-0.4-1-0.6-2.1-0.9-3.1c9.2-2.3,18.2,3.5,20.9,13.5c1.9,7,1.1,13.9-2.9,19.9
			c-5.1,7.6-10.5,15.1-16.3,22.2c-16.9,20.8-31.1,43.1-40.9,68.1c-0.2,0.5-0.4,1.1-0.7,2.2c1-0.3,1.7-0.4,2.4-0.6
			c11.2-3.8,19.7,1.2,21.9,12.9c2,10.7-0.4,20.8-4.6,30.6c-4.7,10.9-9.5,21.7-14.2,32.6c-0.7,1.5-1.1,3.1-2,4.6
			c1.6-18.6,3.5-37.2,9.6-56c1.8,3.1,3.2,5.4,4.7,7.9c3.2-11.3-7.2-25.9-18.7-26.3c-0.7,0-1.8,1.1-2,1.9
			c-3.2,11.1-6.8,22.1-9.3,33.4c-3.3,14.8-4.4,30-4.1,45.2c0.3,13.3,1.7,26.5,4.6,39.5c0.2,0.7,0.5,1.4,0.8,2.3
			c2.4-8,0.6-15.9,0.5-23.8c-0.1-10-0.7-20,0.2-29.9c0.9-10.5,3-20.9,4.8-31.3c0.5-2.7,1.5-5.3,2.6-7.9c-3.9,22.2-6.7,44.4-3.1,66.9
			c0.3,0.1,0.7,0.1,1,0.2c0.4-2.1,1.1-4.2,1.2-6.3c0.3-8.8,0.1-17.6,0.7-26.4c0.8-11.7,3.3-23.1,6.8-34.2c-0.8,5.5-1.7,11-2.3,16.5
			c-0.9,7.3-1.7,14.7-2.2,22c-0.4,6.9-0.1,13.8-0.5,20.7c-0.4,5.8-1.6,11.6-2.3,17.5c-2.2,19-1,37.6,7,55.4
			c-0.8-5.7-1.9-11.3-2.2-17c-0.4-5.9-0.1-11.8-0.1-18.2c2.5,23.3,6,45.7,19.9,64.7c0.4-0.1,0.7-0.2,1.1-0.3
			c-0.1-0.5-0.2-1.1-0.4-1.6c-7.4-15.4-12.9-31.4-14.9-48.4c-3.8-31.2,4.2-59,24.5-83.1c0.2-0.2,0.4-0.2,0.8-0.5
			c-45.9,68.1-3.4,159.8,59.9,180.4c-2-1.7-3.8-3.8-6-5.2c-4.3-2.7-8.7-5.2-13.1-7.7c0.1-0.2,0.2-0.5,0.4-0.7c3.1,1.3,6.1,2.7,9.2,4
			c0.2-0.3,0.5-0.5,0.7-0.8c-1.3-1.3-2.4-2.9-3.9-3.8c-6.2-4.1-12.3-8.2-17-14.2c5,3.4,9.9,6.7,14.8,10.1c0.2-0.2,0.4-0.5,0.6-0.7
			c-0.7-2.6-1.6-4.9-4.2-6.7c-4.6-3-8.9-6.6-13.3-9.9c0.2-0.2,0.3-0.4,0.5-0.6c4.4,2.8,8.7,5.7,13.5,8.8c0.4-6-5.4-6.3-7.4-10.1
			c2,1,3.7,1.9,5.6,2.8c0.2-0.8,0.3-1.5,0.5-2.5c5.1,16.2,12.9,30.2,27.7,39.2c5.7,3.5,12,5.8,19,5.5c-0.5-0.3-0.9-0.6-1.4-0.8
			c-16.9-7.2-27.1-20.6-33.3-37.1c-10.1-26.4-6-51.7,7-76.1c0.4-0.8,0.9-1.5,1.3-2.2c-2.1,7.2-4.6,14.3-6.3,21.5
			c-4.5,19.6-4.2,39.1,4.4,57.7c9.4,20.2,25.1,31.7,47.5,34c16,1.7,30.9-2,45.1-9.1c1.9-1,1.9-1,1-3.1c-8.2,4.1-16.8,6.7-25.8,8
			c-16,2.3-31.4,1.1-44.7-9.3c-3.1-2.4-5.6-5.5-8.1-8.5c7.5,6.3,15.6,11.1,25.1,13.5c16.4,4.1,32.1,1.3,47.3-5.1
			c1.3-0.5,2.5-1.2,3.8-1.7c2.1-0.8,2.6-2.2,1.8-4.4c-12.2,6.3-25.1,9.9-38.9,9.2c-5.5-0.3-11.1-1.4-16.8-4.5
			c3.9,0.7,7,1.4,10.1,1.8c15.7,2.1,30.4-1.1,44.1-8.8c2.2-1.2,2.9-2.7,2.1-5.4c-6.2,4.5-13.1,7-20.5,7.8
			c8.4-3.1,16.6-6.5,22.4-12.9c1,5.5,1.6,11.4,3.3,16.9c2.7,8.5,8.3,14.2,17.7,15.2c8.1,0.8,18.7-4.5,20.8-11.9
			c-0.9,0.5-1.9,0.9-2.7,1.6c-6,5.6-13,7.2-20.8,4.9c-2.2-0.6-4.1-2.4-6-3.9c10.6,4.1,20.1,3.5,24.4-2.5c-1.8,0.1-3.3,0-4.6,0.4
			c-14.3,4.2-23.6-3.5-22.2-18.4c2.1,12.5,8.5,18.4,18.9,16.4c-4.7-2.8-9.9-3.4-12.4-8c-2.3-4.4-3-9-3.1-13.9
			c1.5,4.3,2.6,8.7,6.9,12.2c-2-9.4-3.8-18.1-5.6-26.9c0.2-0.1,0.4-0.2,0.6-0.2c1.7,4.6,3.5,9.2,5.2,13.9c0.4-8.7-1.9-16.6-6.9-23.7
			c-12.5-17.4-37.8-18.9-51.5-3.1c-6.5,7.5-6.6,19.9-0.3,27.4c0.4,0.4,0.9,0.8,1.1,1c1.8-3,3.1-6.4,5.5-8.6c2.9-2.6,6.7-4,10.1-6.1
			c0.7-0.4,1.3-1.2,1.6-2.2c-6.5,0-11.3,3.1-15.4,7.7c2.2-6.6,7.9-9,14.8-11.8c-1.4-0.6-2.4-1.4-2.9-1.2c-3.2,1.3-6.3,2.8-9.8,3.9
			c3.2-2.1,6.4-4.2,9.7-6.4c-2.6-3.3-4.8,0.5-7.6,0.6c1.1-1.2,2-2.2,3.1-3.4c-1.2-0.3-2.1-0.5-3-0.7c9-5.5,20.3-0.4,22.5,10.2
			c1.9,9.2-2,17.8-10.5,22.8c-24.1,14.1-54.2,0.8-63.6-20.1c-6.2-13.9-2.5-31.1,8.6-40.3c4.5-3.7,9.8-5.1,15.5-5.5
			c-3.6-1.7-7.4-2.2-11.2-1.5c-13.7,2.3-22.7,11.9-24.6,25.7c-1.7,12.4-0.4,24.5,3.7,36.3c-0.6-1.3-1.3-2.6-1.9-3.9
			c-0.7-1.6-1.3-3.1-1.8-4.7c-0.5-1.5-1-3-1.3-4.6c-2.6-12.4-2.7-24.7,2.8-36.3c4.5-9.4,12-15.2,22.6-16c6.3-0.4,12,1.8,16.8,6
			c0.8,0.7,1.6,1.3,3,2.5c-0.3-6.5-2.3-11.6-7-15.2c-8.3-6.4-16.8-4.6-25.2,0.4c1.3-3.1,3.8-5.4,8.2-6.9c1.9-0.7,2.9-1.8,3.5-3.6
			c2.3-6.2,2.5-12.7,1.9-19.2c-0.7-7.4-1.6-14.8-2.5-22.6c-12.1,4.3-22.3,11.5-29.7,22.5c-4.4-6.2-10.9-8.7-18.2-9.2
			c-6.1-0.4-12.7,2.3-17.1,6.7c8,3.2,13.5,8.7,15.9,17.2c1.6-5.2-1-12.9-8.4-17.5c7.4-1.4,13.5,3.9,13.4,12.4
			c-0.1,7.1-0.9,14.3-2,21.4c-2.1,14.4-3.1,28.8-1,43.3c0.2,1.6,0.3,3.2,0.5,4.7c-4.1-1.6-13.2-9.5-18.6-16.2
			c-5.3-6.5-9-13.9-12.2-21.6c-0.4,24.3,6.3,46.4,20.5,66.4c-1-1.1-2.1-2.1-3.1-3.2c-1.1-1.3-2.1-2.6-3.2-4c-1-1.3-1.9-2.6-2.8-3.9
			c-10-15.3-15.6-32.2-18.1-50.3c-1.5-10.8-1.7-21.5-0.5-32.3c4-35.3,29.2-62.8,58.6-69.6c4.9-1.1,10-1.4,15-2
			c-3.5-9.1-18.8-18.5-40.9-9.9c20.3-20.8,27.9-43.7,13.9-70.9c-3.6,9.6-11.7,15.6-18.3,22.7c-9,9.8-14.2,21.3-16.7,35.1
			c-0.6-14.5-2.8-27.4-17-34.3c6.4-14,15.6-25.8,26.4-36.3c16-15.5,32.7-30.4,48.9-45.7c17.5-16.5,33.3-34.3,44.5-55.8
			c7.9-15.1,13.1-31.1,15.2-47.9c1.5-12.2,2-24.5,3.1-36.7c1.2-12.8,3.5-25.3,11.4-36c3.2-4.3,7.3-7.3,12.3-9.3
			c0-0.4-0.1-0.7-0.1-1.1c-3.4-0.1-6.9-0.7-10.3-0.3c-12.1,1.4-20.3,8.7-26.7,18.4c-7.5,11.5-11.2,24.4-13.2,37.8
			c-0.7,4.9-1.1,9.9-1.6,14.9c-0.3,2.8-0.3,2.9,3.6,4.7c1.4-15.9,4.1-31.3,12.6-45.7c-1.7,5.8-3.6,11-4.5,16.3
			c-1.8,10-3.2,20.1-4.5,30.1c-0.2,1.4,0.6,3,1.5,4.4c1.9-12,3.7-23.9,8-36c-1.2,7.2-2.6,13.5-3.2,19.9c-0.8,9.1-1.3,18.3-1.5,27.4
			c-0.1,5.5-0.4,10.9-2.4,15.9c-0.4-5.1-0.2-10.3-1.2-15.3c-2.5-12-13.8-18.3-24.5-17.1c14,18.5,13.6,38.6,7.3,60
			c0-5,0.1-9.4,0-13.8c-0.3-6.5-2.7-12.3-6.8-17.3c-1.3-1.6-2-3-1.7-5.1c1.6-9.4-0.7-18-4.8-26.3c-0.2-0.4-0.3-0.7-0.7-1.6
			c4.8,0,9.4,0,14.4,0c0.8-4.6,1.7-8.7,2.2-12.9c1.5-13,0.9-25.8-4.6-37.8c-3.8-8.3-9.2-15.2-18.6-17.9c-3.9-1.1-7.7-1.1-11.3,0.8
			c-3.7,2-5.6,5.8-5,10.1c0.5,3.4,2.9,6.1,6.4,6.6c4.3,0.7,7.1-1.8,9.4-5.2c0.1,5.1-5,12-11.2,15.4c-6.4,3.4-12.8,3.4-19.9-0.8
			c1.5,4.9,3.9,8.3,7.3,11c7,5.7,12.4,4.4,17.2-3.4c0.4-0.7,0.8-1.4,1.8-1.9c-0.7,2.7-1.5,5.5-2.2,8.4c3.3-0.5,5.3-2.6,6.4-5.5
			c1-2.6,1.7-5.4,2.6-8.5c0.4,2.1,0.7,3.8,1,6c4.2-7,3.9-13.7,0.8-21c8.7,7.7,8.9,22.3,0.8,31.1c-8.4,9.1-22.4,9.6-32.1,1.1
			c-18.7-16.6-14.9-46.3,7.4-57.7c16.8-8.6,38-6.5,51.2,5.2c-9.3-4.2-18.8-5.8-29.4-2.8c15,9.7,24.7,22.2,27,39.9
			c3.5-4.7,4.1-9.4,2-14.5c-1.1-2.7-2-5.4-3.3-8c-1.3-2.6-3-4.9-4.5-7.3c3.7,1.5,6,4.7,12,17.2c2.2-1.5,3.3-3.3,2-6
			c-0.9-1.9-1.6-3.9-2.6-5.7c-0.9-1.7-2.2-3.2-3.3-4.9c0.2-0.2,0.4-0.4,0.7-0.6c1.4,1.7,3,3.4,4.3,5.2c1.3,1.8,2.2,3.7,3.7,6.3
			c0-3.7,0-6.6,0-9.9c1.2,1.9,2.3,3.6,3.4,5.2c3.3-2.6,6.2-5.3,9.5-7.5c12.1-7.9,24.6-8.5,37.4-1.6c1.4,0.8,3.2,1.2,4.8,1.2
			c21.1,0.1,42.3,0,63.4,0.1c2.5,0,4.4-0.4,5.9-2.6c1.1-1.7,2.4-3.2,4.1-4.3c-3.9,10.1-2.9,19.5,2.3,28.5
			c5.3,9.1,13.9,13.1,24.6,14.6c-18.2,2.8-32.9-10.3-32.7-30.4c-2.2,4-2.4,11.2-0.5,18.1c5.6,21,26.2,22.7,37.1,16.3
			c5.7-3.3,8.8-8.4,10-15.3c-1.9,0.7-3.3,1.3-4.8,1.7c-13.9,3.7-29.6-8.3-29.5-22.8c0-11,7.4-17.1,18.2-15.5
			c10.9,1.6,20.6,6.3,30,11.5c9,5,17.8,10.4,26.6,15.7c1,0.6,2.1,1.2,3.2,1.6c-6.8-9.5-10.9-20.8-20.2-28.5c1.8,1.6,3.6,3.3,5.5,4.9
			c1.9,1.6,3.8,3.3,5.9,4.6c2.1,1.3,4.6,2.3,7.3,3.6c-3.3-9.9-6.4-19.1-9.4-28.4c5.2,11.1,16.1,15.2,25.8,20.6
			c1.4-4,0.4-7.8-0.9-11.6c-1.3-3.6-2.1-7.4-2.9-11.2c3.5,11.6,8.7,22,18.9,29.8c0.9-5.9-3.7-10.2-3.2-15.5
			c2.9,11.3,10.4,19.4,18.8,27.3c0.4-1.2,0.7-2.2,1-3c3.2,3,6.4,6.2,9.7,9.3c0.3-0.3,0.6-0.5,0.9-0.8c-0.3-0.7-0.5-1.3-0.9-2
			c-1.8-3.2-3.6-6.5-5.6-9.6c-1.2-1.7-2.6-3.3-4.3-4.7c-3.1-2.7-4.9-5.6-3.9-9.9c0.3-1.3,0.2-2.8-0.3-4.1
			c-4.4-12.8-7.6-25.8-9.6-39.1c-0.1-0.9-0.1-1.8-0.2-2.7c-0.5-3.2-0.1-6.5-3.8-8.7c-2.8-1.7-2.5-6.4,0.5-8.6
			c2.7-1.9,5.9-3.2,9.1-4.1c2.3-0.6,5-0.1,8.5-0.1c-5.6,1.9-9.4,4.4-8.1,10.5c0.8,0.1,1.6,0.3,2.5,0.4c1.2,6,2.5,12,3.7,18.1
			c-8.6,4.4-6.9,3.6-4.7,11.9c1.7,6.2,3.9,12.3,6,18.7c3.2-2.1,6-3.9,8.6-5.6c-1.6,2.6-3.6,5.1-4.8,7.9c-1.3,3-1.3,6.2,0.4,8.6
			c2-3,3.9-5.9,5.9-8.9c0.3,0.2,0.6,0.4,1,0.7c-0.5,0.6-1.1,1.2-1.6,1.9c-3.3,5.1-4,7.3-0.9,11.6c3,4.1,5.7,8.4,8.6,12.7
			c0.5,0.8,1.2,1.5,1.8,2.2c0.3-0.2,0.6-0.3,0.9-0.5c-0.3-0.8-0.5-1.7-1-2.4c-2.6-3.9-5.3-7.8-7.6-11.9c3.5,3.4,7,6.7,10.6,10.1
			c3.2-3,6.2-5.8,9.2-8.7c-4.4,6.3-9.7,12.2-4.4,21.3c2.2-5,4.2-9.3,9.5-12.2c-4.2,4.5-6.3,9.1-5.9,14.5c0.1,1.3,0.8,2.9,1.7,3.8
			c10.6,9.2,22.9,14.9,36.4,18c23.8,5.5,47.3,5.1,70.5-3.2c1.1-0.4,2.2-0.9,3.6-1.5c-1.1-1.6-2-3.2-3.2-4.4c-0.5-0.5-2-0.5-2.8-0.1
			c-8.4,3.7-17.1,6-26.2,7c-11.4,1.4-22.8,0.6-33.9-2c-7.6-1.8-15.1-4.2-22.5-7.1c6.7,1.1,13.4,2.6,20.2,3.3
			c6.8,0.7,13.8,1.3,20.6,1c6.9-0.3,13.9-1.3,20.7-2.9c6.6-1.5,13-4.2,19.2-6.2c-1.5-6.6-2.8-12.4-4.1-18.2
			c-28.9,12.5-57.3,12.4-84.8-5.4c1.7-0.1,3.3-0.1,5.8-0.3c-1.7-3.5-3.1-6.5-4.5-9.3c6.1,0.2,10.5,4.1,11.7,10.3
			c0.2,1.1,1.2,2.6,2.3,3c12.4,5.1,25.4,6.8,38.7,5.3c9.4-1,18.1-3.8,26.2-8.6c1.6-0.9,2.4-2,2.6-3.9c0.8-7.6,4.6-13.4,11.6-16.6
			c2-0.9,2.7-2,2.7-4.2c0-6.8,3.2-12.1,8.9-15.7c2.1-1.3,2.3-2.5,1.6-4.6c-1.8-5.8-5.5-10.3-9.3-14.9c-4.8-5.6-9.4-11.4-13.7-17.4
			c-1.4-1.9-2.1-4.6-2.5-7c-1.2-8.1,1.6-12.9,9.2-16.1c8.7-3.7,17.9-4,27.1-3.6c42.6,1.8,80.9,16.2,115.6,40.5
			c7.3,5.1,13.9,11.2,18.5,19c3.7,6.3,5.1,12.9,0.4,19.4c-2.9,4-7.3,6-12,6.8c-8.1,1.5-16.3,2.6-24.5,3.7c-9.1,1.1-18.3,1.5-27,4.9
			c-2.3,0.9-3.4,2.1-3,4.8c1.3,9.4-2.5,16.5-11.1,20.4c-3.6,1.7-7.7,2.5-11.7,3.4c-1.5,0.3-2.4,0.6-2.3,2.3
			c0.4,13.4-10.3,21.6-23.4,21.8c-3,0.1-5.5,0.8-8,2.4c-12.3,7.7-26,11.8-40.2,14.5c-1.4,0.3-2.9,0.6-4.3,1
			c7.4,0.8,14.5-0.6,21.6-2.3c9.2-2.2,17.8-5.9,25.5-11.4c0.9-0.6,2.1-0.9,3.3-1c4.6-0.8,9.4-0.9,13.8-2.2
			c9.2-2.8,14.8-10.4,15.4-20c0-0.7,0.1-1.4,0.1-1.6c3.4-1.1,6.7-1.7,9.6-3.1c12.9-6.3,13.1-6.5,23.3-19.7c-0.7,1.6-1.5,3.2-2.2,4.8
			c-0.7,1.6-1.2,3.2-1.9,4.7c0.4,0.3,0.8,0.6,1.2,0.9c5.6-5.5,11.2-11,15.7-15.4c-0.4,2.2-1,6.1-1.7,10.4c10.2-4,20.6-6.2,27.1-15.4
			c-1.2,3.1-2.3,6.2-3.5,9.3c0.2,0.2,0.3,0.3,0.5,0.5c0.9-0.5,1.8-0.9,2.7-1.5c11.3-6.5,22.6-13.3,35.4-16.6c4-1,8.3-1.6,12.3-1.1
			c7,0.8,11,5.7,11.6,12.8c1.1,12.4-7.9,23.7-20.3,25.5c-5,0.7-5,0.7-13.4-1.7c-0.1,7.4,6.7,15.5,15.2,17.3
			c18,3.8,30.8-6.5,32.4-24.7c0.4-4.1,0.6-8.3-1.6-12.7c1,19.2-13.5,33.7-31.7,31c10.1-1.6,18.7-5.7,23.9-15
			c5-8.9,5.8-18.2,1.8-28.1c1.7,1.7,3.4,3.5,5.2,5.1c1,0.8,2.3,1.7,3.5,1.7c21.9,0.1,43.9,0.1,65.8,0c1,0,2.1-0.1,2.9-0.6
			c17.1-10.1,33.6-5.1,46.2,7c0.5,0.5,1,0.9,1.7,1.6c1.2-1.9,2.4-3.7,3.7-5.8c-0.3,3.3-0.5,6.2-0.8,9.2c0.2,0.1,0.4,0.1,0.6,0.2
			c2.5-3.3,4.9-6.7,7.4-10c0.2,0.1,0.4,0.3,0.6,0.4c-1.6,3.1-3.2,6.1-4.8,9.2c-1.4,2.6-1.1,4.9,1.7,7c2.8-6.9,5.8-13.6,12.4-17.8
			c-4.2,5.6-7.3,11.6-8.8,18.4c-1,4.9-0.9,5.8,2.7,12.3c0.9-8.8,3.8-16.3,8.5-23.2c4.7-6.8,10.7-12.4,17.7-17
			c-10.2-3.2-19.8-1.6-29.1,3.1c-0.2-0.2-0.5-0.4-0.7-0.6c0.4-0.1,0.9-0.2,1.3-0.4c0.4-0.2,0.6-0.5,1-0.7
			c16.3-12.2,40-12.4,55.7-0.4c20.7,15.9,16.7,46.4-3.2,57.5c-13.5,7.5-29.7-0.4-32.6-15.5c-1.2-6.3-0.1-11.9,3.5-17.1
			c0.4-0.6,0.8-1.1,1.3-1.6c0.2-0.3,0.6-0.4,1.3-1c-2.6,7.1-3.1,13.6,1.1,20.6c0.5-2.7,0.8-4.6,1.2-6.6c0.9,6.2,1.8,12.1,9,14.9
			c-0.9-3.4-1.7-6.3-2.5-9.2c2.2,2.5,4.1,5.3,6.5,7.5c2.5,2.3,5.5,2.4,8.6,0.8c5.2-2.5,9.5-7.4,10.8-13c-7.7,4.1-14.9,3.7-21.7-1.2
			c-5.2-3.7-8.4-8.7-9.3-14.6c0.4,0.7,0.8,1.2,1.1,1.6c2.3,3.4,5.7,5,8.9,4.3c3.7-0.8,5.6-3.1,6.3-6.8c0.6-3.6-0.9-7.3-4-9.3
			c-4.6-3-9.5-2.5-14.3-0.7c-8.2,3.2-13,9.7-16.6,17.3c-5.3,11.5-5.9,23.7-4.7,36.1c0.5,4.7,1.4,9.4,2.1,14.5c5,0,9.6,0,14,0
			c-1.6,5.3-3.6,10.1-4.5,15.1c-0.8,4.5-0.2,9.1-0.4,13.7c0,1-0.1,2.2-0.7,2.9c-7.3,8.5-9.2,18.4-7.5,29.2c0.1,0.7,0.1,1.4,0.2,2.3
			c-5.8-10.1-8.8-41.2,7-59.1c-5.9-0.8-10.9,0.7-15.5,3.6c-6.8,4.2-12.1,12.5-9.7,30.5c-2.6-5.1-3-10.2-3.2-15.4
			c-0.5-8.9-0.4-17.7-1.2-26.6c-0.6-7-2-14-3-21c3.9,11,5.5,22.5,6.8,34.1c0.4,0.1,0.7,0.1,1.1,0.2c0.3-1.4,1-2.9,1-4.3
			c-0.8-15.7-3.7-31-8.8-45.9c8.2,13.6,11,28.8,12.3,44.5c1.8-0.4,3.7-0.5,3.6-3c-1.1-19.9-4.4-39.1-16.1-55.9
			c-6.1-8.9-14.1-15.3-25.3-16.6c-3.4-0.4-7,0.1-10.5,0.2c0,0.3,0,0.5,0,0.8c2.8,1.9,5.9,3.5,8.4,5.8c7.8,7,11.3,16.4,13,26.4
			c1.4,7.8,2.1,15.8,2.5,23.8c1.4,31.4,8.1,61.2,25.8,87.9c10,15,21.9,28.3,35,40.6c16,15.1,32.5,29.8,48.3,45
			c11,10.6,20.6,22.3,27.5,36.1c0.4,0.8,0.7,1.6,1.2,2.6c-13.9,6.5-16,19.2-17.1,33.1c-2-9.8-4.8-18.5-10.3-26
			c-3.2-4.4-6.9-8.6-10.7-12.5c-5.3-5.6-10.9-10.8-13.6-18.5c-9.9,16-13.5,45.2,13.8,71.3c-10.3-3.9-20.3-5.2-30.3-0.6
			c-4.8,2.2-8.8,6.1-10.9,10.6c2.9,0.2,5.7,0.5,8.5,0.7c14.3,1.4,26.4,7.7,37,16.9c16.4,14.2,25.8,32.3,28.1,53.9
			c3.1,29-2.2,56.3-17.7,81.2c-3.2,5.2-7.4,9.8-11.4,14.4c15.4-20.2,22.2-43,22.7-68.2c-4.3,7.2-8.1,14.4-12.7,21
			c-4.7,6.8-11.2,11.9-18.6,16.8c0.3-3.2,0.5-5.9,0.7-8.6c1.1-12.3,0.7-24.6-0.9-36.8c-1-7.4-2-14.8-2.7-22.2
			c-0.2-2,0.3-4.2,0.9-6.2c1.7-6,5.9-8.8,13.3-8.5c-7.1,4.1-9.8,10.2-9.3,17.8c2.7-8.3,8-14.1,16.1-17.2c-7.3-8.9-26-9.9-35.2,2.5
			c-3.2-5.9-7.9-10.2-13.2-14c-5.2-3.8-10.6-7.1-16.5-8.5c-0.9,10-1.8,19.8-2.5,29.6c-0.2,2.5,0.4,5.2,0.9,7.7
			c0.8,4.1,2.1,7.5,6.8,9.1c2.6,0.9,4.6,3.5,6.7,5.8c-8.1-4.4-16.2-6.6-24.5-1.3c-5.6,3.5-7.9,9-8.3,15.8c0.7-0.4,1.2-0.5,1.6-0.9
			c12.8-12.3,31.1-8.3,39.3,6c2.8,4.9,4.5,10.7,5.5,16.3c1.9,11.5,0.2,22.7-4.7,33.3c-0.3,0.7-0.7,1.3-1.3,1.9
			c2.9-8.6,4.7-17.3,4.5-26.4c-0.2-7.4-1.2-14.7-5.1-21.3c-6.1-10.4-17.7-15.6-29.4-13.1c-0.8,0.2-1.6,0.5-2.9,1
			c3,0.5,5.5,0.6,7.8,1.3c9.9,2.7,17.8,12.8,19.4,23.7c2.3,16.2-3.8,28.6-16.9,37.7c-15,10.4-31,12.2-47.5,4.1
			c-11.4-5.6-15.8-18-10.3-28.2c4.1-7.6,13-10.1,20.7-5.6c-0.9,0.2-1.7,0.4-2.9,0.7c1.2,1.3,2.1,2.4,3.2,3.5c-2.6,0.3-4.9-4.1-8-0.4
			c1.9,1,3.6,1.7,5.2,2.7c1.5,0.9,2.8,2.1,4,3.6c-2.7-1.3-5.3-2.7-8.1-3.8c-0.8-0.3-1.9,0.1-2.9,0.2c0.6,0.7,1.2,1.6,1.9,1.9
			c5.4,2.2,10.2,5.1,12.1,11.1c-3.2-3.9-7-6.8-12-8.1c-0.5-0.1-1-0.4-1.4-0.4c-0.8,0.1-1.5,0.4-2.3,0.7c0.5,0.6,1,1.6,1.6,1.8
			c4.3,1.3,8.2,3.3,11,6.9c1.8,2.3,2.9,5.1,4.5,8c3.3-3,4.9-7,5.5-11.4c1.7-12.7-6.8-23.8-20.5-27.1c-19.4-4.7-38.2,7.6-42.1,27.5
			c-0.6,2.8-0.7,5.7-0.4,8.7c1.6-4.4,3.3-8.8,4.9-13.2c0.2,0.1,0.5,0.2,0.7,0.2c-1.8,8.6-3.6,17.1-5.5,26.3
			c4.3-3.1,5.3-7.2,6.7-11.9c0.2,5.5-0.7,10-3.2,14.2c-2.5,4.4-7.4,5.1-12,7.4c8.9,2.9,15.7-2.8,18.6-14.4
			c2.3,11.8-8.4,20.8-20.3,17.2c-1.8-0.6-3.8-0.8-6-1.2c2.8,6.4,15.4,7.2,24.3,2.2c-1.2,2.4-4.3,4.7-7.6,5.2
			c-7.2,1.1-13.7-0.2-19.1-5.5c-0.7-0.7-1.8-1.2-2.6-1.8c-0.3,0.2-0.5,0.5-0.8,0.7c0.7,1.1,1.2,2.3,2.1,3.3c6,6.7,13.6,9.6,22.4,7.6
			c9.3-2.1,13.7-9.2,15.7-17.9c1.1-4.7,1.3-9.6,1.8-14.1c6,6.7,14.4,10.3,23.1,13.3c-7.6-0.7-14.5-3.4-20.9-7.9
			c-0.9,2.9,0.3,4.4,2.5,5.6c17.2,9.2,35.1,12.1,54,6.4c0.2,0,0.3,0,0.9,0.1c-9.4,4.6-19.1,5.7-29.1,4.4c-9.8-1.2-18.9-4.4-27.7-8.7
			c-0.9,2.3-0.1,3.4,1.7,4.3c13,6.3,26.6,9.8,41.1,8.7c12.3-0.9,23.2-5.5,32.7-13.5c0.6-0.5,1.2-0.9,1.9-1.2
			c-3.7,5.7-8.8,9.9-14.9,12.8c-10.3,5-21.1,6.1-32.4,5c-10.7-1-20.9-3.8-30.6-8.6c-1.4,2.1,0,2.7,1.4,3.4
			c9.7,4.7,19.7,7.9,30.5,8.9c13.2,1.2,25.8-0.6,37.3-7.1c16.7-9.3,25.6-24.3,29.5-42.5c4.5-20.8,1.3-40.9-6.2-60.5
			c-0.3-0.8-0.6-1.6-0.5-2.7c1,1.9,2,3.8,3,5.7c7.8,15.6,11.7,32.1,10.1,49.5c-2,21.7-10.4,40.3-28.1,53.8
			c-3.6,2.7-7.8,4.6-11.5,7.1c26.8-3.8,39-22.7,46.9-46.1c-0.1,0.5-0.2,0.9-0.3,1.4c-0.1,0.5-0.2,1-0.4,2.2c2.3-1.1,4.2-2,6.1-3
			c0.1,0.1,0.2,0.2,0.3,0.3c-1.6,1.3-3,2.9-4.8,3.9c-2.3,1.2-2.8,3.1-2.9,6c4.7-3,8.9-5.7,13.1-8.5c0.2,0.2,0.3,0.5,0.5,0.7
			c-4.3,3.2-8.4,6.6-12.8,9.5c-2.7,1.7-3.2,4.2-4.3,6.6c0.2,0.2,0.4,0.5,0.6,0.7c4.5-3,9-6,13.5-9c0.1,0,0.2,0.1,0.3,0.1
			c-0.6,0.7-1.1,1.6-1.9,2.2c-4.7,3.7-9.5,7.2-14.3,10.9c-1.3,1-2.4,2.4-3.7,3.6c0.2,0.3,0.4,0.6,0.7,0.9c2.9-1.3,5.9-2.5,8.8-3.8
			c0.1,0.1,0.2,0.2,0.3,0.3c-2,1.4-4,3-6.1,4.3c-2.2,1.4-4.7,2.3-6.8,3.8c-2.1,1.4-3.9,3.3-5.8,4.9c0.1,0.3,0.3,0.5,0.4,0.8
			c1-0.4,2.1-0.6,3.1-1.1c34.7-15.2,57-41.6,69.2-77c3.6-10.6,5.5-21.6,6.2-32.8c1.5-25.2-4.5-48.3-18.1-69.6
			c0.5,0.6,1.1,1.1,1.5,1.7c0.5,0.6,1,1.3,1.5,1.9c11.8,15.3,19.3,32.3,21.5,51.5c2.7,23.6-1.9,46-11.1,67.7
			c-1.4,3.3-2.9,6.5-4.4,9.8c0,0.1,0,0.2,0.1,1c1.3-1.4,2.4-2.3,3.3-3.5c4.9-6.7,7.9-14.3,10.3-22.1c3.7-11.9,6.2-24.1,6.9-36.6
			c1.2,2.3,1.4,6.8,0.4,15.9c-0.6,5.4-1.4,10.8-2.1,16.1c0.2,0.1,0.5,0.2,0.7,0.2c1.5-4.9,3.2-9.7,4.4-14.7
			c4.2-17.4,3.4-34.8-0.1-52.2c-0.4-1.9-0.5-4-0.4-5.9c0.2-18.9-1.3-37.7-4.7-56.3c-0.1-0.5,0-1.1,0.6-1.8
			c1.7,8.3,3.9,16.5,4.9,24.8c1.2,9.9,1.3,19.9,2,29.9c0.2,3.3,0.4,6.7,0.7,10c0,0.4,0.4,0.8,1,1.9c3.9-23.5,0.9-45.9-2.9-68.4
			c0.8,2.4,1.6,4.8,2.3,7.3c0.7,2.6,1.3,5.2,1.9,7.8c4,17.9,4.2,36.1,3.5,54.3c-0.1,3.4-0.9,6.7-1,10.1c0,4.7,0.3,9.4,1,14.1
			c9.9-41.6,6.1-82.3-8.3-122.3c-12.6-0.2-21.8,11.8-20.2,26.4c1.5-2.6,2.9-4.8,4.7-7.9c6.5,19.1,8,38.1,9.7,57.1
			c-1.3-3.7-2.5-7.4-4-11c-4.3-9.9-8.9-19.6-13.1-29.5c-3-7-4.8-14.4-4.5-22.1c0.1-3.3,0.7-6.8,1.8-9.9c3-9,10.7-12.7,19.8-9.7
			c1,0.3,2,0.7,4,1.3c-3.2-7.2-5.9-13.5-8.9-19.8c-9.8-20.3-23.1-38.3-37.2-55.8c-5.1-6.3-9.7-13.2-13.8-20.3
			c-3.6-6.2-3.4-13.1-0.5-19.6c3.7-8.4,10.6-12.1,19.7-10.9c-1.1,4.5-2.2,9.1-3.1,13.6c-1.8,8.9-0.1,17.4,4.1,25.2
			c5.8,10.6,12.2,20.9,18.4,31.2c17,28,31.4,57.2,39.7,89.1c3.7,14.1,6.1,28.4,7.1,43c1.9,27.8-1.3,54.9-11.7,80.8
			c-19.2,47.8-52.7,80.8-102.3,96.5c-14.8,4.7-30.1,6.5-45.5,5.7c-18.6-1-36.4-5.6-53-14.3c-0.4-0.2-0.9-0.4-1.5-0.6
			c-1,1.3-1.9,2.6-2.9,3.8c-7.4,8.4-18.7,10.9-30.8,6.7c-9.4-3.2-16.9-9-22.8-16.8c-1.5-2-3-2.7-5.5-2.7c-175,0.1-349.9,0.1-524.9,0
			c-2.3,0-3.8,0.7-5.2,2.6c-7,8.9-15.6,15.5-26.8,18c-11.9,2.6-22-0.2-29.1-10.8c-0.2-0.3-0.3-0.5-0.3-0.5c-7.3,2.9-14.2,6-21.3,8.4
			c-14.9,5.1-30.3,7.2-46,6.3c-42.8-2.7-77.9-21.2-106-53.3c-20.9-23.9-33.6-51.8-38.7-83.1c-1.2-7.3-1.7-14.7-2.5-22
			c-0.1-1-0.4-2.1-0.6-3.1C93.1,600.8,93.1,595.7,93.1,590.7z M430.4,509.6c1.1,2.3,1.8,3.8,2.6,5.3c3.5,6.5,4.8,13.5,4.9,20.8
			c0.1,22.1,0.1,44.3,0,66.4c0,7.3-1.4,14.5-5.1,21c-0.7,1.3-1.3,2.8-2.1,4.3c17.1,0,33.8,0,51.2,0c-9.7-14.5-7.5-30.3-7.7-45.8
			c5.8-0.7,8.9-0.1,12.9,3.2c2.1,1.7,4,3.7,5.5,5.9c5.7,8.5,11.2,17.3,16.9,25.9c5,7.6,11.9,11.4,21.2,11.1
			c10.8-0.3,21.6-0.1,32.4-0.1c0.9,0,1.9-0.1,2.9-0.1c-0.2-0.4-0.2-0.7-0.3-0.8c-0.5-0.5-1.1-0.9-1.6-1.3
			c-6.5-4.8-11.9-10.6-16.3-17.4c-3.3-5.1-6.7-10.2-10.1-15.3c-5.2-7.8-11.3-14.7-20.1-18.8c-0.2-0.1-0.3-0.5-0.3-0.4
			c3-1,6.2-1.7,9-3.1c11-5.4,16-14.8,16.6-26.5c0.8-13.9-6.1-27.3-21.8-31.5c-5.8-1.6-12-2.2-18-2.3c-20.7-0.3-41.4-0.2-62.2-0.2
			C437.8,509.6,434.5,509.6,430.4,509.6z M738.3,631.9c2.7-0.3,7.4-0.6,12-1.4c31.4-4.9,56.6-30.2,53.8-66.6
			c-1.7-22.6-12.7-39.2-32.5-49.8c-15.8-8.5-32.9-10.1-50.3-6.9c-15.8,2.9-29.4,10.2-39.6,23c-10.8,13.6-14.5,29.3-12.5,46.4
			c1.4,12.4,5.9,23.4,14.2,32.7C697.5,625.1,715.7,631.4,738.3,631.9z M632.1,735.7c95.9,0,191.8,0,287.8,0c0.9,0,1.8,0,2.7,0
			c3.6-0.2,7.2-3,8.1-6.5c0.9-3.5-0.4-7.7-3.7-9.4c-2.2-1.1-4.9-1.7-7.4-1.7C728.2,718,536.8,718,345.3,718c-1.2,0-2.4-0.1-3.6,0.1
			c-5.9,0.5-9.7,6.6-7.6,12c1.4,3.6,4.8,5.6,9.7,5.6C439.9,735.7,536,735.7,632.1,735.7z M919.3,471.4c18.9,0,37.3,0,56.5,0
			c-1.2-1.5-2-2.6-2.9-3.6c-4.7-5.3-8.2-11.2-10.9-17.8c-12.9-31.3-25.9-62.5-38.8-93.7c-1-2.4-2.2-3.2-4.8-3.2
			c-12.5,0.2-25,0.1-37.5,0.1c-1.1,0-2.2,0-3.6,0c0.6,1.5,0.9,2.6,1.4,3.6c2.4,5.4,2.6,10.7,0.4,16.3c-8.9,22.8-17.6,45.6-26.4,68.4
			c-4,10.5-8.1,20.9-16.3,29c-0.1,0.1,0,0.5-0.1,0.9c12.1,0,24.2,0,36.5,0c-0.5-1.3-0.8-2.3-1.2-3.3c-1.7-4.6-2.6-9.3-1.1-14.1
			c1.1-3.4,2.3-6.8,3.6-10.1c0.3-0.8,1.5-1.6,2.4-1.6c13.1-0.1,26.2-0.1,39.3,0c0.8,0,2,0.7,2.3,1.3c4.1,8.3,6.4,16.8,2,25.8
			C919.7,469.9,919.6,470.5,919.3,471.4z M616.6,471.5c0.9-9.6,1.8-18.9,2.7-28.9c-1.7,1-2.8,1.7-3.8,2.4c-6.1,4-12.8,5.9-20.1,5.8
			c-10.2-0.1-20.4,0-30.6,0c-1.1,0-2.1,0-3.3,0c0-11.2,0-21.9,0-32.8c13.6-0.4,27.1-1.5,38.7,8.6c0-1.8,0.1-2.6,0-3.4
			c-0.7-7.5-1.6-15.1-2.1-22.6c-0.2-2.5-0.9-3.3-3.4-3.2c-9.9,0.1-19.8,0.1-29.7,0c-1.2,0-2.3-0.1-3.4-0.2c0-7.9,0-15.5,0-23.3
			c10.2,0,20.2,0,30.2,0c6.1,0,11.8,1.6,17.1,4.7c1.8,1,3.5,2.1,5.8,3.4c-0.9-9.9-1.8-19.2-2.7-28.5c-32.3,0-64.2,0-96.7,0
			c0.9,1.9,1.5,3.5,2.3,5.1c3,5.9,4.6,12.1,4.6,18.7c0,21.6,0,43.3,0.2,64.9c0.1,9.6-1.2,18.7-6.2,27.1c-0.4,0.6-0.4,1.4-0.7,2.3
			C549.3,471.5,582.8,471.5,616.6,471.5z M327.3,598.1c13.6,0,27.1,0,40.7,0.1c0.8,0,2.1,0.8,2.5,1.5c4.1,8.5,6.5,17.2,1.9,26.4
			c-0.2,0.3-0.2,0.7-0.3,1.2c18.7,0,37.2,0,56.2,0c-5.9-6.4-10.5-12.9-13.6-20.5c-12.9-31.3-25.9-62.5-38.8-93.8
			c-1.1-2.6-2.3-3.6-5.2-3.5c-12.5,0.2-25,0.1-37.6,0.1c-1,0-2.1,0.1-3.5,0.2c0.6,1.4,1,2.4,1.5,3.4c2.3,5.3,2.6,10.5,0.5,16
			c-9.7,24.8-19.1,49.7-28.8,74.5c-3.1,7.9-6.6,15.7-13,21.7c-0.5,0.5-0.8,1.2-1.3,2c12.3,0,24.4,0,37.1,0
			C319.1,616.9,323.3,607.7,327.3,598.1z M966.3,541.3c0-8.5-0.2-16.2,0.1-23.9c0.1-2.8-0.9-4-3.4-5c-14.4-5.2-29.1-6.5-44.2-4.8
			c-16,1.8-33.3,13-35.8,32.9c-1.5,12.1,0.9,23.1,11.6,30.5c5.6,3.9,11.8,7,18,10c6.7,3.1,13.7,5.4,20.5,8.4
			c3.7,1.6,6.2,4.6,6.1,8.9c-0.1,4.5-2.5,7.7-6.5,9.7c-5.5,2.7-11.3,2.4-17,1.5c-11.2-1.8-20.2-7.7-28.2-15.4
			c-0.9-0.9-1.9-1.7-3.4-3c0,9.9,0.1,19-0.1,28.1c0,2.3,0.8,3.3,2.9,4.1c8.8,3.4,17.8,5.8,27.2,6.7c11.2,1,22.3,1.1,33.2-2.5
			c20.6-6.8,30.7-23.6,27.1-45c-1.8-10.5-7.8-18-16.8-22.8c-7.8-4.1-16.3-7-24.4-10.5c-4.1-1.8-8.5-3.1-12.2-5.6
			c-6.1-4.1-5.4-12.2,1.4-15.2c3.4-1.5,7.5-2.4,11.3-2.3c9.5,0.4,18.1,3.9,25.7,9.6C961.3,537.4,963.5,539.1,966.3,541.3z
			 M307.5,435.1c0,9.7,0.1,19-0.1,28.3c0,2.2,0.8,3.1,2.8,3.8c17,6.6,34.5,8.9,52.6,5.8c11.7-2,21.8-7,28.9-17
			c5.4-7.6,6.8-16.1,6.2-25.3c-0.6-9.5-4.3-17.3-11.7-23.4c-6.4-5.3-14-8.3-21.7-11.3c-6.4-2.5-12.9-4.7-19.1-7.6
			c-3.5-1.6-5.7-4.7-5.3-9c0.5-4.3,3.1-6.8,7-8.1c1.5-0.5,3.1-0.9,4.6-1c13.4-1.2,24.6,4,34.6,12.4c0.8,0.7,1.7,1.4,3.1,2.4
			c0-9.2,0.1-17.5-0.1-25.9c0-0.8-1.2-1.9-2.1-2.3c-8-3.3-16.4-5.2-24.9-5.8c-10-0.7-20-0.8-29.6,2.6c-18.8,6.6-28.8,22.5-26.2,42.2
			c1.3,10,7,17.3,15.6,21.8c8.6,4.5,17.8,7.9,26.7,12c3.3,1.5,6.9,2.9,9.8,5.1c5.3,4,5.2,11.5-0.3,15.3c-2.7,1.8-6.1,3.1-9.3,3.4
			c-11.3,1.2-21.3-2.6-30.3-9.1C314.9,441.7,311.5,438.4,307.5,435.1z M628.1,529.7c6.2,0.5,12.4,0.2,18.2,1.7
			c5.8,1.5,11.2,4.7,16.9,7.3c-0.9-9.4-1.8-19-2.7-28.7c-1.2-0.1-2-0.2-2.8-0.2c-32.7,0-65.5,0-98.2-0.1c-2.5,0-3,1.2-3.2,3.2
			c-0.4,4.4-0.8,8.7-1.2,13.1c-0.4,4.3-0.7,8.7-1,12.7c5.6-2.5,10.9-5.8,16.8-7.3c5.9-1.5,12.2-1.2,18.4-1.7
			c0.1,1.7,0.2,2.6,0.2,3.5c0,23.3-0.1,46.6-0.1,70c0,6.4-1.3,12.5-4.1,18.2c-1,1.9-1.8,3.9-2.9,6c17.6,0,34.8,0,52.4,0
			c-0.9-1.8-1.5-3.3-2.3-4.8c-3-5.9-4.6-12.1-4.6-18.7c0-23.6-0.1-47.2-0.1-70.9C627.9,532.1,628,531.3,628.1,529.7z M401,382.7
			c0.2,0.2,0.3,0.5,0.5,0.7c9.6-8.9,21-10.6,33.5-9.3c0,1.1,0,2,0,3c0,22.9,0,45.8,0,68.8c0,7.4-1.5,14.4-5,21
			c-0.7,1.4-1.3,2.8-2,4.4c17.7,0,34.9,0,52.6,0c-0.9-1.9-1.7-3.4-2.4-4.9c-2.9-5.8-4.5-11.9-4.5-18.4c0-23.8-0.1-47.6-0.1-71.5
			c0-0.9,0.2-1.7,0.2-2.5c12.4-1.2,23.7,0.6,33.2,9.4c0.2-0.2,0.4-0.4,0.6-0.7c-0.9-9.7-1.8-19.4-2.7-29.2c-1.2-0.1-2.1-0.2-2.9-0.2
			c-31.7,0-63.5,0-95.2-0.1c-2.5,0-3.3,0.9-3.5,3.2c-0.3,4.4-0.8,8.7-1.1,13.1C401.6,374.1,401.4,378.4,401,382.7z M788.6,353.6
			c-17.9,0-35.4,0-53.3,0c0.7,1.4,1.2,2.5,1.8,3.5c3.8,6.9,5.5,14.3,5.5,22.1c0,22.1,0,44.3,0,66.4c0,7.6-1.5,14.8-5.2,21.6
			c-0.7,1.3-1.3,2.6-2.1,4.3c1.5,0.1,2.5,0.2,3.6,0.2c30.2,0,60.5,0,90.7,0.1c2.8,0,3.7-0.9,3.9-3.5c0.5-6,1.2-11.9,1.7-17.9
			c0.3-2.8,0.4-5.7,0.7-9.1c-1.9,1.2-3.4,2-4.7,2.9c-6.6,4.5-13.8,6.8-22,6.5c-7.7-0.3-15.4-0.1-23.1-0.1c-1.4,0-2.7,0-4.2,0
			c-0.1-1.1-0.2-1.7-0.2-2.4c0-23.1,0-46.3,0-69.4c0-7.9,1.7-15.2,5.5-22.1C787.7,355.8,788,354.8,788.6,353.6z M627.1,471.4
			c32.7,0,65.1,0,97.7,0c1-10,1.9-19.8,3-30.3c-1.5,1-2.4,1.5-3.2,2.1c-6,4-12.3,7.5-19.9,7.5c-9.7,0-19.4,0-29.1,0
			c-0.8,0-1.5-0.1-2.4-0.2c0-0.8-0.1-1.4-0.1-1.9c0.1-22.9,0.4-45.8,0.3-68.7c0-8.4,1.7-16.2,5.7-23.6c0.4-0.8,0.7-1.7,1.2-2.6
			c-17.9,0-35.4,0-53.1,0c0.4,0.9,0.6,1.6,0.9,2.1c4.8,8.2,6.4,17.1,6.3,26.4c-0.1,21.1,0,42.2-0.1,63.4c0,7.5-1.4,14.7-5,21.3
			C628.6,468.2,628,469.6,627.1,471.4z M690.4,141.8c-8.7,0-16.1,0.7-23.1,3.3c-9.9,3.7-12.8,11-8.2,20.5
			c3.6,7.4,9.5,12.8,15.8,17.8c13.7,10.8,29.1,18.6,45.2,25c23,9.2,46.6,16.1,71.8,14.6c5.6-0.3,11.3-1.6,16.5-3.5
			c9.5-3.6,11.7-10.4,7.2-19.5c-3.9-7.8-10.1-13.6-16.8-18.9c-17.1-13.3-36.5-22.1-56.8-29C724.8,146.2,707.3,142.2,690.4,141.8z
			 M815,509.9c5.6,8.8,7.6,18,7.6,27.6c0,21.6,0.1,43.2-0.1,64.8c0,6.6-1.2,13.1-4.3,19.1c-1,1.8-1.8,3.7-2.8,5.8
			c17.6,0,34.8,0,52,0c0-0.3,0.1-0.5,0-0.7c-0.2-0.5-0.3-0.9-0.6-1.4c-4.9-8.1-6.2-17.2-6.2-26.5c-0.1-20.2-0.1-40.4,0-60.6
			c0-9.1,1.4-17.9,6.1-25.9c0.4-0.6,0.6-1.4,1.1-2.4C850.2,509.9,832.9,509.9,815,509.9z M414.9,232.3c15.6,2.8,29.9,8.9,43.4,17
			c-6.3-2.5-12.4-5.5-18.8-7.4c-8.6-2.6-17.3-4.3-26.1-6.4c-2.2-0.5-3.6,0.5-3.7,3c16.2,1.1,30.9,6.2,44.7,14.1
			c-5.7-1.9-11.4-4.1-17.1-6c-8.6-2.8-17.3-4.8-26.3-5c-1.9,0-3.4,0.3-3,2.6c5.1,0.6,10.2,0.8,15.2,1.8c5,1,9.8,2.6,14.6,4.4
			c4.6,1.7,9.1,4,13.6,6.1c-4.2-1-8.2-2.5-12.3-3.9c-9.4-3.1-19-5.4-29-4.5c-1.3,0.1-2.8,0.1-2.5,2.1c0.3,1.8,1.6,1.5,2.9,1.5
			c4.3,0,8.6-0.2,12.8,0.4c10.6,1.7,20.4,5.9,30.2,10.3c18,8,35.8,16.7,54.7,22.6c3.8,1.2,7.6,2.2,11.4,3.3c0.1-0.3,0.2-0.6,0.4-0.9
			c-1.8-0.9-3.6-2-5.5-2.8c-6.1-2.3-12.2-4.4-18.2-6.7c-2.9-1.1-5.7-2.7-8.6-4c0.1-0.1,0.1-0.2,0.2-0.3c6.3,2.2,12.6,4.5,18.9,6.7
			c0.2-0.4,0.4-0.8,0.6-1.2c-6.3-3.4-12.7-6.9-19-10.3c2.9,0.8,5.7,1.7,8.5,2.8c2.8,1.1,4.9,0,7.5-1.8c-10.9-1.3-18.8-8-28.4-12
			c1.1-0.4,1.7-0.7,2.7-1c-1-0.7-1.8-1.3-2.6-1.8c-6.6-3.8-13.1-7.6-19.8-11.2c-9.7-5.2-19.5-10-30.3-12.7
			C422.1,230.2,418.4,229.8,414.9,232.3z M380.3,251.9c-1.6,0-2.9,0-4.1,0c-18.4,0-36.8-0.1-55.2-0.2c-2.2,0-4.3-0.8-6.5-1.3
			c0-0.4,0-0.9,0-1.3c3.3-0.5,6.6-1.3,9.8-1.3c17.6-0.1,35.2-0.2,52.8,0c3.3,0,4.8-0.9,5.2-4c0.1-0.5,0.2-0.9,0.3-1.4
			c-0.3-0.1-0.5-0.2-0.7-0.2c-23,0-46-0.1-69,0c-3.9,0-7.3,3-8.3,6.7c-1.6,6.1,2.8,11.2,9.7,11.2c21,0,42,0,63,0c1,0,1.9-0.1,3-0.2
			C380.3,257.2,380.3,254.9,380.3,251.9z M884.3,251.9c0,3,0,5.4,0,8c0.6,0.1,1.1,0.2,1.6,0.2c21.7,0,43.4,0.1,65.1-0.1
			c2,0,4.3-1,6-2.2c3.1-2.2,3.9-6,2.7-9.4c-1.4-4-4.7-6.2-9.2-6.2c-21.9,0-43.8,0-65.7,0c-0.9,0-1.7,0.1-2.6,0.1
			c0.4,5.2,0.7,5.5,5.3,5.5c17.5,0,35-0.1,52.5,0.1c3.4,0,6.7,0.9,10.1,1.4c0,0.5,0,1,0,1.5c-3.4,0.4-6.7,1.1-10.1,1.2
			c-17.4,0.1-34.8,0.1-52.2,0.1C886.7,251.9,885.5,251.9,884.3,251.9z M856.8,244.7c0.1-3-1.7-3.2-3.4-3c-6,0.8-12.1,1.3-18,2.6
			c-6.4,1.4-12.6,3.6-18.9,5.4c11.9-6.9,24.9-10,38.5-11.2c-0.7-4.1-3.8-3.4-6-2.8c-8.6,2.1-17.2,4.2-25.6,6.8
			c-5.6,1.7-10.9,4.3-16.3,6.5c13.2-8,27.2-14,43.3-16.6c-3.9-2.7-7.5-2.4-11-1.6c-14.1,3.5-26.8,10.2-39.1,17.6
			c-2.6,1.6-3.8,5.4-5.7,8.2c0.3,0.3,0.6,0.6,0.8,0.9c4.1-1.8,8.3-3.5,12.6-5.4c-4.6,5.8-9.2,11.5-13.8,17.2c1.2,0.1,2-0.2,2.8-0.6
			c9.7-4.2,19.4-8.5,29.2-12.4c7.9-3.1,16.1-5.3,24.7-5.1c1.9,0,3.9,0.4,5.8,0.5c0.5-3.4,0.4-3.8-2.3-3.7c-5.1,0.2-10.4,0-15.4,1.1
			c-8.6,1.9-17,4.8-26.1,7.4c5.5-2.4,10.3-4.7,15.3-6.7C837.2,246.4,846.7,244.3,856.8,244.7z M668.3,224.4c-1.1,0.5-2,0.8-2.8,1.3
			c-7.8,4.6-11.1,12.6-8.5,21.6c4.3,14.7,14.4,24.3,27.7,31c1.9,1,4.1,1.6,6.1,2.3c-8.1-5.3-16-10.5-21.3-18.8
			c0.8,0.3,1.5,0.8,2.1,1.4c5,4.5,10.7,7.7,16.9,10c4.8,1.8,9.9,2.7,15,2.1c2.6-0.3,5-1.5,7.5-2.3c-0.1-0.4-0.2-0.7-0.3-1.1
			c-0.6,0.1-1.3,0.2-1.9,0.2c-0.8,0-1.6,0.1-2.4,0c-13.3-1.2-23.9-7.4-32.2-17.6c-4.5-5.6-7-12.1-4.8-19.3
			C670.9,231.2,669.5,228.2,668.3,224.4z M680.9,206.5c-4.8,2.4-5.4,7-7.3,10.9c-0.2-2.2-0.3-4.4-0.6-7c-2.9,4.3-3.1,8.6-2.2,12.9
			c3.3,16.4,21.7,30,36.6,33.4c-3.9-2.4-8.8-5.1-13.3-8.3c-4.7-3.2-8.4-7.5-11.5-13.1c14.1,11.8,19.3,14.4,34.2,16.2
			c4.6,0.6,9.2,0,13.9-3.2c-1.3-0.1-1.8-0.2-2.4-0.2c-11.3,0.4-21.4-3.2-30.7-9.3c-10.3-6.8-17.3-15.7-16.2-29
			C681.5,208.9,681.1,207.8,680.9,206.5z M721.2,246c0.2-0.4,0.3-0.8,0.5-1.2c-0.8-0.4-1.5-0.9-2.3-1.3c-0.9-0.5-1.8-0.9-2.6-1.4
			c-8.6-5.2-14.2-13-19.1-21.5c-4.2-7.3-8.3-14.8-12.6-22.1c-1.1-1.8-2.8-3.3-4.2-4.9c-0.2,0.1-0.4,0.3-0.7,0.4
			c2.7,6.3,2.8,13,3,19.7c0.1,3.4,1.1,7.2,2.7,10.2c4.3,8,11.5,12.9,19.6,16.5C710.6,242.7,716,244.1,721.2,246z M681.6,290.3
			c0.1-0.4,0.1-0.8,0.2-1.2c-1.9-0.7-4.2-2.4-5.6-1.9c-10,3.8-20.3,6.4-31,7.4c-11.7,1.1-23.3,1-34.9-0.6c-5-0.7-10-1.6-15-2.4
			C624.2,303,653,302.9,681.6,290.3z M982.9,491.5c-7.7,0-13.7,5.8-13.8,13.2c-0.1,7.5,6,13.7,13.6,13.9c7.5,0.1,13.6-6,13.6-13.7
			C996.4,497.2,990.6,491.5,982.9,491.5z M540.3,262.8c-1.8,8.9,1.3,13.2,9.8,14.8c1,0.2,2.1,0.6,2.9,1.3
			c10.6,9.8,23.2,15.7,36.9,19.7c0.7,0.2,1.4,0.1,2.8,0.2c-0.8-0.5-1.1-0.7-1.3-0.8c-0.6-0.3-1.2-0.7-1.9-0.9
			c-12.2-4.8-23.2-11.6-33.1-20.1c-1.6-1.3-3.7-2.3-5.7-2.8c-5.2-1.4-8.7-4.3-9.8-9.7C540.7,263.8,540.5,263.3,540.3,262.8z
			 M672.1,234.3c-4.5,11.2,11.5,33,23.2,32.4c-5.3-4.2-10-9-12.3-15.2C680.5,244.9,675.3,240.6,672.1,234.3z M507.5,253
			c0.3,0,0.6,0.1,0.9,0.1c0.4-1,1.3-2,1.2-2.9c-0.2-2-0.4-4.3-1.4-6c-2.6-4.1-5.7-7.9-8.6-11.8c-1.1-1.5-2.4-3-3.6-4.4
			c-0.2,0.1-0.5,0.2-0.7,0.4c0.3,2.5,0.4,5.1,1.1,7.6c1.2,4.5,2.7,8.9,4.3,13.3c0.4,1.1,1.7,1.8,2.6,2.6c0.5-1.1,1.1-2.1,1.6-3.2
			c0.1-0.1,0.1-0.3,0.3-0.5C506,249.9,506.7,251.5,507.5,253z M511.3,239.1c-0.5,0.2-0.9,0.4-1.4,0.6c1.8,6.9,3.6,13.8,5.6,20.6
			c0.4,1.2,2.2,1.9,3.4,2.8c0.5-1.3,1-2.6,1.5-3.9c0-0.1,0.2-0.2,0.5-0.5c0.5,1.5,0.9,3,1.5,4.3c0.3,0.6,1.1,1,1.6,1.4
			c0.4-0.6,1.3-1.3,1.2-1.8c-0.4-2.5-0.5-5.4-1.8-7.3C519.7,249.7,515.4,244.5,511.3,239.1z M777.9,272c5.5,2.4,16.8-5.1,18.2-11.8
			c-3.7,0.6-7.3,0.9-10.9,1.8c-3.4,0.9-6.8,2.1-10,3.6c-0.9,0.4-1.2,2.1-1.7,3.2c1.1,0.4,2.3,1,3.4,1.1c0.9,0.1,1.9-0.2,2.9-0.4
			C779.2,270.3,778.6,271.1,777.9,272z M488,258.6c7.1,6.8,17.2,10.2,20.8,7.1c-2.4-1.2-4.7-2.4-7-3.6c2.6,0,4.9,0.7,7.2,0.9
			c1,0.1,2.1-0.8,3.1-1.2c-0.4-0.9-0.6-2.1-1.3-2.7c-1.1-0.9-2.5-1.6-3.9-2C500.5,255.5,494.4,256.9,488,258.6z M766.5,263
			c0.1,1.1,0,1.5,0.1,1.8c0.3,1.1,0.6,2.2,0.9,3.2c1-0.7,2.5-1.2,2.9-2.2c1.6-3.2,3-6.5,4.1-9.8c1-2.9,1.4-6,2-9
			c-0.3-0.2-0.7-0.3-1-0.5c-4.9,5.6-11,10.2-14.5,17.1c-0.3,0.6-0.6,1.4-0.5,2c0.2,0.9,0.7,2.1,1.3,2.3c0.7,0.2,1.9-0.4,2.5-1
			C765.2,266,765.6,264.7,766.5,263z M747.5,273.8c0.6,1.4,1.1,2.6,1.6,3.8c1.3-0.7,2.7-1.4,4-2.1c0.2-0.1,0.4-0.5,0.5-0.7
			c3.5-5.8,5.5-12.2,6.8-19c-4.9,4.2-9.5,8.7-13.9,13.3c-1.1,1.2-2,2.8-2.4,4.4c-0.3,1,0.4,2.3,0.6,3.5c0.7-0.7,1.4-1.4,2.1-2.1
			C747.1,274.5,747.3,274.1,747.5,273.8z M504.9,273.3c6.2,2.3,11.6,7.3,19.6,4.2c-2.6-0.8-4.5-1.5-6.5-2.1c3.2-0.2,6.3-0.2,9.3-0.6
			c0.8-0.1,2-1,2.1-1.6c0-0.7-0.8-1.7-1.6-2.2c-1.2-0.8-2.7-1.4-4.1-1.8C516.8,267.3,510.9,270.4,504.9,273.3z M1054.6,261.8
			c5,4.3,13.8,1.9,15.7-3.9c1.5-4.7-0.8-11.4-5.5-15.2c-1.3-1.1-2.9-1.9-4.4-2.9C1068.1,249.9,1064.4,259.9,1054.6,261.8z
			 M210.3,261.8c-5.6-1.1-9.2-3.7-10.1-9c-0.8-4.9,1.2-9,4.8-13.1c-6.6,2.2-11.7,9.5-11.3,15.4c0.2,3.8,2,6.7,5.7,8
			C203,264.3,206.6,264.6,210.3,261.8z M797.9,244.1c-5.6,2.3-10.6,4.2-15.4,6.5c-1.8,0.9-3.4,2.7-4.6,4.4c-0.5,0.8,0.3,2.5,0.5,3.7
			c1.1-0.3,2.1-0.5,3.2-0.9c0.6-0.2,1-0.8,1.4-1.1c0.2,0.9,0.1,2.1,0.6,2.6c0.4,0.3,1.7,0,2.4-0.4
			C791.8,255.7,795,250.5,797.9,244.1z M489.6,250.1c0.8,0.3,1.3,0.6,1.9,0.6c1.6-0.1,3.3-0.3,4.9-0.4c-1-1.3-1.8-3.3-3.2-3.9
			c-6-2.7-12.2-5.1-18.8-7.8c2.1,7.7,12.8,16.4,16.9,14.2C490.8,252,490.2,251.2,489.6,250.1z M756.7,227c0-0.3-0.1-0.5-0.1-0.8
			c-2.5-0.5-5-1.2-7.5-1.6c-0.8-0.1-2.1,0.2-2.6,0.8c-3.8,4.3-7.6,8.7-11.1,13.3c-0.8,1.1-0.6,3-0.9,4.5c1.4-0.7,3.2-1.1,4.2-2.1
			C744.1,235.7,749.2,229.9,756.7,227z M488.9,238.9c0.3,0.4,0.5,0.8,0.9,0.9c1.2,0.5,2.5,0.9,3.8,1.4c0-1.4,0.6-3.2-0.1-4
			c-2-2.5-4.2-5-6.8-6.9c-2.8-2.2-6.1-3.7-9.2-5.5c-0.7-0.4-1.3-0.8-2-1.2c-0.3,0.3-0.6,0.6-0.9,0.9c3.4,4.8,6.6,9.6,10.1,14.3
			C485.8,240.2,487.4,241,488.9,238.9z M777.8,276.8c-4.4-1.5-8.1-3-11.9-3.9c-2.8-0.6-5.9-0.4-8.2,1.8c-0.6,0.6-1,1.8-0.9,2.6
			c0.1,0.4,1.4,0.9,2.2,1c1.7,0.2,3.4,0,5.1,0c0,0.2,0,0.4,0.1,0.6c-1.9,0.6-3.8,1.1-6,1.7C761.9,283.9,770.2,282.2,777.8,276.8z
			 M526.7,283.5c5.3,1.6,9.3,5.2,14.6,2.4c-1.1-0.3-2.3-0.7-3.4-1c1.6-0.5,3.1-0.3,4.5-0.6c1.2-0.2,2.3-0.8,3.4-1.2
			c-0.9-0.8-1.6-2-2.6-2.4C537.5,278.2,532.5,280.6,526.7,283.5z M753.3,286.3c0.1-0.4,0.2-0.9,0.4-1.3c-3.8-1.4-7.4-3-11.3-4
			c-1.3-0.3-3,1.3-4.5,2c1.2,0.9,2.5,1.7,3.7,2.6c0.1,0.1,0.4,0,0.6,0.1c0.2,0.1,0.4,0.4,0.5,0.6c-0.8,0.3-1.6,0.5-2.3,0.8
			C745.1,289.8,749.2,287.7,753.3,286.3z M532.8,266.5c0.7,0.7,1.4,1.5,2.2,2.3c0.2-1.2,0.8-2.6,0.6-3.7c-1.1-5.3-4.4-9.2-8.5-12.6
			c0.5,4.6,1.3,9.2,2.3,13.7c0.1,0.7,1.1,1.7,1.7,1.7C531.7,268,532.4,267,532.8,266.5z M721.2,268.2c-2.9,1.2-5.7,2.3-5.2,6.6
			c0.2,1.4-1.3,3.2-2.3,4.6c-0.5,0.7-1.7,1-2.5,1.5c0.3,0.3,0.5,0.5,0.8,0.8C719.1,281.5,724.2,274.1,721.2,268.2z M746,241.9
			c-1.8,2.1-3.7,3.5-4.4,5.3c-1.1,3-1.4,6.3-1.9,9.2C745.2,255.4,748.8,248.8,746,241.9z M543.8,291.8c4.6,2.8,9.6,3.1,12,1
			c-0.9-0.4-1.8-0.7-2.3-0.9c1.1-0.7,2.5-1.4,3.8-2.2c-0.1-0.3-0.3-0.6-0.4-1C552.1,287.4,548.3,289.8,543.8,291.8z M735.2,291.8
			c0.1-0.3,0.1-0.7,0.2-1c-2.2-1.2-4.4-2.6-6.7-3.4c-0.9-0.3-2.2,0.8-3.4,1.2c0.6,0.8,1.3,1.6,1.9,2.5c-0.2,0.2-0.5,0.6-0.9,1
			c0.1,0.3,0.2,0.5,0.3,0.8C729.5,292.5,732.4,292.2,735.2,291.8z"/>
		<path class="st0" d="M625.5,74c1.1-12,2.1-23.4,3.2-34.7c1.1-11.3,2.3-22.6,3.8-33.9c2.2,22.6,4.3,45.2,6.6,68.4
			c8.2-5.3,16-10.3,23.8-15.3c0.1,0.1,0.3,0.3,0.4,0.4c-5,7.8-10.1,15.7-15.5,24c14,2.3,27.5,4.5,41,6.7c0,0.1,0,0.2,0,0.3
			c-13.5,2.2-26.9,4.3-41,6.6c5.4,8.4,10.5,16.3,15.6,24.2c-0.1,0.1-0.2,0.3-0.3,0.4c-7.8-5-15.7-10.1-24.1-15.5
			c-2.2,23.3-4.4,46-6.6,68.7c-0.2,0-0.3,0-0.5,0.1c-2.2-22.7-4.4-45.3-6.6-68.7c-8.3,5.3-16.1,10.3-23.9,15.4
			c-0.1-0.1-0.3-0.2-0.4-0.4c5.1-7.9,10.2-15.8,15.6-24.2c-14-2.3-27.6-4.5-42-6.8c14.4-2.3,28-4.5,42-6.8
			c-5.4-8.4-10.5-16.2-15.6-24.1c0.1-0.1,0.2-0.3,0.3-0.4C609.2,63.5,617,68.5,625.5,74z"/>
		<path class="st0" d="M1058.3,339.9c-3.7-5.8-13.3-9.4-22-8.3c6.9-4.4,20.6-3.5,29.5,2.3c9,5.8,13.8,14.1,14,24.3
			c-4.3-1.4-8.4-3.7-12.6-4c-15.6-1.1-25.8,13-20.6,28.3c3.4,10,10.5,17.3,18.2,24.1c1.2,1.1,2.5,2,3.7,3c0.2,0.2,0.5,0.2,1.1,0.4
			c1.3-7.1,3.9-13.6,9.2-19.2c-1.2,3.7-2.6,7-3.2,10.5c-1.6,8.6,0.7,16.7,5.2,23.7c6.7,10.5,14.3,20.4,21.5,30.7
			c5.8,8.3,11.5,16.6,17.2,24.9c0.7,1,1.1,2.1,1.4,3.2c-4.4-5.3-8.6-10.9-13.4-15.9c-11.8-12.2-24-24.1-36-36.2
			c-11-11.2-20.7-23.4-27.7-37.5c-5.9-11.8-8.1-24.2-4.1-37.1c2.6-8.5,8-14.4,17-16.4c0.3-0.1,0.6-0.2,0.8-0.4
			C1057.8,340.3,1058,340.1,1058.3,339.9z"/>
		<path class="st0" d="M143.1,482.6c5.9-8.4,11.8-16.8,17.7-25.2c7.1-9.9,14.6-19.6,21.4-29.7c4.4-6.6,7.1-14,7.2-22.2
			c0-5.5-1.9-10.5-4.4-15.3c5.5,5.4,8.5,12,10,20.4c4.4-4.1,8.5-7.5,12.1-11.4c5.7-6,10.3-12.7,11.8-21.1c1.5-8.1-1.6-15.9-8.4-20.6
			c-6.8-4.7-16-4.8-22.9-0.3c-0.9,0.6-1.8,1.2-3.1,2.1c0.4-10.7,4.6-18.9,13-24.7c9.6-6.5,19.9-7.5,31.5-3.1
			c-9.5-0.7-17.1,1.5-23.3,8.3c0.8,0.4,1.1,0.8,1.6,0.9c11.2,2.5,16.5,10.3,18.4,20.8c2.3,12.7-0.6,24.5-6.7,35.8
			c-8.2,14.9-19,27.7-31.1,39.4c-7.7,7.5-15.6,14.7-22.9,22.5c-7.4,7.7-14.2,15.9-21.3,23.9C143.5,482.9,143.3,482.7,143.1,482.6z"
			/>
		<path class="st0" d="M555.2,184.8c0.6-0.2,1.2-0.4,1.7-0.5c-0.4-2.5-1.2-4.8-1.1-7.1c0.1-2-1.8-5.2,2.3-5.4
			c0.3-2.5,0.6-4.7,0.9-7.2c0.9,0.5,1.6,1,2.1,1.3c1.4-2.3,2.6-4.4,4.3-7.1c1.7,2.4,3,4.3,4.4,6.4c0.9-0.6,1.8-1.2,3-2
			c0.3,1.1,0.6,2.1,0.9,3.3c-2.7-1.4-3.3,0.3-3.6,2.1c-1.6-1-4.3-3.2-4.7-2.9c-2.2,1.9-3.7,4.4-5.5,6.8c0.2,0.2,0.4,0.4,0.6,0.6
			c-0.9,0-1.8,0-3.4,0c1.6,1.4,2.7,2.3,3.8,3.3c1.3-1.4,2.4-3.5,4-4c1.3-0.4,3.3,1,5.2,1.7c0.8-0.8,1.9-1.8,3-2.8
			c-1.2,2.9-2.2,5.8-0.5,8.4c-1.5-1.2-3.1-2.6-4.7-4c-1.3-1.2-2.7-1.3-3.5,0.2c-1.3,2.6-2.4,5.4-3.3,8.2c-0.1,0.4,0.5,1.4,1.1,1.7
			c1.7,1.1,3.4,2,5,2.9c2.6-1.7,5.2-3.1,7.5-5c1-0.8,1.5-2.5,1.7-3.8c0.3-2.3,0.1-4.7,0.1-7.1c0.4,0,0.7,0,1.1,0
			c0.2,2.6-0.3,5.6,0.7,7.9c1,2.3,0.8,3.9-0.2,5.9c-1.4,3-3.5,5.3-6.7,6.5c-0.7,0.3-1.7,1.6-1.5,2.3c1.8,9.6,5.3,18.6,10.7,26.8
			c0.1,0.2,0.5,0.3,0.2,0.1c0.8-5,1.2-10.2,2.5-15.2c0.7-2.9,1.4-5.5,1.3-8.6c-0.1-4.3,1.1-8.6,2-12.9c0.7-3.7,2.2-7.3-0.6-10.9
			c6.7-0.5,9.9,4.5,9.3,14.9c7.6-6.7,15.5-8.2,23.8-3.2c-4.1,5-8.2,9.9-12.2,14.9c4.8,3.6,6,6.4,4.5,11.1c-2.1,6.4-7.5,7.7-13.8,8.3
			c1.1-1.2,2-2.1,2.8-3c1.8-1.9,1.4-3.5-0.6-5c-2.4-1.7-4.9-2.1-7.6-0.8c-3.2,1.6-5,4.2-5.3,7.8c-0.5,6.3,2,11.4,6.8,15.2
			c11.1,8.8,23.4,9.2,35.8,3.6c6.4-2.9,12.2-7.4,17.5-10.7c-3.6,5.8-9.2,10.8-16.3,14c-18.5,8.4-43.1,3.3-55.1-20.1
			c-4.1-8.1-6.9-16.5-8.4-25.4c-0.1-0.9-0.9-2.1-1.7-2.3C559.3,191.9,557.6,190.5,555.2,184.8z M614.5,187.1
			c-10.4-4.7-27,8.9-28.4,22.7c2.8-0.8,5.7-2.3,8.5-2.1c2.8,0.2,5.6,2,8.5,3.2c0.6-3.2,0.8-6.8-3.5-9.3
			C606.9,198.9,610.3,192.7,614.5,187.1z"/>
		<path class="st0" d="M514.3,96.5c0-10.7,8.2-18.2,19.9-18.2c11.5,0.1,18.2,9.2,18.3,20.6c0.1,11.7-8.8,17.8-20.4,18.2
			C521.9,117.4,514.3,108.3,514.3,96.5z M543.9,101.1c-0.3-4.8-1.8-10.8-5.9-15.7c-2.2-2.6-4.9-4-8.5-3.2c-3.5,0.9-5.6,3.2-6.2,6.6
			c-1.5,8,0.6,15.3,5.7,21.5c1.2,1.4,3.2,2.5,5.1,2.8C539.9,114.1,543.9,109.7,543.9,101.1z"/>
		<path class="st0" d="M461.8,145.1c-1.5-0.2-3.1-0.1-4.5-0.6c-9.6-3.2-19.2-6.6-28.8-9.9c-0.7-0.3-1.5-0.4-3.2-0.9
			c4.6,8.2,8.8,15.8,13.2,23.6c-1,0.6-2,1.2-3.3,2c-6.1-10.9-12.2-21.6-18.3-32.4c3.7-3,7-4.7,11.9-2.6c6.9,2.9,14.3,5,22,6.9
			c-3.2-6-6.4-12-9.7-18.2c1.1-0.6,2.1-1.1,3.4-1.8c5.9,10.9,11.7,21.8,17.6,32.7C462,144.3,461.9,144.7,461.8,145.1z"/>
		<path class="st0" d="M497.2,110.8c-2.3-6.2-4.6-12.4-7.1-19c1.2-0.5,2.4-0.9,3.6-1.3c4.4,11.7,8.8,23.2,13.5,35.7
			c-2-0.4-3.4-0.3-4.6-0.9c-9-4.4-17.9-8.8-26.8-13.3c-1.1-0.5-2.1-1-3.9-1.1c3.2,8.1,6.4,16.1,9.6,24.4c-1.2,0.5-2.1,0.9-3.5,1.5
			c-4.7-11.5-9.3-22.9-13.9-34.5c3.8-2.1,7.1-3.8,11.6-1.2c6.7,3.8,13.9,6.9,20.9,10.3C496.8,111.2,497,111,497.2,110.8z"/>
		<path class="st0" d="M425.5,165.7c-0.4,0.5-0.5,0.6-0.7,0.8c-6.1,4.9-6.1,5-12.8,1.2c-1.4-0.8-2.4-0.8-3.7,0.2
			c-3.2,2.6-6.4,5.1-9.7,7.6c-1.3,1-1.7,2-1,3.6c0.5,1.1,0.5,2.4,1,3.4c1.4,2.9,0.6,4.7-2.6,5.8c-1.5-5.2-3-10.4-4.5-15.7
			c-2-7.1-4-14.2-5.9-21.3c-0.2-0.8,0.3-2.4,1-2.9c1.4-0.9,2.3-3.4,4.7-2C402.7,152.8,414,159.2,425.5,165.7z M406.3,164.4
			c-5.3-3-10-5.7-14.7-8.4c-0.2,0.2-0.4,0.3-0.6,0.5c1.5,5.2,3,10.4,4.7,16.1C399.4,169.8,402.6,167.3,406.3,164.4z"/>
		<path class="st0" d="M825.4,116.6c-5,2.4-9.4,4.6-14.3,7c1.5,0.9,2.5,1.4,3.4,2c4.3,2.7,6.6,6.4,5.7,11.6c-0.8,5-3.5,8.9-8.4,10.3
			c-8.7,2.5-19-3.4-20-11.4c-0.5-4.2,0.8-7.8,3.8-10.5c2.8-2.5,6.1-4.5,9.3-6.4c3.3-1.9,6.9-3.2,10.2-5.1c2.4-1.3,4.4-1.5,6.5,0.2
			C822.6,115.1,823.8,115.6,825.4,116.6z M813.1,133.5c0-3.7-2.8-6.8-6.2-6.7c-3.9,0.1-8.4,5.3-8.5,9.9c-0.1,3.7,2.6,6.7,6.1,6.8
			C808.8,143.7,813.1,138.6,813.1,133.5z"/>
		<path class="st0" d="M868.4,143.9c-5.6,2.1-10.3,3.9-15.5,5.8c0.9,0.7,1.5,1.2,2.1,1.6c5.8,4.2,7.5,9.6,4.7,15.3
			c-2.9,6-9,8.6-15.6,6.7c-6.7-2-11.3-7.5-11.2-13.5c0.1-4.3,2.1-8.1,5.8-9.9c7.2-3.6,14.6-6.8,22.2-9.4
			C862.6,139.9,865.3,142.5,868.4,143.9z M845.4,169.2c4.2,0,9-5.3,9.1-10c0-3.1-3-6.2-6.1-6.3c-4.2-0.1-9,5.1-9,9.9
			C839.3,166.5,841.9,169.1,845.4,169.2z"/>
		<path class="st0" d="M759.9,107c3.9-2.6,7.8-5.2,12.1-8.1c-5.3-2-9.9-3.7-14.9-5.5c1-1.9,1.9-3.7,3-5.9c3.4,1.2,6.8,2.4,10.1,3.6
			c3.4,1.2,6.7,2.5,10.1,3.7c2,0.7,2.1,1.7,0.3,2.8c-3.2,2.1-6.3,4.2-9.5,6.3c-0.8,0.5-1.6,1.1-2.6,1.9c1.5,1.5,2.9,2.6,4,3.9
			c5.1,6.3,1.5,15.6-6.8,17.7c-7.7,2-17-3-19.1-10.1c-0.2-0.6-0.2-1.3-0.3-2.1c1.5-0.3,2.8-0.7,4.4-1c0.3,1.2,0.6,2.2,0.9,3.2
			c1.3,3.6,4.8,5.7,9.1,5.4c3-0.2,5.4-2.6,6.1-6c0.6-2.7-0.5-4.7-2.4-6.4C763.2,109.2,761.6,108.2,759.9,107z"/>
		<path class="st0" d="M731,78.6c-2.9,12.8-5.7,24.9-8.5,37.4c-2.1-0.4-4.2-0.7-6.1-1.4c-0.5-0.2-1.1-1.4-1-2
			c2.3-10.1,4.7-20.1,7.1-30.2c0.2-0.7,0.8-1.5,1.4-1.7C725.9,79.9,728.1,79.4,731,78.6z"/>
		<path class="st0" d="M163.4,569.6c-9.2,10.8-15.1,23.3-19.2,36.8c-4.1,13.4-5.8,27.2-6.7,41.1
			C133.5,613.2,145.9,580.8,163.4,569.6z"/>
		<path class="st0" d="M1101.7,570.1c4.8,3,8.3,7.1,11.4,11.6c7.4,10.8,11.3,23,13.4,35.8c1.7,10.5,1.8,21,0.4,31.6
			c-0.6-14.2-2.3-28.2-6.3-41.8C1116.7,593.8,1110.8,581.1,1101.7,570.1z"/>
		<path class="st0" d="M1098.1,555.7c-17.6-11.9-31.9-39.7-30.7-59.2C1071.8,519.2,1083.1,537.9,1098.1,555.7z"/>
		<path class="st0" d="M166.8,555.2c14.5-17.3,25.5-35.5,30-57.1C199.5,513.2,182.8,545.5,166.8,555.2z"/>
		<path class="st0" d="M542.5,211.9c-1.1-0.7-2.5-1.1-3.1-2.1c-7.2-11-12-23.1-15.1-35.8c-0.5-2.1-0.2-3.7,1.7-5.2
			c1.6-1.4,2.5-3.6,3.6-5.5c2.8,2,3.1,5.5-0.5,8.5c-2.1,1.8-2.1,3.2-1.4,5.6c3.9,11.8,8.5,23.4,15.4,33.8
			C542.9,211.4,542.7,211.6,542.5,211.9z"/>
		<path class="st0" d="M221,406.4c10.2-18.7,18.8-37.6,9.5-60c6.5,8.1,8,17,6.7,26.2C235.3,385.4,229,396.4,221,406.4z"/>
		<path class="st0" d="M1043.8,406.9c-9.5-12.4-17.3-25.6-16.7-42c0.2-6.3,2.2-12,6.2-17.1C1024.8,369.6,1033.7,388.3,1043.8,406.9z
			"/>
		<path class="st0" d="M1120.8,572.7c-10.6-9.4-16.8-29.2-13-40.7c1.3,6.1,2.3,13.6,4.5,20.6
			C1114.6,559.8,1118.1,566.5,1120.8,572.7z"/>
		<path class="st0" d="M137.6,501.4c7.8-15.2,18-28.2,31.2-38.7c-4,4.7-8.3,9.1-11.9,14c-5.5,7.5-10.5,15.3-15.6,23.1
			C140.4,501.2,139.8,502.3,137.6,501.4z"/>
		<path class="st0" d="M1095.1,462.1c13.4,10.7,23.8,23.8,31.6,39c-0.2,0.3-0.4,0.5-0.5,0.8c-0.9-0.5-2.2-0.7-2.6-1.4
			C1115.7,486.4,1106.1,473.7,1095.1,462.1z"/>
		<path class="st0" d="M156.4,531.6c3,16-2.1,29.5-13,41.2C150.5,560,155.5,546.5,156.4,531.6z"/>
		<path class="st0" d="M546.2,219.8c0.3,0,1.5,0.2,3.4,0.4c-0.2-2.4-0.4-4.7-0.5-6.7c3.8,1.2,6.2,4.7,5.6,9.2
			c-0.3,2.3,0.3,3.8,1.9,5.2c2,1.7,3.8,3.5,5.7,5.3c-1.8,1.7-3.3,1.4-4.9-0.4c-2.7-3-5.6-6-8.3-9C548,222.5,547.1,221,546.2,219.8z"
			/>
		<path class="st0" d="M1079,562.7c12.6,2.2,30.3,21.7,33.2,36.7C1104.4,583.7,1094.2,571.3,1079,562.7z"/>
		<path class="st0" d="M152.2,598.7c5.7-17.2,16.4-29.9,33.7-36.7C165.1,577.5,163.7,579,152.2,598.7z"/>
		<path class="st0" d="M195.9,616.9c3.9,2.8,6,6.5,6.6,11.2c0.9,7.5-1.3,14.4-3.8,21.3c-0.7,2-1.6,4-2.5,5.9
			C198.3,642.5,203.4,629.7,195.9,616.9z"/>
		<path class="st0" d="M1068.1,654.7c-3.6-9.2-7.9-18.3-5.7-28.7c0.8-3.8,2.8-6.9,6.8-9.7C1061.1,629.6,1066.1,642.2,1068.1,654.7z"
			/>
		<path class="st0" d="M215.8,419.1c9.2-11,17.8-22.4,24.3-35.4C235.3,397.8,226.3,408.9,215.8,419.1z"/>
		<path class="st0" d="M1046.9,417.5c-9-8.8-17.4-19.6-21.8-31.2C1032,396.2,1039.8,407.3,1046.9,417.5z"/>
		<path class="st0" d="M1047.3,698c0.7-11.2-0.3-21.1-6.8-29.9C1047,671.8,1051.3,687.9,1047.3,698z"/>
		<path class="st0" d="M217.4,699c-4.1-9.3-1.3-23.9,5.7-30.1C217.5,678,216,688,217.4,699z"/>
		<path class="st0" d="M869,268.2c-5.1,8.3-17.4,9.1-23.2,6C859.5,273.8,861.1,273.4,869,268.2z"/>
		<path class="st0" d="M419.1,274.2c-8.1,3.3-19.6,1.3-22.8-5.2C405.3,273.9,407.3,274.3,419.1,274.2z"/>
		<path class="st0" d="M252.7,367.1c3.1-9.2,5.2-18.5,4.8-28.3C259.7,348.9,257.5,358.2,252.7,367.1z"/>
		<path class="st0" d="M1010.9,365.9c-3.8-7.8-6.1-16.8-4.6-25.3C1007.8,348.6,1009.4,357.7,1010.9,365.9z"/>
		<path class="st0" d="M474.3,562.3c0-11.2,0-22.1,0-33.9c6.5,0.5,12.9,0.4,19,1.5c6,1.1,9.7,6.7,10.2,12.9c0.5,6.2-0.3,12.2-5.9,16
			c-2.5,1.7-5.7,3-8.8,3.4C484.2,562.7,479.4,562.3,474.3,562.3z"/>
		<path class="st0" d="M766.1,569c0.1,9.4-1.3,18.8-6,27.5c-5.2,9.6-13.2,15.4-24.3,15.1c-10.7-0.3-18.2-6.1-23-15.3
			c-5.3-10.2-6.9-21.2-5.6-32.5c0.7-6.3,1.9-12.7,3.9-18.6c3-8.6,8.9-15.2,18-17.9c11.5-3.5,23,1.1,29.7,11.7
			C764.6,548,766.2,558.2,766.1,569z"/>
		<path class="st0" d="M917.4,727.5c-4,0.3-8.1,0.9-12.1,0.9c-62.5,0.1-125,0-187.5,0c-119.5,0-239,0-358.4,0
			c-4.1,0-8.3-0.6-12.4-0.9c0-0.4,0-0.8,0-1.2c3.9-0.3,7.9-0.7,11.8-1c1-0.1,2,0,3,0c180.3,0,360.5,0,540.8,0
			c4.2,0,8.4,0.5,12.5,0.8c0.8,0.1,1.5,0.4,2.3,0.6C917.4,726.9,917.4,727.2,917.4,727.5z"/>
		<path class="st0" d="M908.6,421.7c-8.8,0-17.5,0-26.6,0c4.4-12.3,8.7-24.4,12.7-35.7C899.2,397.4,903.9,409.4,908.6,421.7z"/>
		<path class="st0" d="M347.3,542.2c4.5,11.6,9.1,23.6,13.9,35.7c-8.8,0-17.5,0-26.6,0C338.9,565.7,343.2,553.7,347.3,542.2z"/>
		<path class="st0" d="M713.8,195.2c-0.7-6.8-1.3-12.8-1.9-18.7c2.6,5.2,3.9,10.8,4.1,16.7c0.1,2.3,0.9,3.3,3,4c9.5,3.2,19,5.9,29,7
			c3.6,0.4,6.4-0.2,8.5-3.8c4.2-7.2,10.5-12.2,17.9-15.9c3.4-1.7,3.7-2.5,0.3-4.5c-9.7-5.7-19.5-11.3-29.5-16.5
			c-5.7-3-11.7-5.4-17.5-8.2c23.6,6.4,45.7,15.8,65.7,31c-10.3,5-19.8,10.5-24.6,21.5c1.1-0.8,2.1-1.6,3.2-2.4
			c7.5-5.9,15.1-11.5,24.6-13.7c1.1-0.2,2.8,0.2,3.5,1c1.9,2.2,3.7,4.5,5,7.1c3.1,6.1,1,11.2-5.4,13.7c-6.4,2.6-13.1,2.6-19.8,2.3
			c-22.2-1.1-43.1-7.5-63.4-16.1c-14.2-6-27.7-13.4-39.3-23.8c-4.3-3.8-8.1-8.1-9.3-14c-0.6-2.9,0.1-5.4,2.2-7.4
			c3.3-3.1,7.5-4,11.8-4.7c0.7-0.1,1.6,0.6,2.3,1.2c12,9.7,18.6,22.2,19.9,37.5c0.2,2.1,0.9,3,2.7,3.7
			C708.8,193.1,710.8,193.9,713.8,195.2z M689,162.9c-0.1,0.4-0.3,0.6-0.2,0.8c0.3,0.6,0.6,1.3,0.9,1.9c3.4,5.9,5.3,12.3,5.9,19
			c0.3,3,1.8,3.6,4.4,4.3C699.1,178.8,696,170.2,689,162.9z M688.5,171.3c-0.3,0.1-0.6,0.2-0.9,0.3c0.8,3.8,1.4,7.7,2.3,11.5
			c0.2,0.7,1.2,1.2,1.9,1.8c0.4-0.2,0.7-0.4,1.1-0.6C691.4,180.1,689.9,175.7,688.5,171.3z"/>
		<path class="st0" d="M983,515c-5.9,0-10.2-4.3-10.2-10.1c0-5.7,4.3-10.1,9.9-10.2c5.7-0.1,10.4,4.4,10.5,10
			C993.3,510.2,988.6,515,983,515z M980.8,506.1c3.4,1.5,2.3,7.7,8.1,6.1c-1.1-2.1-2.1-3.9-3.2-5.9c2.7-0.8,4.2-2.6,3.3-5.2
			c-0.5-1.4-2.1-3.1-3.5-3.4c-2.6-0.5-5.3-0.2-8.4-0.2c0,4.3,0.1,8.3,0,12.2c-0.1,2.9,1.2,3.2,3.7,2.3
			C980.8,510.1,980.8,508.3,980.8,506.1z"/>
		<path class="st0" d="M982.7,503.7c-0.8-0.8-1.4-1.4-2-2c0.6-0.4,1.3-1.2,1.9-1.1c0.9,0.1,1.7,0.8,2.6,1.2
			C984.6,502.4,983.9,502.9,982.7,503.7z"/>
	</g>
</g>
</svg>
