<?xml version="1.0" encoding="utf-8"?>
<!-- Generator: Adobe Illustrator 21.0.2, SVG Export Plug-In . SVG Version: 6.00 Build 0)  -->
<svg version="1.1" id="Layer_1" xmlns="http://www.w3.org/2000/svg" xmlns:xlink="http://www.w3.org/1999/xlink" x="0px" y="0px"
	 viewBox="0 0 1366 768" style="enable-background:new 0 0 1366 768;" xml:space="preserve">
<style type="text/css">
	.st0{fill-rule:evenodd;clip-rule:evenodd;fill:#005A9C;}
	.st1{fill-rule:evenodd;clip-rule:evenodd;fill:#FFCB05;}
	.st2{fill-rule:evenodd;clip-rule:evenodd;fill:#FFFFFF;}
</style>
<g>
	<path class="st0" d="M638.5,370.8c0,0-9.6-0.3-13.5-9c0,0-9,10.1-22.9,13.6l0.9,2.5V410l-2.6,2.6c0,0-10.5-7.8-11.5-17
		c-0.9-9.3,0.9-16.4,11.3-25.4c0,0,3.1-3,8.4-4.8v-1.1c-16.7,0-36.1,15.2-36.1,32.9c0,17.5,13.3,27.9,30.8,27.9
		c0,0,11.2,0.1,19.4-4.4v4.4c0,0.3-0.7,0.3-0.7,0.3c-2.4,0-4.3,1.6-4.3,3.5c0,2,1.9,3.5,4.3,3.5c2.4,0,4.3-1.6,4.3-3.5v-9.9
		c0,0,2.3-1.8,3.1-2.4c0.8-0.6,0.1-1.9-0.8-1.5c-0.9,0.3-2.3,0.9-2.3,0.9v-41.1C626.4,374.9,634.4,375.6,638.5,370.8L638.5,370.8z
		 M622.7,416.8c-14,1.5-17.7-1.5-17.7-1.5l11.5-9.8v-33.5c0-1.5,6.2,2.3,6.2,2.3V416.8L622.7,416.8z"/>
	<path class="st0" d="M656.3,406.8c0,0,0-19.7,0-20.5c0-0.8,1.5-2.5,1.5-2.5c-5.7-0.6-14.9-5.1-14.9-5.1c-5.1,4.3-13.3,4.8-13.3,4.8
		c-0.1,0.9,1.2,2.6,1.2,2.6v20.2c0,0-0.6,0.6-2,2.5c-1.4,1.9-0.6,1.9-0.6,1.9c11.5,1.2,16.1,6,16.1,6c5.1-5.7,13.8-7,13.8-7
		C656.8,409.1,656.3,406.8,656.3,406.8L656.3,406.8z M647,408.3c-6.2-1.2-7.4-2.6-7.4-2.6v-20.9c0-0.5,7.4,2.6,7.4,2.6V408.3
		L647,408.3z"/>
	<path class="st0" d="M715.8,406.8c0,0,0-19.7,0-20.5c0-0.8,1.6-2.5,1.6-2.5c-5.7-0.6-14.9-5.1-14.9-5.1c-5.1,4.3-13.3,4.8-13.3,4.8
		c-0.2,0.9,1.2,2.6,1.2,2.6v20.2c0,0-0.6,0.6-2,2.5c-1.4,1.9-0.6,1.9-0.6,1.9c11.5,1.2,16.1,6,16.1,6c5.1-5.7,13.8-7,13.8-7
		C716.3,409.1,715.8,406.8,715.8,406.8L715.8,406.8z M706.5,408.3c-6.2-1.2-7.4-2.6-7.4-2.6v-20.9c0-0.5,7.4,2.6,7.4,2.6V408.3
		L706.5,408.3z"/>
	<path class="st0" d="M753,408.6C753,408.6,753,408.6,753,408.6C753,408.6,752.6,409.1,753,408.6L753,408.6z"/>
	<path class="st0" d="M782.6,408.2c-2.2-0.3-3.1-3-3.1-3s0-18.9,0-19.7c0-0.8,0-4,0-4c-6.7-2.2-13.2-4.5-13.2-4.5
		c-6.2,3.7-12.9,5.7-12.9,5.7c-0.2,0.9,1.2,2.6,1.2,2.6v21.1c0,0,0.5-0.6-0.9,1.2c-0.4,0.5-0.6,0.8-0.7,0.9c6.7,0.8,14,8,14,8
		l5.3-5.7l6,5.7l7.1-8L782.6,408.2L782.6,408.2z M770.2,407.6c-2.8-2.2-6.7-4.1-6.7-4.1v-20.3c-1.9-1.2,6.7,2.6,6.7,2.6V407.6
		L770.2,407.6z"/>
	<path class="st0" d="M659.8,384.1l7.8-6c0,0,5,2.9,5.7,4.2c0,0,0.8,0.6,7.1-3.5l1.1-0.8c0,0,4,3.7,7.4,4.6c0,0-0.8,6.8-12.9,3.6
		c0,0-2.6-0.5-2.6,0.8c0,1.2,0,21.9,0,21.9h3.4c0,0-5.3,3.1-7.1,5.9c-1.9,2.8-1.7,2-1.7,2c0,0-0.6-3.4-7.3-7.3l-0.1-0.5h3.1v-20.8
		C663.7,388.2,662.4,384.3,659.8,384.1L659.8,384.1z"/>
	<path class="st0" d="M749,383.2c-3.3-1.3-8.7-5.6-8.7-5.6l-1.1,0.8c-6.4,4.2-8.2,4.3-8.2,4.3c-0.8-1.2-5.9-4.2-5.9-4.2l-7,5.3
		c2.6,0.1,3.7,4.5,3.7,4.5v20.8h-3.1l0.2,0.5c6.7,3.9,7.4,7.1,7.4,7.1s-0.3,0.9,1.6-1.9c1.9-2.8,7.1-5.9,7.1-5.9h-3.4
		c0,0,0-20.6,0-21.9l4-3.1l3.1,2.6v22.2h-1.9c0,0,6.9,6.5,7.2,7.9c0,0,6.4-7.4,7.2-7.4h-3.1v-23.1
		C748.2,386.2,749.7,383.5,749,383.2L749,383.2z"/>
	<path class="st1" d="M648.2,364.7H720v-6h-71.8V364.7L648.2,364.7z M653.5,363.9c-1.1,0-2-0.9-2-2c0-1.1,0.9-2,2-2c1.1,0,2,0.9,2,2
		C655.5,363,654.6,363.9,653.5,363.9L653.5,363.9z M668.7,363.9c-1.1,0-2-0.9-2-2c0-1.1,0.9-2,2-2s2,0.9,2,2
		C670.7,363,669.8,363.9,668.7,363.9L668.7,363.9z M684.1,363.9c-1.1,0-2-0.9-2-2c0-1.1,0.9-2,2-2c1.1,0,2,0.9,2,2
		C686.1,363,685.2,363.9,684.1,363.9L684.1,363.9z M699.3,363.9c-1.1,0-2-0.9-2-2c0-1.1,0.9-2,2-2c1.1,0,2,0.9,2,2
		C701.2,363,700.4,363.9,699.3,363.9L699.3,363.9z M714.8,363.9c-1.1,0-2-0.9-2-2c0-1.1,0.9-2,2-2c1.1,0,2,0.9,2,2
		C716.7,363,715.9,363.9,714.8,363.9L714.8,363.9z"/>
	<path class="st1" d="M648.2,358h72c0,0,0-2,0-4h-72V358L648.2,358z"/>
	<path class="st1" d="M648.2,353.3h72c0-0.5,0-0.9,0-1.3c0-2.5,2-4,3.2-4.4c1.2-0.4,3.6-2.1,3.6-2.1c6.1-4.9,3.6-9,3.6-9
		s-2.1,4.7-9.1,3.9c0,0-0.5,2.9-3.8,3.6c0,0,1.7,1.8,1.2,3.9c0,0-0.1,1.9-2.9,1.5c0,0-1.3-1.2,0.6-3.2l-2.7-2.2l-2.6,2
		c0,0,1.8,0.9,0.8,3.3c0,0-1,0.9-1.3,0.9c-0.4,0.1-3.8-1.5-0.2-5.3l-4.1-3.5l-4.2,3.5c0,0,3.3,3.3,0.6,5.1c0,0-2.9,2-3.3-1.6
		c0,0-0.4-1.1,1.1-1.7l-4.1-2.6l-3.9,2.7c0,0,1.2,0.8,1.1,1.5c0,0.7,0.3,2-2.3,2.3c0,0-2.7-0.3-2-3.1c0.8-2.8,3.6-3.2,4.6-3.5
		c0,0-2.6-4.4-10-5.8h-0.1c-7.4,1.3-10,5.8-10,5.8c1,0.3,3.8,0.6,4.6,3.5c0.8,2.8-2,3.1-2,3.1c-2.5-0.3-2.2-1.5-2.3-2.3
		c-0.1-0.7,1.1-1.5,1.1-1.5l-3.9-2.7l-4.1,2.6c1.4,0.6,1.1,1.7,1.1,1.7c-0.3,3.6-3.2,1.6-3.2,1.6c-2.7-1.8,0.6-5.1,0.6-5.1l-4.2-3.5
		l-4.1,3.5c3.6,3.8,0.2,5.3-0.1,5.3c-0.4,0-1.3-0.9-1.3-0.9c-0.9-2.3,0.8-3.3,0.8-3.3l-2.6-2l-2.7,2.2c1.9,2,0.6,3.2,0.6,3.2
		c-2.8,0.4-2.9-1.5-2.9-1.5c-0.5-2,1.2-3.9,1.2-3.9c-3.3-0.7-3.8-3.6-3.8-3.6c-7,0.7-9.1-3.9-9.1-3.9s-2.5,4.2,3.6,9
		c0,0,2.4,1.7,3.6,2.1c1.2,0.4,3.3,1.9,3.2,4.4V353.3L648.2,353.3z"/>
	<path class="st2" d="M720.3,354v-0.7h-0.1C720.2,353.5,720.2,353.8,720.3,354L720.3,354L720.3,354z"/>
	<path class="st1" d="M684.2,336.9c2.7,0,5.1,0.8,6.6,2.2l0.1,0.1c0.9,0.9,1.4,0.9,2.6,0.9c1.3,0,2.4-1.1,2.4-2.4
		c0-1.3,0-2.4-1.9-4.1l-1-0.9l1.5-1.4c7.4,3.2,8.4,8.1,8.4,8.1h5c0-1.6-2.5-6.1-2.5-6.1c9.5,2.3,12.6,8.3,12.6,8.3
		c2.9-5.3,8.1-4.2,8.1-4.2l0.9-2.6c0,0-3.2-0.2-5.5,0.5c0,0,1.3-1.6-2.1-2.1c0,0,0.3-2.4-4.1-2.4c0,0,0.2-1.6-2.6-2.6
		c-2.8-1-3.7,0-3.7,0s-0.6-1.7-3.1-2.2c-2.5-0.5-3.3,0.5-3.3,0.5s-0.5-1.7-4.1-2.1c-3.6-0.4-4.2,0.7-4.2,0.7s-0.6-1.2-2.3-1.3
		c-1.7-0.1-2.4,0.8-2.4,0.8s-1-1.5-2.4-0.3c0,0-1.3,0.2-1.9-0.9c0,0,0.2-1.1,1.1-1.4c0.9-0.2,1.7-0.2,1.7-0.2s-0.1-1.8-2.7-2.4
		c0,0,1-1.6-1.2-3.2H684c-2.2,1.7-1.2,3.2-1.2,3.2c-2.6,0.6-2.7,2.4-2.7,2.4s0.7,0,1.7,0.2c0.9,0.2,1.1,1.4,1.1,1.4
		c-0.5,1.1-1.9,0.9-1.9,0.9c-1.3-1.1-2.4,0.3-2.4,0.3s-0.7-0.9-2.4-0.8c-1.7,0.1-2.3,1.3-2.3,1.3s-0.6-1.1-4.2-0.7
		c-3.6,0.4-4.1,2.1-4.1,2.1s-0.8-1-3.3-0.5c-2.5,0.5-3.1,2.2-3.1,2.2s-0.9-1-3.7,0c-2.8,1-2.6,2.6-2.6,2.6c-4.4,0-4.1,2.4-4.1,2.4
		c-3.4,0.4-2.1,2.1-2.1,2.1c-2.4-0.6-5.5-0.5-5.5-0.5l0.8,2.6c0,0,5.1-1,8.1,4.2c0,0,3.1-6,12.6-8.3c0,0-2.5,4.5-2.5,6.1h5
		c0,0,0.9-5,8.4-8.1l1.5,1.4l-1,0.9c-1.8,1.7-1.9,2.8-1.9,4.1c0,1.3,1.1,2.4,2.4,2.4c1.2,0,1.7,0.1,2.6-0.9l0.1-0.1
		c1.6-1.3,3.9-2.2,6.6-2.2H684.2L684.2,336.9z"/>
	<path class="st0" d="M728.7,449.4c-0.8,0.2-1.7,0.5-2.3-0.1c-0.8-0.7-0.4-8-0.5-9.9c0-0.5,0.2-0.9,0-2c0,0-4.6-1.3-7.6-4.3
		c-1.8,2-5,4.2-8.8,5.2c0.6,0.3,0.9,0.8,1,1.2v8.5c-0.1,0.6-0.4,0.8-0.9,1.2c1.1,0.3,4.2,1.1,7.4,3c0.3,0.2,2.8-1.9,4-2.2
		c0.6,0.9,2.7,3,4.8,2.1c0.7-0.3,2.1-1.9,2.9-2.5C728.7,449.7,728.7,449.4,728.7,449.4L728.7,449.4z M715.8,446.5c0,0,0-8.6,0-8.8
		c0,0,4.5,2.4,4.5,2.4l0,8.1L715.8,446.5L715.8,446.5z"/>
	<path class="st0" d="M704.4,433.9c2.1,2,3.1,2.3,5.2,3.3c-0.5,2.4-5,3-7.8,1.6c-0.5-0.2-1.5,0.4-1.5,0.4l0,9.6l1.3,0l-4.3,3.3
		l-3.8-3.3l1.5,0v-10.4c-0.8-1.1-2.1-0.8-3.6-0.2l4.1-3.9c1.5-1.3,3.8,2.6,4.9,2.5c0.4-0.1,2.4-1.9,2.9-2.3
		C703.5,434.4,704.3,433.8,704.4,433.9L704.4,433.9z"/>
	<path class="st0" d="M662.7,433.7c3.5-0.5,4.8,3.6,6.7,4.9c1.8-1.4,2.4-4.3,5.2-4.7c0.9-0.1,2,0.3,2.4,0.9c0.8,1.2-0.1,2.7-1.3,1.5
		c-0.3-0.2-0.5-0.5-1-0.3c-0.5,0.2-3.8,4-3.7,4.6l0.1,0.1c0.4,0.7,5.7,7.2,6,7.4c0,0,0.1,0.2,0.1,0.2c1.3,0.3,1.5-1.4,2.9-1.2
		c0.2,1.6-2.6,4.6-3.8,5.1c-5,2-6.8-4.9-9.4-6.6c-0.6,0.3-2.8,3.1-3.5,4.1c-0.6,0.8-1,1.7-1.8,2.1c-1,0.5-2.2-0.4-2.7-1
		c-0.5-0.7-1.8-4,0.7-2.7c0.4,0.2,1.1,0.7,1.7,0.4c0.4-0.1,4.1-4.4,4.2-4.7c0-0.2,0-0.4-0.1-0.5c-0.3-0.8-3.2-4.4-4.1-5.2l-0.1-0.1
		c-1.1-0.4-1.5,1.2-3,0.8c0-0.9,0.4-1.4,0.7-2c0.4-0.6,1.4-2.1,1.5-2.2C660.8,434.2,661.9,433.8,662.7,433.7L662.7,433.7z"/>
	<path class="st0" d="M687.2,429.4c0.1,0.1,0.3,0.1,0.4,0.2l0,4.4h3.6c0,0.5,0,1.2,0,1.7c0,0-2.7-0.2-3.3,0.2l-0.4,0.2V447
		c0,0,1,0.7,1.3,0.8c0.1,0,0.2,0,0.3,0c0.5-0.1,2.6-1.5,2.9-0.4c0.1,0.4-0.1,0.7-0.2,0.9c-0.5,0.6-6.7,3.9-6.7,3.9s-3.7-3.1-4-3.4
		s1-1.4,1-1.4c0.2-0.8,0-6.9,0-9c0-0.6,0.2-1.6,0-2.2c0.1-0.8-2.4-0.7-2.4-0.7l0-1.5c0.4-0.2,1.7-0.1,2.3-0.2c0.1-0.3,0-1.2,0.2-1.5
		C682.3,432,686.6,429.7,687.2,429.4L687.2,429.4z"/>
	<path class="st0" d="M638.4,421.1c0.7-0.1,1.7,0.3,2.3,0.4c1.7,0.3,3.6,0.5,5.4,0.6c3,0.2,5.7,0,8.4-0.4c0.9-0.1,2-0.5,2.8-0.3
		c-0.4,0.9-0.9,1.4-1.5,2.1c-0.6,0.7-2.1,2.9-2.9,3.2c-0.4,0.1-0.7,0-1.1,0c-1.5,0-3.5,0.1-5.1,0.1c-1.2,0-2.7-0.3-4,0
		c-0.2,2.1-0.4,4.5,0.1,6.4c0.8-0.2,1.4-0.7,2.1-0.9c2.3-0.7,5.8,1.4,7.4,0.2c0.2-0.1,0.4-0.6,0.7-0.7c2.2-0.4-0.7,4.5-1.6,4.9
		c-1.5,0.7-3.9,0.4-5.6,0.1c-0.6-0.1-1.7-0.4-2.4-0.1c-1.4,0.5-0.8,4.7-0.8,6.5c0,0,0,0.2,0,0.2c-0.1,1.1,0,1.5-0.4,2.1
		c-0.3,0.4-0.3,0.7-0.5,1.2c1.2,0,2.2-0.3,3.2-0.4c2-0.2,3.8,0.4,5.4,0.7c1.2,0.2,3.2,0.4,4.1-0.2c0.6-0.5,1-2.2,1.7-2.6
		c0.2-0.1,0.7-0.1,0.9,0c0.4,0.1,0.7,0.4,0.7,1c-0.1,0.5-3.7,6.8-4,7c0,0,0,0.1,0,0.1c-0.1,0-0.2,0.1-0.2,0.1
		c-0.2,0.1-0.7,0.1-1,0.1c-3.3-0.2-6.7-1.3-9.9-1.6c-1.1-0.1-2.4-0.1-3.5,0c-0.8,0.1-4,1.1-4.6,0.7c-0.9-0.6,0.5-1.6,0.8-1.8
		c0.3-0.3,0.9-0.8,1-1.3c0.3-1.1,0.1-3.4,0-4.3c-0.3-4.1,0-8.7,0.1-12.9c0-1-0.2-2.2,0.1-3c0.4-0.9,1.6-1.5,2.2-2.4
		c-2.3-0.9-3.9,2.3-5.1,1.3c-0.4-0.4-0.5-0.7-0.1-1.1c1.2-1.4,2.7-2.7,4-4.1C637.7,421.6,638,421.2,638.4,421.1L638.4,421.1z"/>
	<path class="st0" d="M793.3,409.3c0.2,0.1,0.2,0.2,0.2,0.5c0,0.2-0.1,0.4-0.2,0.4c-0.1,0-0.2,0.1-0.4,0.1H792v-1h0.9
		C793.1,409.3,793.2,409.3,793.3,409.3L793.3,409.3z M791.2,408.6v3.9h0.8v-1.5h0.8c0.2,0,0.4,0,0.5,0.1c0.1,0.1,0.1,0.2,0.1,0.5
		v0.4c0,0.1,0,0.2,0,0.3c0,0.1,0,0.1,0,0.2h0.9v-0.1c-0.1,0-0.1-0.1-0.1-0.2c0,0,0-0.2,0-0.4v-0.3c0-0.3,0-0.5-0.1-0.6
		c-0.1-0.1-0.2-0.2-0.4-0.3c0.2-0.1,0.4-0.2,0.5-0.4c0.1-0.2,0.1-0.4,0.1-0.6c0-0.1,0-0.3-0.1-0.4c-0.1-0.1-0.1-0.2-0.2-0.3
		c-0.1-0.1-0.2-0.2-0.4-0.3c-0.1,0-0.4-0.1-0.6-0.1H791.2L791.2,408.6z"/>
	<path class="st0" d="M792.5,415.2c2.5,0,4.5-2,4.5-4.5c0-2.5-2-4.5-4.5-4.5c-2.5,0-4.5,2-4.5,4.5
		C788.1,413.2,790.1,415.2,792.5,415.2L792.5,415.2z M792.5,414.5c2.1,0,3.8-1.7,3.8-3.8c0-2.1-1.7-3.8-3.8-3.8
		c-2.1,0-3.8,1.7-3.8,3.8C788.7,412.9,790.4,414.5,792.5,414.5L792.5,414.5z"/>
</g>
</svg>
