<?xml version="1.0" encoding="utf-8"?>
<!-- Generator: Adobe Illustrator 21.0.2, SVG Export Plug-In . SVG Version: 6.00 Build 0)  -->
<svg version="1.1" id="Layer_1" xmlns="http://www.w3.org/2000/svg" xmlns:xlink="http://www.w3.org/1999/xlink" x="0px" y="0px"
	 viewBox="0 0 416 127" style="enable-background:new 0 0 416 127;" xml:space="preserve">
<style type="text/css">
	.st0{fill:#231F20;}
	.st1{fill:none;}
	.st2{fill:#ADADAD;}
	.st3{fill:#E61C23;}
</style>
<g>
	<path class="st0" d="M4.2,119.8l1.2-0.7c0.9,1.6,1.8,2.4,3,2.4c0.5,0,0.9-0.1,1.3-0.3c0.4-0.2,0.7-0.5,1-0.9
		c0.2-0.4,0.3-0.8,0.3-1.2c0-0.5-0.2-0.9-0.5-1.4c-0.4-0.6-1.3-1.4-2.4-2.3c-1.2-0.9-1.9-1.5-2.2-1.9c-0.5-0.7-0.8-1.4-0.8-2.2
		c0-0.6,0.1-1.2,0.4-1.7c0.3-0.5,0.7-0.9,1.3-1.2c0.5-0.3,1.1-0.4,1.8-0.4c0.7,0,1.3,0.2,1.9,0.5c0.6,0.3,1.2,0.9,1.9,1.8l-1.2,0.9
		c-0.5-0.7-1-1.2-1.4-1.4c-0.4-0.2-0.8-0.3-1.2-0.3c-0.6,0-1,0.2-1.4,0.5c-0.4,0.3-0.5,0.8-0.5,1.3c0,0.3,0.1,0.6,0.2,0.9
		c0.1,0.3,0.4,0.6,0.7,0.9c0.2,0.2,0.8,0.7,1.8,1.4c1.2,0.9,2.1,1.7,2.5,2.4c0.5,0.7,0.7,1.4,0.7,2.1c0,1-0.4,1.9-1.2,2.7
		c-0.8,0.8-1.7,1.1-2.9,1.1c-0.9,0-1.7-0.2-2.4-0.7C5.5,121.7,4.8,120.9,4.2,119.8z"/>
	<path class="st0" d="M23.2,107.9c2.2,0,4,0.7,5.4,2.2c1.5,1.4,2.2,3.2,2.2,5.3c0,2.1-0.7,3.9-2.2,5.3c-1.5,1.5-3.2,2.2-5.3,2.2
		c-2.1,0-3.9-0.7-5.4-2.2c-1.5-1.4-2.2-3.2-2.2-5.3c0-1.4,0.3-2.6,1-3.8c0.7-1.2,1.6-2.1,2.7-2.7C20.6,108.2,21.8,107.9,23.2,107.9z
		 M23.2,109.3c-1.1,0-2.1,0.3-3,0.8c-0.9,0.5-1.7,1.3-2.2,2.2c-0.5,0.9-0.8,2-0.8,3.1c0,1.7,0.6,3.1,1.8,4.3
		c1.2,1.2,2.6,1.8,4.2,1.8c1.1,0,2.1-0.3,3.1-0.8c0.9-0.5,1.7-1.3,2.2-2.2c0.5-0.9,0.8-2,0.8-3.1c0-1.1-0.3-2.2-0.8-3.1
		c-0.5-0.9-1.3-1.6-2.2-2.2C25.3,109.5,24.3,109.3,23.2,109.3z"/>
	<path class="st0" d="M34.4,108.2h1.4v12.9h5.5v1.4h-6.9V108.2z"/>
	<path class="st0" d="M44.5,108.2h1.4v8.6c0,1,0,1.7,0.1,1.9c0.1,0.6,0.2,1,0.5,1.4c0.3,0.4,0.7,0.7,1.2,1c0.5,0.3,1.1,0.4,1.6,0.4
		c0.5,0,0.9-0.1,1.4-0.3c0.4-0.2,0.8-0.5,1.1-0.8c0.3-0.4,0.5-0.8,0.6-1.3c0.1-0.4,0.1-1.1,0.1-2.2v-8.6h1.4v8.6
		c0,1.3-0.1,2.3-0.4,3.1c-0.2,0.8-0.7,1.5-1.5,2s-1.6,0.9-2.7,0.9c-1.2,0-2.1-0.3-3-0.8c-0.8-0.5-1.4-1.3-1.6-2.2
		c-0.2-0.6-0.3-1.6-0.3-3V108.2z"/>
	<path class="st0" d="M71.5,110.9l-1.1,0.9c-0.6-0.8-1.4-1.4-2.2-1.8c-0.9-0.4-1.8-0.6-2.9-0.6c-1.1,0-2.2,0.3-3.2,0.8
		c-1,0.5-1.7,1.3-2.3,2.2c-0.5,0.9-0.8,2-0.8,3.1c0,1.7,0.6,3.2,1.8,4.4c1.2,1.2,2.7,1.7,4.5,1.7c2,0,3.7-0.8,5-2.3l1.1,0.9
		c-0.7,0.9-1.6,1.6-2.7,2.1c-1.1,0.5-2.3,0.7-3.6,0.7c-2.5,0-4.5-0.8-5.9-2.5c-1.2-1.4-1.8-3.1-1.8-5.1c0-2.1,0.7-3.8,2.2-5.3
		c1.5-1.4,3.3-2.1,5.5-2.1c1.3,0,2.5,0.3,3.6,0.8C69.9,109.2,70.8,109.9,71.5,110.9z"/>
	<path class="st0" d="M74.9,108.2h1.4v14.3h-1.4V108.2z"/>
	<path class="st0" d="M87.2,107.9c2.2,0,4,0.7,5.4,2.2c1.5,1.4,2.2,3.2,2.2,5.3c0,2.1-0.7,3.9-2.2,5.3c-1.5,1.5-3.2,2.2-5.3,2.2
		c-2.1,0-3.9-0.7-5.4-2.2c-1.5-1.4-2.2-3.2-2.2-5.3c0-1.4,0.3-2.6,1-3.8c0.7-1.2,1.6-2.1,2.7-2.7C84.6,108.2,85.9,107.9,87.2,107.9z
		 M87.3,109.3c-1.1,0-2.1,0.3-3,0.8c-0.9,0.5-1.7,1.3-2.2,2.2c-0.5,0.9-0.8,2-0.8,3.1c0,1.7,0.6,3.1,1.8,4.3
		c1.2,1.2,2.6,1.8,4.2,1.8c1.1,0,2.1-0.3,3.1-0.8c0.9-0.5,1.7-1.3,2.2-2.2c0.5-0.9,0.8-2,0.8-3.1c0-1.1-0.3-2.2-0.8-3.1
		c-0.5-0.9-1.3-1.6-2.2-2.2C89.4,109.5,88.4,109.3,87.3,109.3z"/>
	<path class="st0" d="M98.5,122.5v-14.3h0.3l9.5,10.9v-10.9h1.4v14.3h-0.3l-9.4-10.8v10.8H98.5z"/>
	<path class="st0" d="M114,108.2h8.2v1.4h-6.7v4.5h6.7v1.4h-6.7v5.6h6.7v1.4H114V108.2z"/>
	<path class="st0" d="M123.9,119.8l1.2-0.7c0.9,1.6,1.8,2.4,3,2.4c0.5,0,0.9-0.1,1.3-0.3c0.4-0.2,0.7-0.5,1-0.9
		c0.2-0.4,0.3-0.8,0.3-1.2c0-0.5-0.2-0.9-0.5-1.4c-0.4-0.6-1.3-1.4-2.4-2.3c-1.2-0.9-1.9-1.5-2.2-1.9c-0.5-0.7-0.8-1.4-0.8-2.2
		c0-0.6,0.1-1.2,0.4-1.7c0.3-0.5,0.7-0.9,1.3-1.2c0.5-0.3,1.1-0.4,1.8-0.4c0.7,0,1.3,0.2,1.9,0.5c0.6,0.3,1.2,0.9,1.9,1.8l-1.2,0.9
		c-0.5-0.7-1-1.2-1.4-1.4c-0.4-0.2-0.8-0.3-1.2-0.3c-0.6,0-1,0.2-1.4,0.5c-0.4,0.3-0.5,0.8-0.5,1.3c0,0.3,0.1,0.6,0.2,0.9
		c0.1,0.3,0.4,0.6,0.7,0.9c0.2,0.2,0.8,0.7,1.8,1.4c1.2,0.9,2.1,1.7,2.5,2.4c0.5,0.7,0.7,1.4,0.7,2.1c0,1-0.4,1.9-1.2,2.7
		c-0.8,0.8-1.7,1.1-2.9,1.1c-0.9,0-1.7-0.2-2.4-0.7C125.2,121.7,124.5,120.9,123.9,119.8z"/>
	<path class="st0" d="M156.1,110.6l-1.1,1c-0.8-0.8-1.7-1.4-2.6-1.8c-0.9-0.4-1.9-0.6-2.8-0.6c-1.1,0-2.2,0.3-3.2,0.8
		c-1,0.5-1.8,1.3-2.4,2.2c-0.6,0.9-0.8,1.9-0.8,3c0,1.1,0.3,2.1,0.9,3.1c0.6,1,1.4,1.7,2.4,2.3c1,0.6,2.1,0.8,3.3,0.8
		c1.5,0,2.7-0.4,3.7-1.2c1-0.8,1.6-1.9,1.8-3.2h-4.5v-1.4h6.1c0,2.2-0.7,4-2,5.2c-1.3,1.3-3,1.9-5.2,1.9c-2.6,0-4.7-0.9-6.3-2.7
		c-1.2-1.4-1.8-3-1.8-4.8c0-1.4,0.3-2.6,1-3.8c0.7-1.2,1.6-2.1,2.8-2.7c1.2-0.7,2.5-1,4-1c1.2,0,2.3,0.2,3.4,0.7
		C154.1,109,155.1,109.7,156.1,110.6z"/>
	<path class="st0" d="M160.6,108.2h2.8c1.6,0,2.7,0.1,3.2,0.2c0.8,0.2,1.5,0.6,2.1,1.2c0.5,0.6,0.8,1.4,0.8,2.4c0,0.8-0.2,1.5-0.5,2
		c-0.4,0.6-0.9,1-1.6,1.3c-0.7,0.3-1.6,0.5-2.8,0.5l5.1,6.6h-1.8l-5.1-6.6H162v6.6h-1.4V108.2z M162,109.6v4.8l2.5,0
		c1,0,1.7-0.1,2.1-0.3c0.5-0.2,0.8-0.5,1.1-0.9c0.3-0.4,0.4-0.8,0.4-1.3c0-0.5-0.1-0.9-0.4-1.3c-0.3-0.4-0.6-0.7-1-0.8
		c-0.4-0.2-1.1-0.3-2.1-0.3H162z"/>
	<path class="st0" d="M179.2,108.2l6.7,14.3h-1.5l-2.2-4.7h-6.1l-2.2,4.7h-1.6l6.7-14.3H179.2z M179,111.3l-2.4,5.2h4.9L179,111.3z"
		/>
	<path class="st0" d="M188.8,108.2h7.1v1.4h-5.7v4.5h5.7v1.4h-5.7v7h-1.4V108.2z"/>
	<path class="st0" d="M199,108.2h1.4v14.3H199V108.2z"/>
	<path class="st0" d="M217.8,110.9l-1.1,0.9c-0.6-0.8-1.4-1.4-2.2-1.8c-0.9-0.4-1.8-0.6-2.9-0.6c-1.1,0-2.2,0.3-3.2,0.8
		c-1,0.5-1.7,1.3-2.3,2.2c-0.5,0.9-0.8,2-0.8,3.1c0,1.7,0.6,3.2,1.8,4.4c1.2,1.2,2.7,1.7,4.5,1.7c2,0,3.7-0.8,5-2.3l1.1,0.9
		c-0.7,0.9-1.6,1.6-2.7,2.1c-1.1,0.5-2.3,0.7-3.6,0.7c-2.5,0-4.5-0.8-5.9-2.5c-1.2-1.4-1.8-3.1-1.8-5.1c0-2.1,0.7-3.8,2.2-5.3
		c1.5-1.4,3.3-2.1,5.5-2.1c1.3,0,2.5,0.3,3.6,0.8C216.2,109.2,217.1,109.9,217.8,110.9z"/>
	<path class="st0" d="M227.3,108.2l6.7,14.3h-1.5l-2.2-4.7H224l-2.2,4.7h-1.6l6.7-14.3H227.3z M227.1,111.3l-2.4,5.2h4.9
		L227.1,111.3z"/>
	<path class="st0" d="M235.5,119.8l1.2-0.7c0.9,1.6,1.8,2.4,3,2.4c0.5,0,0.9-0.1,1.3-0.3c0.4-0.2,0.7-0.5,1-0.9
		c0.2-0.4,0.3-0.8,0.3-1.2c0-0.5-0.2-0.9-0.5-1.4c-0.4-0.6-1.3-1.4-2.4-2.3c-1.2-0.9-1.9-1.5-2.2-1.9c-0.5-0.7-0.8-1.4-0.8-2.2
		c0-0.6,0.1-1.2,0.4-1.7c0.3-0.5,0.7-0.9,1.3-1.2c0.5-0.3,1.1-0.4,1.8-0.4c0.7,0,1.3,0.2,1.9,0.5c0.6,0.3,1.2,0.9,1.9,1.8l-1.2,0.9
		c-0.5-0.7-1-1.2-1.4-1.4c-0.4-0.2-0.8-0.3-1.2-0.3c-0.6,0-1,0.2-1.4,0.5c-0.4,0.3-0.5,0.8-0.5,1.3c0,0.3,0.1,0.6,0.2,0.9
		c0.1,0.3,0.4,0.6,0.7,0.9c0.2,0.2,0.8,0.7,1.8,1.4c1.2,0.9,2.1,1.7,2.5,2.4c0.5,0.7,0.7,1.4,0.7,2.1c0,1-0.4,1.9-1.2,2.7
		c-0.8,0.8-1.7,1.1-2.9,1.1c-0.9,0-1.7-0.2-2.4-0.7C236.7,121.7,236.1,120.9,235.5,119.8z"/>
	<path class="st0" d="M267.2,110.9l-1.1,0.9c-0.6-0.8-1.4-1.4-2.2-1.8c-0.9-0.4-1.8-0.6-2.9-0.6c-1.1,0-2.2,0.3-3.2,0.8
		c-1,0.5-1.7,1.3-2.3,2.2c-0.5,0.9-0.8,2-0.8,3.1c0,1.7,0.6,3.2,1.8,4.4c1.2,1.2,2.7,1.7,4.5,1.7c2,0,3.7-0.8,5-2.3l1.1,0.9
		c-0.7,0.9-1.6,1.6-2.7,2.1c-1.1,0.5-2.3,0.7-3.6,0.7c-2.5,0-4.5-0.8-5.9-2.5c-1.2-1.4-1.8-3.1-1.8-5.1c0-2.1,0.7-3.8,2.2-5.3
		c1.5-1.4,3.3-2.1,5.5-2.1c1.3,0,2.5,0.3,3.6,0.8C265.6,109.2,266.5,109.9,267.2,110.9z"/>
	<path class="st0" d="M277.6,107.9c2.2,0,4,0.7,5.4,2.2c1.5,1.4,2.2,3.2,2.2,5.3c0,2.1-0.7,3.9-2.2,5.3c-1.5,1.5-3.2,2.2-5.3,2.2
		c-2.1,0-3.9-0.7-5.4-2.2c-1.5-1.4-2.2-3.2-2.2-5.3c0-1.4,0.3-2.6,1-3.8c0.7-1.2,1.6-2.1,2.7-2.7
		C275.1,108.2,276.3,107.9,277.6,107.9z M277.7,109.3c-1.1,0-2.1,0.3-3,0.8c-0.9,0.5-1.7,1.3-2.2,2.2c-0.5,0.9-0.8,2-0.8,3.1
		c0,1.7,0.6,3.1,1.8,4.3c1.2,1.2,2.6,1.8,4.2,1.8c1.1,0,2.1-0.3,3.1-0.8c0.9-0.5,1.7-1.3,2.2-2.2c0.5-0.9,0.8-2,0.8-3.1
		c0-1.1-0.3-2.2-0.8-3.1c-0.5-0.9-1.3-1.6-2.2-2.2C279.8,109.5,278.8,109.3,277.7,109.3z"/>
	<path class="st0" d="M289,108.2h2.8c1.6,0,2.7,0.1,3.2,0.2c0.8,0.2,1.5,0.6,2.1,1.2c0.5,0.6,0.8,1.4,0.8,2.4c0,0.8-0.2,1.5-0.5,2
		c-0.4,0.6-0.9,1-1.6,1.3c-0.7,0.3-1.6,0.5-2.8,0.5l5.1,6.6h-1.8l-5.1-6.6h-0.8v6.6H289V108.2z M290.4,109.6v4.8l2.5,0
		c1,0,1.7-0.1,2.1-0.3c0.5-0.2,0.8-0.5,1.1-0.9c0.3-0.4,0.4-0.8,0.4-1.3c0-0.5-0.1-0.9-0.4-1.3c-0.3-0.4-0.6-0.7-1-0.8
		c-0.4-0.2-1.1-0.3-2.1-0.3H290.4z"/>
	<path class="st0" d="M301.7,108.2h2.8c1.6,0,2.7,0.1,3.3,0.2c0.8,0.2,1.5,0.6,2,1.2c0.5,0.6,0.8,1.4,0.8,2.4c0,1-0.3,1.7-0.8,2.4
		c-0.5,0.6-1.2,1-2.1,1.2c-0.6,0.2-1.9,0.2-3.6,0.2h-1v6.6h-1.4V108.2z M303.2,109.6v4.8l2.4,0c1,0,1.7-0.1,2.1-0.3
		c0.5-0.2,0.8-0.5,1.1-0.9c0.3-0.4,0.4-0.8,0.4-1.3c0-0.5-0.1-0.9-0.4-1.3c-0.3-0.4-0.6-0.7-1-0.8c-0.4-0.2-1.1-0.3-2.1-0.3H303.2z"
		/>
	<path class="st0" d="M321.1,107.9c2.2,0,4,0.7,5.4,2.2c1.5,1.4,2.2,3.2,2.2,5.3c0,2.1-0.7,3.9-2.2,5.3c-1.5,1.5-3.2,2.2-5.3,2.2
		c-2.1,0-3.9-0.7-5.4-2.2c-1.5-1.4-2.2-3.2-2.2-5.3c0-1.4,0.3-2.6,1-3.8c0.7-1.2,1.6-2.1,2.7-2.7
		C318.5,108.2,319.8,107.9,321.1,107.9z M321.2,109.3c-1.1,0-2.1,0.3-3,0.8c-0.9,0.5-1.7,1.3-2.2,2.2c-0.5,0.9-0.8,2-0.8,3.1
		c0,1.7,0.6,3.1,1.8,4.3c1.2,1.2,2.6,1.8,4.2,1.8c1.1,0,2.1-0.3,3.1-0.8c0.9-0.5,1.7-1.3,2.2-2.2c0.5-0.9,0.8-2,0.8-3.1
		c0-1.1-0.3-2.2-0.8-3.1c-0.5-0.9-1.3-1.6-2.2-2.2C323.2,109.5,322.2,109.3,321.2,109.3z"/>
	<path class="st0" d="M332.4,108.2h2.8c1.6,0,2.7,0.1,3.2,0.2c0.8,0.2,1.5,0.6,2.1,1.2c0.5,0.6,0.8,1.4,0.8,2.4c0,0.8-0.2,1.5-0.5,2
		c-0.4,0.6-0.9,1-1.6,1.3c-0.7,0.3-1.6,0.5-2.8,0.5l5.1,6.6h-1.8l-5.1-6.6h-0.8v6.6h-1.4V108.2z M333.9,109.6v4.8l2.5,0
		c1,0,1.7-0.1,2.1-0.3c0.5-0.2,0.8-0.5,1.1-0.9c0.3-0.4,0.4-0.8,0.4-1.3c0-0.5-0.1-0.9-0.4-1.3c-0.3-0.4-0.6-0.7-1-0.8
		c-0.4-0.2-1.1-0.3-2.1-0.3H333.9z"/>
	<path class="st0" d="M351,108.2l6.7,14.3h-1.5l-2.2-4.7h-6.1l-2.2,4.7h-1.6l6.7-14.3H351z M350.8,111.3l-2.4,5.2h4.9L350.8,111.3z"
		/>
	<path class="st0" d="M359.3,109.6v-1.4h7.8v1.4h-3.2v12.9h-1.5v-12.9H359.3z"/>
	<path class="st0" d="M369.7,108.2h1.4v14.3h-1.4V108.2z"/>
	<path class="st0" d="M374.1,108.2h1.6l4.7,11l4.8-11h1.6l-6.2,14.3h-0.3L374.1,108.2z"/>
	<path class="st0" d="M395.8,108.2l6.7,14.3h-1.5l-2.2-4.7h-6.1l-2.2,4.7h-1.6l6.7-14.3H395.8z M395.6,111.3l-2.4,5.2h4.9
		L395.6,111.3z"/>
	<path class="st0" d="M404,119.8l1.2-0.7c0.9,1.6,1.8,2.4,3,2.4c0.5,0,0.9-0.1,1.3-0.3c0.4-0.2,0.7-0.5,1-0.9
		c0.2-0.4,0.3-0.8,0.3-1.2c0-0.5-0.2-0.9-0.5-1.4c-0.4-0.6-1.3-1.4-2.4-2.3c-1.2-0.9-1.9-1.5-2.2-1.9c-0.5-0.7-0.8-1.4-0.8-2.2
		c0-0.6,0.1-1.2,0.4-1.7c0.3-0.5,0.7-0.9,1.3-1.2c0.5-0.3,1.1-0.4,1.8-0.4c0.7,0,1.3,0.2,1.9,0.5c0.6,0.3,1.2,0.9,1.9,1.8l-1.2,0.9
		c-0.5-0.7-1-1.2-1.4-1.4c-0.4-0.2-0.8-0.3-1.2-0.3c-0.6,0-1,0.2-1.4,0.5c-0.4,0.3-0.5,0.8-0.5,1.3c0,0.3,0.1,0.6,0.2,0.9
		c0.1,0.3,0.4,0.6,0.7,0.9c0.2,0.2,0.8,0.7,1.8,1.4c1.2,0.9,2.1,1.7,2.5,2.4c0.5,0.7,0.7,1.4,0.7,2.1c0,1-0.4,1.9-1.2,2.7
		c-0.8,0.8-1.7,1.1-2.9,1.1c-0.9,0-1.7-0.2-2.4-0.7C405.2,121.7,404.6,120.9,404,119.8z"/>
</g>
<path class="st1" d="M155,21.4c-16.2,0-29.4,13.1-29.4,29.2c0,16.1,13.2,29.2,29.4,29.2c16.2,0,29.4-13.1,29.4-29.2
	C184.4,34.5,171.2,21.4,155,21.4z"/>
<path class="st2" d="M155,20.8c-16.6,0-30,13.3-30,29.8c0,16.5,13.4,29.8,30,29.8c16.6,0,30-13.3,30-29.8
	C185,34.1,171.6,20.8,155,20.8z M155,79.8c-16.2,0-29.4-13.1-29.4-29.2c0-16.1,13.2-29.2,29.4-29.2c16.2,0,29.4,13.1,29.4,29.2
	C184.4,66.7,171.2,79.8,155,79.8z"/>
<path class="st2" d="M155,20.1c-16.9,0-30.6,13.7-30.6,30.5c0,16.8,13.7,30.5,30.6,30.5c16.9,0,30.6-13.7,30.6-30.5
	C185.7,33.8,171.9,20.1,155,20.1z M155,80.4c-16.6,0-30-13.3-30-29.8c0-16.5,13.4-29.8,30-29.8c16.6,0,30,13.3,30,29.8
	C185,67.1,171.6,80.4,155,80.4z"/>
<g>
	<path class="st0" d="M155,4c-25.8,0-46.8,20.9-46.8,46.5s21,46.5,46.8,46.5c25.8,0,46.8-20.9,46.8-46.5S180.9,4,155,4z M155,80.4
		c-16.6,0-30-13.3-30-29.8c0-16.5,13.4-29.8,30-29.8c16.6,0,30,13.3,30,29.8C185,67.1,171.6,80.4,155,80.4z"/>
	<path class="st0" d="M411,91.5l-45.9-78.1l-0.2-0.4c0-0.1-0.1-0.1-0.1-0.2c-1.8-3-5.8-5-10.1-5c-4.4,0-8.4,2-10.2,5.2
		c-0.1,0.1-0.1,0.2-0.2,0.3l0,0l-45.9,78.2c-0.3,0.5-0.3,1.1,0,1.6c0.3,0.5,0.8,0.8,1.4,0.8h16.7c0.6,0,1.1-0.3,1.4-0.8l36.9-60.9
		l36.9,60.9c0.3,0.5,0.8,0.8,1.4,0.8h16.7c0.6,0,1.1-0.3,1.4-0.8C411.3,92.6,411.3,92,411,91.5z"/>
	<path class="st0" d="M318.2,8.6c-0.3-0.5-0.8-0.8-1.4-0.8h-16.7c-0.6,0-1.1,0.3-1.4,0.8l-36.9,60.9L225,8.6
		c-0.3-0.5-0.8-0.8-1.4-0.8h-16.7c-0.6,0-1.1,0.3-1.4,0.8c-0.3,0.5-0.3,1.1,0,1.6l45.9,78.1l0,0.1c0.1,0.1,0.1,0.2,0.2,0.3
		c1.8,3.1,5.8,5.2,10.2,5.2c4.3,0,8.3-1.9,10.1-5c0-0.1,0.1-0.1,0.1-0.2l46.1-78.5C318.5,9.7,318.5,9.1,318.2,8.6z"/>
</g>
<circle class="st3" cx="354.7" cy="69.1" r="12"/>
<path class="st3" d="M63.9,25.3c-1.6-0.2-3.4,0-5.4,0.6c-1.9,0.6-3.9,1.5-6,2.6c-2,1.1-4.1,2.5-6.1,4c-2,1.5-4,3.3-6,5.2
	c-2,1.9-3.7,3.9-5.3,5.8c-1.6,2-2.9,4-4,5.9c-1.1,2-2,4-2.5,5.8c-0.5,1.9-0.6,3.6-0.2,5.1c0.4,1.5,1.4,2.5,2.9,3
	c1.6,0.5,3.7,0.4,6.1-0.3c2.6-0.7,5.6-2.2,8.9-4.2c3.3-2.1,6.7-4.8,10-8.1c3.2-3.2,5.9-6.5,7.8-9.6c1.9-3,3.1-5.8,3.6-8.2
	c0.5-2.2,0.4-4.1-0.3-5.4C66.8,26.3,65.6,25.5,63.9,25.3z M63,35.1c-0.5,1.9-1.5,4-3.1,6.4c-1.6,2.4-3.6,4.9-6.1,7.3
	c-2.5,2.5-5.1,4.5-7.6,6.2c-2.5,1.6-4.8,2.8-6.9,3.4c-2,0.6-3.7,0.8-5,0.5c-1.2-0.3-2.1-1-2.6-2.1c-0.4-1.1-0.4-2.4-0.1-3.9
	c0.3-1.4,1-3,1.9-4.7c0.9-1.6,2-3.3,3.3-4.9c1.3-1.6,2.7-3.3,4.4-4.9c1.6-1.6,3.4-3.1,5-4.3c1.7-1.3,3.4-2.4,5.1-3.3
	c1.7-0.9,3.4-1.6,4.9-2c1.6-0.4,3-0.5,4.2-0.2c1.2,0.3,2.1,1,2.5,2.1C63.5,31.8,63.5,33.3,63,35.1z"/>
<path class="st3" d="M57.7,31.4c-0.9-0.3-2-0.3-3.2,0c-1.2,0.3-2.5,0.8-3.9,1.5c-1.3,0.7-2.8,1.6-4.2,2.6c-1.4,1-2.8,2.2-4.1,3.6
	c-1.4,1.3-2.6,2.7-3.6,4c-1,1.4-1.9,2.7-2.6,4c-0.7,1.3-1.2,2.6-1.4,3.7c-0.2,1.2-0.2,2.2,0.2,3c0.4,0.8,1.2,1.3,2.2,1.4
	c1.1,0.2,2.4,0,4-0.6c1.6-0.6,3.4-1.5,5.3-2.7c1.9-1.3,3.9-2.9,5.7-4.7c1.9-1.8,3.4-3.7,4.6-5.6c1.2-1.8,2-3.4,2.5-4.9
	c0.4-1.4,0.5-2.6,0.3-3.6C59.2,32.3,58.6,31.7,57.7,31.4z"/>
<path class="st3" d="M71.3,18c-2.5,0-5.3,0.6-8.3,1.7c-2.7,1-5.6,2.4-8.4,4c-2.7,1.6-5.5,3.5-8.2,5.5c-2.6,2-5.3,4.3-7.9,6.9
	c-2.6,2.5-5,5.1-7,7.7c-2.1,2.7-4.1,5.4-5.6,8c-1.7,2.8-3,5.6-4,8.2c-1,2.8-1.5,5.6-1.3,7.9c0.2,2.6,1.3,4.6,3.1,5.8
	c2,1.4,4.9,1.8,8.6,1.2c4-0.7,8.8-2.5,14-5.6c5.5-3.3,11.2-7.7,16.6-13.1c5.3-5.4,9.6-10.9,12.5-16c2.7-4.8,4.2-9.2,4.5-12.7
	c0.3-3.2-0.5-5.7-2.1-7.3C76.3,18.7,74.1,18,71.3,18z M74.5,29.9c-0.4,3-1.8,6.7-4.2,10.7c-2.5,4.2-6,8.7-10.4,13.1
	c-4.4,4.4-9.1,8.1-13.6,10.8c-4.3,2.6-8.3,4.4-11.7,5.1c-3.2,0.7-5.8,0.5-7.6-0.4c-1.7-0.9-2.7-2.4-3.1-4.5c-0.3-2,0-4.2,0.8-6.7
	c0.7-2.3,1.9-4.7,3.3-7.2c1.4-2.4,3.1-4.8,5-7.2c1.9-2.3,4-4.7,6.3-7c2.3-2.3,4.7-4.4,7.1-6.2c2.4-1.9,4.9-3.5,7.3-4.9
	c2.5-1.4,5-2.6,7.4-3.4c2.5-0.8,4.9-1.3,7-1.2c2.3,0.1,4,0.9,5.1,2.3C74.5,24.9,74.9,27.1,74.5,29.9z"/>
<path class="st3" d="M5.6,4.1v92.5h97.3V4.1H5.6z M89.7,39c-3.8,7.7-9.8,16.2-18,24.5c-8.2,8.4-17.1,15-25.5,19.4
	C38.4,87,31.5,89.1,26,89.1c-4.8,0.1-8.4-1.4-10.6-4.1c-1.9-2.3-2.7-5.6-2.5-9.6c0.2-3.5,1.2-7.3,2.8-11.1c1.4-3.5,3.3-7,5.5-10.5
	c2.1-3.3,4.5-6.6,7.1-9.8c2.6-3.1,5.4-6.2,8.5-9.2c3.1-3,6.3-5.8,9.5-8.3c3.3-2.6,6.6-4.9,10-6.9c3.5-2.2,7.1-4,10.7-5.5
	c3.9-1.6,7.7-2.7,11.3-3.1c4.1-0.5,7.5,0,10.1,1.5c3,1.7,4.9,4.6,5.3,8.7C94.4,25.8,93.1,31.9,89.7,39z"/>
</svg>
